<svg width="16" height="16" viewBox="0 0 16 16" fill="none" xmlns="http://www.w3.org/2000/svg">
<path d="M7.11111 4.44444H8.88889V8H11.5556V9.77778H7.11111V4.44444Z" fill="#0061A3"/>
<path fill-rule="evenodd" clip-rule="evenodd" d="M0 8C0 3.58172 3.58172 0 8 0C12.4183 0 16 3.58172 16 8C16 12.4183 12.4183 16 8 16C3.58172 16 0 12.4183 0 8ZM1.77778 8C1.77778 4.56356 4.56356 1.77778 8 1.77778C11.4364 1.77778 14.2222 4.56356 14.2222 8C14.2222 11.4364 11.4364 14.2222 8 14.2222C4.56356 14.2222 1.77778 11.4364 1.77778 8Z" fill="#0061A3"/>
</svg>
