<svg width="19" height="18" viewBox="0 0 19 18" fill="none" xmlns="http://www.w3.org/2000/svg">
<path d="M8.16577 5H10.1658V9H13.1658V11H8.16577V5Z" fill="white"/>
<path fill-rule="evenodd" clip-rule="evenodd" d="M0.165771 9C0.165771 4.02944 4.19521 0 9.16577 0C14.1363 0 18.1658 4.02944 18.1658 9C18.1658 13.9706 14.1363 18 9.16577 18C4.19521 18 0.165771 13.9706 0.165771 9ZM2.16577 9C2.16577 5.13401 5.29978 2 9.16577 2C13.0318 2 16.1658 5.13401 16.1658 9C16.1658 12.866 13.0318 16 9.16577 16C5.29978 16 2.16577 12.866 2.16577 9Z" fill="white"/>
</svg>
