<svg width="37" height="37" viewBox="0 0 37 37" fill="none" xmlns="http://www.w3.org/2000/svg">
<g clip-path="url(#clip0_104_4790)">
<circle cx="18.7332" cy="18.3604" r="18" fill="#25D366"/>
<path d="M23.6084 20.5051C23.3159 20.4076 22.0484 19.7251 21.7559 19.6276C21.4634 19.5301 21.3659 19.5301 21.1709 19.7251C20.9026 20.1017 20.6094 20.46 20.2934 20.7976C20.0984 20.9926 20.0009 20.9926 19.7084 20.8951C18.8933 20.6207 18.1571 20.1522 17.5634 19.5301C16.9589 19.0147 16.4619 18.3852 16.1009 17.6776C15.9059 17.3851 16.1009 17.2876 16.1984 17.0926C16.3515 16.9501 16.4829 16.7858 16.5884 16.6051C16.6859 16.4101 16.7834 16.3126 16.8809 16.1176C16.9784 15.9226 16.8809 15.8251 16.8809 15.6301C16.8809 15.4351 16.2959 14.1676 16.0034 13.6801C15.7109 13.1926 15.6134 13.1926 15.4184 13.1926H14.9309C14.6754 13.204 14.4328 13.3079 14.2484 13.4851C13.9278 13.7616 13.6737 14.1068 13.5049 14.495C13.3361 14.8833 13.257 15.3045 13.2734 15.7276C13.3627 16.7243 13.7348 17.6748 14.3459 18.4673C15.4534 20.222 17.0496 21.6149 18.9381 22.4746C19.6206 22.7671 20.1081 22.8646 20.4981 23.0596C21.0335 23.2313 21.6037 23.2648 22.1556 23.1571C22.8997 22.9584 23.5534 22.5111 24.0081 21.8896C24.1313 21.4781 24.1969 21.0515 24.2031 20.6221C24.0039 20.6238 23.806 20.5908 23.6181 20.5246L23.6084 20.5051ZM18.7334 27.1351C17.1136 27.1545 15.5215 26.7151 14.1411 25.8676L13.8486 25.6726L10.4264 26.5501L11.3136 23.2351L11.1186 22.9426C10.2273 21.5048 9.75464 19.8469 9.75361 18.1553C9.75168 16.3765 10.2775 14.6372 11.2645 13.1574C12.2516 11.6775 13.6555 10.5238 15.2985 9.84222C16.9415 9.16062 18.7498 8.98178 20.4945 9.32833C22.2392 9.67488 23.8418 10.5312 25.0996 11.789C26.3574 13.0468 27.2138 14.6495 27.5603 16.3942C27.9069 18.1389 27.7281 19.9472 27.0465 21.5902C26.3648 23.2332 25.2111 24.6371 23.7313 25.6241C22.2515 26.6112 20.5121 27.137 18.7334 27.1351ZM26.3481 10.6381C24.3008 8.66468 21.5767 7.54851 18.7334 7.51807C15.8889 7.51807 13.161 8.64802 11.1496 10.6593C9.13831 12.6707 8.00836 15.3986 8.00836 18.2431C8.00788 20.1322 8.51284 21.9871 9.47086 23.6153L7.89136 29.2021L13.6536 27.7396C15.2403 28.6037 17.0244 29.0404 18.8309 29.0071C20.2393 29.0071 21.6339 28.7297 22.9351 28.1907C24.2364 27.6517 25.4187 26.8617 26.4146 25.8658C27.4105 24.8699 28.2005 23.6876 28.7395 22.3863C29.2784 21.0851 29.5559 19.6905 29.5559 18.2821C29.4868 15.4259 28.3329 12.7033 26.3286 10.6673" fill="#FAFBFC"/>
</g>
<defs>
<clipPath id="clip0_104_4790">
<rect width="36" height="36" fill="white" transform="translate(0.733154 0.360352)"/>
</clipPath>
</defs>
</svg>
