<svg width="70" height="70" viewBox="0 0 70 70" fill="none" xmlns="http://www.w3.org/2000/svg">
<g clip-path="url(#clip0_104_1580)">
<path d="M26.3519 59.7644C26.2354 59.8223 26.1135 59.8692 25.9878 59.9045H25.9303C26.09 59.8624 26.2443 59.8029 26.3903 59.7271L26.3519 59.7644Z" fill="#56779C"/>
<path d="M25.1445 59.9795H24.9337H24.7804C24.9563 60.0202 25.1362 60.0421 25.317 60.0449L25.1445 59.9795Z" fill="#56779C"/>
<path d="M25.614 59.9701H25.3649C25.526 59.9658 25.6864 59.9471 25.844 59.9141L25.614 59.9701Z" fill="#56779C"/>
<path d="M9.70703 52.4629C9.7655 52.5162 9.82976 52.5632 9.89868 52.603C9.82976 52.5632 9.7655 52.5162 9.70703 52.4629Z" fill="#56779C"/>
<path d="M58.0507 41.583C58.0543 41.6108 58.0543 41.6392 58.0507 41.6671C58.0525 41.6825 58.0525 41.6983 58.0507 41.7137C58.0555 41.6704 58.0555 41.6264 58.0507 41.583Z" fill="#56779C"/>
<path d="M9.67835 52.4438C9.6432 52.3961 9.61119 52.3462 9.58252 52.2944C9.61119 52.3462 9.6432 52.3961 9.67835 52.4438Z" fill="#56779C"/>
<path d="M9.58245 52.2944C9.55242 52.2516 9.52976 52.2042 9.51538 52.1543C9.52976 52.2042 9.55242 52.2516 9.58245 52.2944Z" fill="#56779C"/>
<path d="M24.7228 59.9138L24.4928 59.8484C24.4161 59.8484 24.3395 59.783 24.2628 59.7363C24.4158 59.8208 24.5804 59.8837 24.7515 59.9231L24.7228 59.9138Z" fill="#56779C"/>
<path d="M52.4161 54.0961C52.5216 54.0401 52.5599 53.9841 52.5599 53.9467C52.5599 53.9094 52.5599 53.8533 52.4257 53.7973L47.8166 51.1826C47.6527 51.1043 47.4719 51.0659 47.2895 51.0705C47.1028 51.0639 46.9176 51.1058 46.7529 51.1919L40.0452 54.9272C39.9398 54.9833 39.8918 55.0393 39.8918 55.0767C39.8918 55.114 39.8918 55.17 40.0356 55.2261L44.6831 57.8315C44.8431 57.9205 45.0261 57.9626 45.2101 57.9529C45.397 57.9604 45.5824 57.9184 45.7467 57.8315L52.4161 54.0961Z" fill="#007695"/>
<path d="M52.5503 53.536L47.9123 50.9306C47.71 50.8267 47.4847 50.7725 47.2559 50.7725C47.0272 50.7725 46.8019 50.8267 46.5996 50.9306L39.8918 54.6659C39.5277 54.8714 39.5181 55.2076 39.8918 55.413L44.501 58.0184C44.7039 58.1255 44.9315 58.1801 45.1622 58.1772C45.3958 58.1789 45.6262 58.1244 45.833 58.0184L52.5407 54.2831C52.924 54.0963 52.9144 53.7415 52.5503 53.536ZM44.6831 57.8316L40.0739 55.2262C39.9685 55.1702 39.9301 55.1142 39.9301 55.0768C39.9301 55.0395 39.9301 54.9834 40.0835 54.9274L46.7912 51.1921C46.9559 51.106 47.1411 51.0641 47.3278 51.0707C47.5102 51.0661 47.691 51.1045 47.8549 51.1827L52.464 53.7975C52.5598 53.8535 52.5982 53.9095 52.5982 53.9469C52.5982 53.9842 52.5982 54.0403 52.4544 54.0963L45.7467 57.8316C45.5824 57.9186 45.3969 57.9606 45.2101 57.953C45.0261 57.9628 44.8431 57.9206 44.6831 57.8316Z" fill="#232323"/>
<path d="M3.30604 53.1063C3.40862 53.3293 3.58375 53.5131 3.80433 53.6293L28.3546 67.5434C28.4219 67.5831 28.4924 67.6175 28.5654 67.6461C28.6414 67.6838 28.7218 67.712 28.805 67.7301L28.9487 67.7768H29.0158H29.2171H29.4279H29.8782H30.1657H30.2903H30.434C30.6258 67.736 30.81 67.6667 30.9802 67.5714L69.4347 45.9065L69.6168 45.7944L69.6743 45.7384C69.6743 45.7384 69.6743 45.6917 69.7413 45.6637C69.7674 45.6253 69.7898 45.5846 69.8084 45.5423C69.813 45.502 69.813 45.4612 69.8084 45.4209V46.5415C69.8084 46.5415 69.8084 46.6162 69.8084 46.6442C69.8084 46.6722 69.8084 46.7002 69.8084 46.7283C69.7992 46.7725 69.7795 46.8141 69.7509 46.8497L69.6838 46.9244L69.6168 46.9897H69.5593L69.3772 47.1111L30.9898 68.692C30.8185 68.7851 30.6347 68.8543 30.4436 68.8974H30.2999H30.1657C30.0733 68.9071 29.9802 68.9071 29.8878 68.8974L29.7058 69.0375H29.4854H29.2841C29.2174 69.0472 29.1496 69.0472 29.0829 69.0375H29.0158C28.9632 69.0231 28.9119 69.0044 28.8625 68.9815C28.7843 68.9576 28.7075 68.9295 28.6325 68.8974C28.5654 68.8974 28.4792 68.8974 28.4217 68.8134L3.83307 56.16C3.68684 56.0913 3.56088 55.9877 3.46702 55.8586C3.37316 55.7296 3.31447 55.5794 3.29645 55.4222C3.29645 54.5818 3.29645 53.7507 3.29645 52.9102C3.28591 52.9755 3.28917 53.0423 3.30604 53.1063Z" fill="#0A1D23"/>
<path d="M27.3485 54.5444L31.469 56.879L28.7475 58.4198L24.6271 56.0759L27.3485 54.5444Z" fill="#00586F"/>
<path d="M40.9554 46.8867L45.0759 49.2213L42.3545 50.7528L38.234 48.4182L40.9554 46.8867Z" fill="#00586F"/>
<path d="M23.9563 56.4585L28.0672 58.7651L26.3902 59.6989C26.2443 59.7747 26.09 59.8342 25.9303 59.8763H25.8153C25.6577 59.9093 25.4973 59.9281 25.3362 59.9323C25.1554 59.9296 24.9755 59.9077 24.7995 59.867C24.6284 59.8276 24.4639 59.7647 24.3108 59.6802L21.254 57.9526L23.9563 56.4585Z" fill="#00586F"/>
<path d="M37.5538 48.8105L41.6743 51.1358L38.9529 52.6673L34.8324 50.3327L37.5538 48.8105Z" fill="#00586F"/>
<path d="M19.8166 54.124L23.3238 56.1131L20.6024 57.6446L20.5928 57.6539L17.076 55.6648H17.0952L19.8166 54.124Z" fill="#00586F"/>
<path d="M15.6865 51.7896L19.2032 53.7786L16.4722 55.3101L16.4626 55.3194L12.9554 53.3304L12.9746 53.321L15.6865 51.7896Z" fill="#00586F"/>
<path d="M44.3573 44.9819L48.4777 47.3165L45.7659 48.8387L41.6359 46.5041L44.3573 44.9819Z" fill="#00586F"/>
<path d="M51.1608 41.144L55.2908 43.4786L52.5694 45.0101L48.4393 42.6755L51.1608 41.144Z" fill="#00586F"/>
<path d="M30.7501 52.6392L34.8706 54.9644L32.1492 56.4959L28.0287 54.1613L30.7501 52.6392Z" fill="#00586F"/>
<path d="M47.7591 43.0581L51.8892 45.3927L49.1582 46.9242L45.0377 44.5896L47.7591 43.0581Z" fill="#00586F"/>
<path d="M40.2944 41.9097L36.7872 39.9206L39.5087 38.3892L43.0254 40.3782L40.2944 41.9097Z" fill="#00586F"/>
<path d="M43.6002 36.092L46.3025 34.5698L49.8097 36.5589L47.1074 38.081L43.6002 36.092Z" fill="#00586F"/>
<path d="M33.4907 45.7383L29.9835 43.7493L32.7049 42.2178L36.2121 44.2068L33.4907 45.7383Z" fill="#00586F"/>
<path d="M30.0891 47.6435L26.5819 45.6638L29.3033 44.1323L32.8105 46.1214L30.0891 47.6435Z" fill="#00586F"/>
<path d="M23.2854 51.4815L19.7782 49.4924L22.4996 47.9609L26.0068 49.95L23.2854 51.4815Z" fill="#00586F"/>
<path d="M39.5757 37.6607L36.0685 35.6716L38.7899 34.1401L42.2971 36.1292L39.5757 37.6607Z" fill="#00586F"/>
<path d="M36.9021 43.8144L33.3949 41.8347L36.1067 40.3032L39.6139 42.2923L36.9021 43.8144Z" fill="#00586F"/>
<path d="M47.7208 38.4264L50.4231 36.9043L53.9399 38.8934L51.228 40.4155L47.7208 38.4264Z" fill="#00586F"/>
<path d="M19.8838 53.3956L16.3766 51.4158L19.098 49.875L22.6052 51.8641L19.8838 53.3956Z" fill="#00586F"/>
<path d="M26.7351 54.199L24.0137 55.7305L20.4969 53.7508L23.2184 52.21L26.7351 54.199Z" fill="#00586F"/>
<path d="M36.1738 39.5752L32.6666 37.5862L35.3881 36.0547L38.8952 38.0344L36.1738 39.5752Z" fill="#00586F"/>
<path d="M43.6385 40.7236L47.1457 42.7127L44.4243 44.2442L40.9171 42.2551L43.6385 40.7236Z" fill="#00586F"/>
<path d="M26.6872 49.5669L23.1801 47.5779L25.9015 46.0464L29.4087 48.0354L26.6872 49.5669Z" fill="#00586F"/>
<path d="M26.6202 50.3047L30.137 52.2844L27.4156 53.8159L23.8988 51.8268L26.6202 50.3047Z" fill="#00586F"/>
<path d="M33.4236 46.4761L36.9404 48.4558L34.219 49.9873L30.7118 47.9982L33.4236 46.4761Z" fill="#00586F"/>
<path d="M30.0314 48.3809L33.5386 50.3699L30.8172 51.9014L27.3004 49.9123L30.0314 48.3809Z" fill="#00586F"/>
<path d="M39.4703 33.7573L41.1089 32.8235C41.4385 32.6603 41.8029 32.5752 42.1726 32.5752C42.5423 32.5752 42.9067 32.6603 43.2362 32.8235L45.6798 34.2055L42.9775 35.7277L39.4703 33.7573Z" fill="#00586F"/>
<path d="M40.2369 42.6382L43.7441 44.6272L41.0227 46.1587L37.5155 44.1697L40.2369 42.6382Z" fill="#00586F"/>
<path d="M9.89873 50.3606L11.5661 49.4268L15.0733 51.4158L12.3518 52.9753L9.9179 51.5932C9.84898 51.5535 9.78472 51.5065 9.72625 51.4532C9.67427 51.4039 9.62622 51.3508 9.58251 51.2944C9.55248 51.2516 9.52982 51.2043 9.51544 51.1543C9.51544 51.1543 9.51544 51.0983 9.51544 51.061C9.49629 50.9198 9.52295 50.7764 9.5917 50.6508C9.66044 50.5252 9.76781 50.4237 9.89873 50.3606Z" fill="#00586F"/>
<path d="M58.0218 41.7414C57.9799 41.8548 57.907 41.9548 57.811 42.0309C57.7496 42.0849 57.6821 42.1319 57.6098 42.1709L55.9808 43.1048L51.8507 40.7702L54.5625 39.248L57.6098 41.0223C57.7311 41.0748 57.8359 41.1579 57.9133 41.2629C57.9908 41.3679 58.0382 41.4912 58.0506 41.62C58.0465 41.6615 58.0368 41.7023 58.0218 41.7414Z" fill="#00586F"/>
<path d="M19.165 49.1465L15.6578 47.1575L18.3697 45.626L21.8769 47.615L19.165 49.1465Z" fill="#00586F"/>
<path d="M15.7536 51.0611L12.2465 49.072L14.9679 47.5405L18.4847 49.5296L15.7536 51.0611Z" fill="#00586F"/>
<path d="M25.9685 45.3086L22.4613 43.3288L25.1731 41.7974L28.6899 43.7864L25.9685 45.3086Z" fill="#00586F"/>
<path d="M22.5669 47.2325L19.0597 45.2434L21.7811 43.7119L25.2883 45.701L22.5669 47.2325Z" fill="#00586F"/>
<path d="M29.3703 43.4038L25.8632 41.4148L28.5846 39.8833L32.0918 41.8724L29.3703 43.4038Z" fill="#00586F"/>
<path d="M34.152 50.7158L38.2724 53.0504L35.551 54.5819L31.4305 52.2473L34.152 50.7158Z" fill="#00586F"/>
<path d="M36.8351 44.5522L40.3423 46.5413L37.6208 48.0728L34.1136 46.0837L36.8351 44.5522Z" fill="#00586F"/>
<path d="M32.7722 41.48L29.265 39.5002L31.9864 37.9688L35.4936 39.9578L32.7722 41.48Z" fill="#00586F"/>
<path d="M40.1986 38.0061L42.9105 36.4746L46.4272 38.4637L43.7058 39.9952L40.1986 38.0061Z" fill="#00586F"/>
<path d="M44.319 40.3406L47.0404 38.8091L50.5476 40.7981L47.8262 42.3296L44.319 40.3406Z" fill="#00586F"/>
<path d="M51.8411 40.7611L54.553 39.2389L53.9397 38.8934L51.2279 40.4155L47.7207 38.4265L50.4229 36.9043L49.8288 36.5495L47.1266 38.0716L43.6002 36.0919L46.3025 34.5698L45.6796 34.2242L42.9773 35.7464L39.4702 33.7573L38.7898 34.1402L42.297 36.1293L39.5756 37.6607L36.0684 35.6717L35.388 36.0545L38.8952 38.0436L36.1738 39.5751L32.6666 37.586L31.9862 37.9689L35.4551 39.958L32.772 41.4801L29.2648 39.5004L28.5845 39.8833L32.0916 41.8723L29.3702 43.4038L25.8726 41.4147L25.1923 41.7976L28.6899 43.824L25.9684 45.3088L22.4613 43.3291L21.7809 43.712L25.2881 45.6917L22.5667 47.2232L19.0595 45.2341L18.3791 45.617L21.8863 47.606L19.1649 49.1469L15.6577 47.1578L14.9773 47.5407L18.4845 49.5297L15.7631 51.0612L12.2559 49.0722L11.5756 49.455L15.0827 51.4441L12.3517 52.9756L12.9746 53.3211L15.696 51.7896L19.1649 53.7787L16.4722 55.3102L17.0855 55.6557L19.8165 54.0962L23.3237 56.0852L20.6023 57.6447L21.2155 57.9996L23.9561 56.4588L28.067 58.7653L28.7474 58.3825L24.6269 56.0385L27.3483 54.5071L31.4688 56.8416L32.1491 56.4588L28.0287 54.1242L30.7501 52.602L34.8706 54.9273L35.5509 54.5444L31.4305 52.2285L34.1519 50.697L38.2723 53.0316L38.9527 52.6487L34.8322 50.3608L37.5537 48.8294L41.6741 51.1639L42.3545 50.7811L38.234 48.4465L40.9554 46.915L45.0759 49.2496L45.7658 48.8667L41.6358 46.5321L44.3572 45.01L48.4777 47.3446L49.158 46.9524L45.0376 44.5898L47.759 43.0583L51.889 45.3929L52.5694 45.01L48.4394 42.6754L51.1608 41.1439L55.2908 43.4785L55.9712 43.0956L51.8411 40.7611ZM40.9171 42.2552L43.6385 40.7237L47.1457 42.7128L44.4243 44.2443L40.9171 42.2552ZM37.5153 44.1229L40.2463 42.6381L43.7535 44.6271L41.0225 46.1586L37.5153 44.1229ZM34.1135 46.0839L36.835 44.5524L40.3422 46.5415L37.6207 48.073L34.1135 46.0839ZM30.7118 47.9516L33.4236 46.4201L36.9404 48.4932L34.219 49.9873L30.7118 47.9516ZM27.3004 49.8659L30.0314 48.3344L33.5386 50.3608L30.8172 51.8923L27.3004 49.8659ZM23.8986 51.7336L26.6201 50.2114L30.1368 52.1912L27.4154 53.816L23.8986 51.7336ZM20.4968 53.6012L23.2183 52.2285L26.735 54.2176L24.0136 55.7491L20.4968 53.6012ZM22.605 51.7336L19.8836 53.2651L16.3764 51.276L19.0978 49.7445L22.605 51.7336ZM26.0068 49.8659L23.2853 51.4814L19.7782 49.4924L22.4996 47.9609L26.0068 49.8659ZM29.4086 47.9516L26.6871 49.483L23.1799 47.5594L25.8726 46.0465L29.4086 47.9516ZM32.8103 46.0839L30.0889 47.6527L26.5817 45.6917L29.3031 44.1602L32.8103 46.0839ZM36.2121 44.1695L33.5386 45.7384L30.0314 43.7493L32.7528 42.2178L36.2121 44.1695ZM39.6139 42.3019L36.902 43.824L33.3949 41.8443L36.1067 40.3128L39.6139 42.3019ZM43.0253 40.4342L40.2942 41.9564L36.7871 39.9673L39.5181 38.4358L43.0253 40.4342ZM46.4174 38.5199L43.7056 39.9953L40.2463 38.0063L42.9678 36.4748L46.4174 38.5199ZM50.5475 40.8544L47.8261 42.3299L44.3189 40.3408L47.0403 38.8094L50.5475 40.8544Z" fill="#0A1D23"/>
<path d="M9.46741 51.0703C9.46741 51.0703 9.46741 51.1357 9.46741 51.1637C9.49727 51.2137 9.53623 51.258 9.5824 51.2944C9.61792 51.3403 9.65632 51.3839 9.69739 51.4252C9.75586 51.4785 9.82012 51.5255 9.88904 51.5652L12.323 52.9473L12.9458 53.2928L16.453 55.2819L17.0663 55.6274L20.5831 57.6165L21.1964 57.9713L24.2628 59.6989C24.3394 59.6989 24.4161 59.7736 24.4927 59.811L24.7227 59.8763H24.7802H24.9335H25.1443H25.3647H25.6139H25.8151H25.9301H25.9876C26.1133 59.841 26.2352 59.7941 26.3517 59.7363L28.0287 58.8024L28.709 58.4196L31.4688 56.8974L32.1491 56.5146L34.8706 54.9831L35.5509 54.6002L38.2723 53.0687L38.9527 52.6858L41.6741 51.1544L42.3545 50.7715L45.0376 49.2213L45.7275 48.8385L48.4393 47.3163L49.1197 46.9241L51.8507 45.3926L52.5311 45.0097L55.2525 43.4783L55.9328 43.0954L57.5619 42.1616C57.6342 42.1225 57.7017 42.0755 57.7631 42.0215C57.8065 41.9858 57.8451 41.9451 57.8781 41.9001C57.9041 41.8616 57.9265 41.821 57.9452 41.7787C57.9475 41.7632 57.9475 41.7475 57.9452 41.732C57.9498 41.7042 57.9498 41.6758 57.9452 41.6479V42.6378C57.9452 42.6378 57.9452 42.6378 57.9452 42.6938C57.9498 42.7217 57.9498 42.7501 57.9452 42.7779C57.9338 42.8186 57.9143 42.8567 57.8877 42.8899C57.8572 42.9369 57.8182 42.978 57.7727 43.0113C57.7113 43.0654 57.6438 43.1124 57.5714 43.1514L26.3996 60.7448H26.3517L25.9972 60.8755H25.9301H25.8151H25.6139C25.5309 60.8801 25.4477 60.8801 25.3647 60.8755H25.1923H24.9814H24.8377H24.7802C24.7015 60.8532 24.6246 60.8251 24.5502 60.7915C24.4684 60.7691 24.3883 60.7411 24.3107 60.7075L9.93695 52.5644C9.81504 52.5128 9.70973 52.4299 9.63214 52.3247C9.55455 52.2195 9.50756 52.0959 9.49615 51.9668V50.9956C9.49615 50.9956 9.46741 51.0516 9.46741 51.0703Z" fill="#0A1D23"/>
<path d="M1.10205 23.3355C1.09789 23.2826 1.09789 23.2296 1.10205 23.1767C1.09729 23.1333 1.09729 23.0894 1.10205 23.046V22.9059V22.7845V22.7098C1.10205 22.7098 1.10205 22.6351 1.10205 22.5977C1.10745 22.5637 1.10745 22.5291 1.10205 22.495C1.10564 22.4609 1.10564 22.4264 1.10205 22.3923L1.15955 22.2896C1.15955 22.2896 1.15955 22.2242 1.20746 22.1962C1.20746 22.1962 1.20746 22.1962 1.20746 22.1495L1.27454 22.0468C1.29113 22.0093 1.31377 21.9746 1.34161 21.9441L1.41827 21.86C1.56538 21.7354 1.73412 21.6374 1.91656 21.5705V21.5238L2.05072 21.4118C2.15182 21.3177 2.26447 21.2361 2.3861 21.169L40.8789 -0.514588C40.9425 -0.550003 41.01 -0.578202 41.0801 -0.598633H41.2047H41.3101H41.3868H41.6168H41.7126H41.7797L42.1055 -0.411867L42.278 -0.309145L42.7283 -0.0570107H42.7858H42.7187H42.6613H42.5942H42.5175H42.3642H42.278H42.1821L42.163 -0.066349H42.1055C42.0413 -0.0460632 41.9801 -0.0178161 41.9234 0.0176959L37.7838 2.4083L3.45934 21.7199C3.33924 21.7894 3.22685 21.8707 3.12395 21.9627C3.08713 21.9923 3.05486 22.0269 3.02813 22.0655L2.97063 22.1121C2.93036 22.1515 2.89498 22.1954 2.86523 22.2429L2.74065 22.3456C2.712 22.3775 2.68635 22.4119 2.66399 22.4483L2.59692 22.551V22.5977C2.59526 22.632 2.59526 22.6662 2.59692 22.7005C2.57719 22.7296 2.56111 22.761 2.549 22.7938C2.54558 22.8186 2.54558 22.8438 2.549 22.8685C2.55066 22.9028 2.55066 22.937 2.549 22.9713C2.549 22.9713 2.549 23.046 2.549 23.0833C2.55312 23.1206 2.55312 23.1581 2.549 23.1954V23.3168V23.4569C2.549 23.5036 2.549 23.5409 2.549 23.5876C2.54438 23.6404 2.54438 23.6935 2.549 23.7463L2.61608 46.8307V51.4158C2.60456 51.574 2.63459 51.7325 2.70333 51.8762C2.77207 52.02 2.87725 52.1444 3.00896 52.2375C1.91656 52.0134 1.1308 51.5839 0.383365 51.1636C0.256257 51.0712 0.154697 50.9494 0.0877975 50.8092C0.0208985 50.669 -0.00924692 50.5149 6.61166e-05 50.3605L1.10205 23.3355Z" fill="#004253"/>
<path d="M2.21368 47.0175L2.14661 23.9332C2.14661 23.8398 2.15619 23.7465 2.22327 23.5597C2.26046 23.3442 2.32483 23.1341 2.41492 22.934C2.46283 22.8313 2.56824 22.7286 2.56824 22.6352L2.74072 22.3737C2.79927 22.2919 2.86329 22.2139 2.93237 22.1403L2.98986 22.0936C3.03216 22.0477 3.07694 22.0041 3.12402 21.9628C3.22691 21.8708 3.33931 21.7895 3.45941 21.72L37.7838 2.40841L41.9139 0.129858C42.1103 0.014682 42.3363 -0.0436202 42.5655 -0.0382318C42.6657 -0.0334207 42.7636 -0.00795814 42.853 0.0364748C42.9861 0.130511 43.0922 0.256362 43.161 0.40192C43.2298 0.547477 43.259 0.707842 43.2458 0.867585L43.3225 28.5277C43.2982 28.9227 43.1913 29.3086 43.0084 29.6619C42.8255 30.0152 42.5704 30.3283 42.2588 30.5821C42.1797 30.6434 42.0965 30.6996 42.0097 30.7502L3.52648 52.3404C3.37255 52.4334 3.19884 52.4909 3.01861 52.5085C2.53949 52.5085 2.21368 52.1816 2.21368 51.5746V47.0175Z" fill="#007695"/>
<path d="M40.9843 4.13629C40.9741 4.08188 40.9581 4.02866 40.9364 3.97754C40.9581 4.02866 40.9741 4.08188 40.9843 4.13629Z" fill="white"/>
<path d="M39.8535 3.73455L38.7899 4.34154L5.50036 23.0649C5.16636 23.2786 4.88838 23.5657 4.6887 23.903C4.48901 24.2403 4.37317 24.6185 4.35046 25.0072L4.41754 46.8495V48.0635C4.40652 48.1504 4.40652 48.2382 4.41754 48.325C4.41214 48.2442 4.41214 48.163 4.41754 48.0822V48.0075L38.627 28.7612C39.0146 28.5195 39.3371 28.1907 39.5672 27.8023C39.7973 27.4139 39.9284 26.9774 39.9494 26.5294L39.8823 3.74389C40.3518 3.49176 40.7447 3.58514 40.9172 3.94934C40.7543 3.56646 40.3423 3.46374 39.8535 3.73455Z" fill="#F2C53D"/>
<path d="M4.42712 48.0074L38.6366 28.7611C39.0242 28.5194 39.3466 28.1905 39.5767 27.8021C39.8069 27.4138 39.9379 26.9772 39.959 26.5292L39.8823 3.72507C40.3327 3.46359 40.7543 3.55698 40.9268 3.94919C40.9485 4.00031 40.9645 4.05352 40.9747 4.10794C40.9851 4.19167 40.9851 4.27633 40.9747 4.36007L41.0418 27.4351C41.0209 27.8219 40.9068 28.1985 40.7087 28.5344C40.5106 28.8702 40.234 29.1558 39.9015 29.3681L5.57702 48.7264C5.02124 49.0439 4.56128 48.8571 4.44629 48.3249C4.44089 48.244 4.44089 48.1629 4.44629 48.0821L4.42712 48.0074Z" fill="#00AED6"/>
<path style="mix-blend-mode:overlay" opacity="0.16" d="M42.0191 30.7503L3.60293 52.3685C3.50578 52.4377 3.42599 52.5274 3.36956 52.6309C3.31312 52.7344 3.28152 52.849 3.27713 52.9662C3.26781 53.0312 3.26781 53.0972 3.27713 53.1623C3.37603 53.3899 3.55186 53.5778 3.77541 53.6946L28.364 67.5993C28.5479 67.7058 28.7487 67.7816 28.9582 67.8234C29.1782 67.8724 29.4032 67.8975 29.6289 67.8982C29.8318 67.8948 30.0339 67.873 30.2326 67.8328H30.3764C30.5674 67.7896 30.7513 67.7205 30.9226 67.6273L69.4441 45.9625C69.5188 45.9224 69.5894 45.8755 69.6549 45.8224C69.7156 45.7791 69.7676 45.7253 69.8083 45.6636C69.8476 45.6086 69.8798 45.549 69.9041 45.4862C70.0191 45.15 69.8466 44.7952 69.3962 44.5524L44.913 30.5729C44.5036 30.3747 44.0526 30.2715 43.5954 30.2715C43.1382 30.2715 42.6872 30.3747 42.2778 30.5729L42.0191 30.7503Z" fill="url(#paint0_linear_104_1580)"/>
<path d="M3.83313 53.6198L10.2151 57.0003C12.352 58.1209 14.4505 59.2882 16.5682 60.4368L22.9023 63.9013L26.0549 65.6569L27.6264 66.5907L28.4218 67.0296C28.6434 67.1725 28.8903 67.2738 29.15 67.3285H29.1021L29.6483 67.3845H30.0125H30.1849H30.2329C30.2329 67.3845 30.1274 67.3845 30.1849 67.3845H30.2808C30.2808 67.3845 30.7503 67.2164 30.7886 67.1791L31.4211 66.8149L33.9221 65.3861C35.5895 64.4336 37.2664 63.4998 38.9529 62.5846L49.0433 56.9816C50.7202 56.0478 52.4259 55.1139 54.1124 54.1801L59.2199 51.2946C60.9064 50.3607 62.6121 49.4829 64.3177 48.5771L69.4252 45.8877V45.9437L49.3499 57.2711L39.2883 62.9395L34.2575 65.741L31.7469 67.1697L31.124 67.5152C30.9027 67.6277 30.6719 67.7214 30.4341 67.7954C30.1849 67.8514 29.955 67.8514 29.7058 67.8888L28.968 67.8141C28.6714 67.7427 28.3895 67.6227 28.1343 67.4592L27.3485 67.011L25.777 66.1238L22.634 64.3682L16.3478 60.8103L3.83313 53.6758V53.6198Z" fill="#007695"/>
<g style="mix-blend-mode:multiply">
<g style="mix-blend-mode:multiply" opacity="0.02">
<path d="M56.6613 41.1438C56.6613 44.7204 50.6148 47.6246 43.1596 47.6246C35.7044 47.6246 29.7058 44.7577 29.7058 41.1438C29.7058 37.5299 35.7044 34.6724 43.1213 34.6724C50.5381 34.6724 56.6613 37.5672 56.6613 41.1438Z" fill="#FCFCFC"/>
</g>
<g style="mix-blend-mode:multiply" opacity="0.04">
<path d="M56.4697 41.1437C56.4697 44.6736 50.5094 47.5591 43.1213 47.5591C35.7332 47.5591 29.8016 44.7016 29.8016 41.1717C29.8016 37.6418 35.8003 34.7656 43.1213 34.7656C50.4423 34.7656 56.4697 37.6231 56.4697 41.1437Z" fill="#F9F9F9"/>
</g>
<g style="mix-blend-mode:multiply" opacity="0.06">
<path d="M56.278 41.1436C56.278 44.6268 50.404 47.4377 43.1596 47.4377C35.9153 47.4377 30.0316 44.6362 30.0316 41.1436C30.0316 37.6511 35.9057 34.8496 43.1596 34.8496C50.4135 34.8496 56.278 37.6698 56.278 41.1436Z" fill="#F6F6F6"/>
</g>
<g style="mix-blend-mode:multiply" opacity="0.08">
<path d="M56.0863 41.1435C56.0863 44.5707 50.3368 47.3535 43.15 47.3535C35.9631 47.3535 30.2136 44.552 30.2136 41.1435C30.2136 37.735 35.9631 34.9429 43.15 34.9429C50.3368 34.9429 56.0863 37.7164 56.0863 41.1435Z" fill="#F3F3F3"/>
</g>
<g style="mix-blend-mode:multiply" opacity="0.1">
<path d="M43.15 47.2605C50.1887 47.2605 55.8947 44.522 55.8947 41.1439C55.8947 37.7658 50.1887 35.0273 43.15 35.0273C36.1113 35.0273 30.4053 37.7658 30.4053 41.1439C30.4053 44.522 36.1113 47.2605 43.15 47.2605Z" fill="#F0F0F0"/>
</g>
<g style="mix-blend-mode:multiply" opacity="0.12">
<path d="M43.1499 47.167C50.0881 47.167 55.7125 44.4703 55.7125 41.1438C55.7125 37.8173 50.0881 35.1206 43.1499 35.1206C36.2118 35.1206 30.5873 37.8173 30.5873 41.1438C30.5873 44.4703 36.2118 47.167 43.1499 47.167Z" fill="#EDEDED"/>
</g>
<g style="mix-blend-mode:multiply" opacity="0.14">
<path d="M43.1499 47.0735C49.9822 47.0735 55.5209 44.4187 55.5209 41.1437C55.5209 37.8687 49.9822 35.2139 43.1499 35.2139C36.3176 35.2139 30.7789 37.8687 30.7789 41.1437C30.7789 44.4187 36.3176 47.0735 43.1499 47.0735Z" fill="#EAEAEA"/>
</g>
<g style="mix-blend-mode:multiply" opacity="0.16">
<path d="M55.3293 41.1436C55.3293 44.3746 49.8769 46.9894 43.15 46.9894C36.4231 46.9894 30.9611 44.3746 30.9611 41.1436C30.9611 37.9125 36.4135 35.3071 43.1212 35.3071C49.829 35.3071 55.3293 37.9219 55.3293 41.1436Z" fill="#E7E7E7"/>
</g>
<g style="mix-blend-mode:multiply" opacity="0.18">
<path d="M55.1377 41.1438C55.1377 44.3282 49.7715 46.8962 43.15 46.8962C36.5285 46.8962 31.1527 44.3282 31.1527 41.1438C31.1527 37.9595 36.5189 35.4194 43.1212 35.4194C49.7236 35.4194 55.1377 37.9688 55.1377 41.1438Z" fill="#E4E4E4"/>
</g>
<g style="mix-blend-mode:multiply" opacity="0.2">
<path d="M43.1403 46.8029C49.6604 46.8029 54.9459 44.2693 54.9459 41.1439C54.9459 38.0185 49.6604 35.4849 43.1403 35.4849C36.6203 35.4849 31.3347 38.0185 31.3347 41.1439C31.3347 44.2693 36.6203 46.8029 43.1403 46.8029Z" fill="#E1E1E1"/>
</g>
<g style="mix-blend-mode:multiply" opacity="0.22">
<path d="M54.7639 41.1435C54.7639 44.2252 49.5606 46.7465 43.1403 46.7465C36.7201 46.7465 31.5264 44.2532 31.5264 41.1435C31.5264 38.0339 36.7297 35.5405 43.1403 35.5405C49.551 35.5405 54.7639 38.0712 54.7639 41.1435Z" fill="#DEDEDE"/>
</g>
<g style="mix-blend-mode:multiply" opacity="0.24">
<path d="M54.6201 41.1437C54.6201 44.1787 49.4552 46.6253 43.1212 46.6253C36.7872 46.6253 31.718 44.1787 31.718 41.1437C31.718 38.1087 36.8351 35.6621 43.1212 35.6621C49.4073 35.6621 54.6201 38.1181 54.6201 41.1437Z" fill="#DBDBDB"/>
</g>
<g style="mix-blend-mode:multiply" opacity="0.25">
<path d="M54.3806 41.1436C54.3806 44.1225 49.3498 46.5411 43.1404 46.5411C36.9309 46.5411 31.9001 44.1225 31.9001 41.1436C31.9001 38.1647 36.9309 35.7554 43.1212 35.7554C49.3115 35.7554 54.3806 38.1647 54.3806 41.1436Z" fill="#D8D8D8"/>
</g>
<g style="mix-blend-mode:multiply" opacity="0.27">
<path d="M43.1404 46.4477C49.2424 46.4477 54.189 44.0729 54.189 41.1435C54.189 38.2141 49.2424 35.8394 43.1404 35.8394C37.0384 35.8394 32.0918 38.2141 32.0918 41.1435C32.0918 44.0729 37.0384 46.4477 43.1404 46.4477Z" fill="#D5D5D5"/>
</g>
<g style="mix-blend-mode:multiply" opacity="0.29">
<path d="M43.1403 46.3547C49.1418 46.3547 54.0069 44.0217 54.0069 41.1439C54.0069 38.2661 49.1418 35.9331 43.1403 35.9331C37.1389 35.9331 32.2738 38.2661 32.2738 41.1439C32.2738 44.0217 37.1389 46.3547 43.1403 46.3547Z" fill="#D2D2D2"/>
</g>
<g style="mix-blend-mode:multiply" opacity="0.31">
<path d="M43.1403 46.2612C49.0359 46.2612 53.8152 43.97 53.8152 41.1438C53.8152 38.3175 49.0359 36.0264 43.1403 36.0264C37.2448 36.0264 32.4655 38.3175 32.4655 41.1438C32.4655 43.97 37.2448 46.2612 43.1403 46.2612Z" fill="#CFCFCF"/>
</g>
<g style="mix-blend-mode:multiply" opacity="0.33">
<path d="M53.6619 41.1436C53.6619 43.9451 48.9665 46.177 43.1212 46.177C37.2759 46.177 32.6379 43.9264 32.6379 41.1436C32.6379 38.3608 37.3717 36.1196 43.1212 36.1196C48.8707 36.1196 53.6619 38.3702 53.6619 41.1436Z" fill="#CCCCCC"/>
</g>
<g style="mix-blend-mode:multiply" opacity="0.35">
<path d="M43.1308 46.0835C48.8199 46.0835 53.4319 43.8719 53.4319 41.1436C53.4319 38.4153 48.8199 36.2036 43.1308 36.2036C37.4416 36.2036 32.8296 38.4153 32.8296 41.1436C32.8296 43.8719 37.4416 46.0835 43.1308 46.0835Z" fill="#C9C9C9"/>
</g>
<g style="mix-blend-mode:multiply" opacity="0.37">
<path d="M53.2403 41.144C53.2403 43.8241 48.7173 45.9999 43.1308 45.9999C37.5442 45.9999 33.0212 43.8241 33.0212 41.144C33.0212 38.4639 37.5442 36.2974 43.1212 36.2974C48.6982 36.2974 53.2403 38.4732 53.2403 41.144Z" fill="#C6C6C6"/>
</g>
<g style="mix-blend-mode:multiply" opacity="0.39">
<path d="M53.0486 41.1436C53.0486 43.777 48.6119 45.9061 43.1308 45.9061C37.6496 45.9061 33.2129 43.8237 33.2129 41.1436C33.2129 38.4635 37.6496 36.353 43.1212 36.353C48.5928 36.353 53.0486 38.5195 53.0486 41.1436Z" fill="#C3C3C3"/>
</g>
<g style="mix-blend-mode:multiply" opacity="0.41">
<path d="M52.857 41.1438C52.857 43.7211 48.5066 45.8129 43.1308 45.8129C37.755 45.8129 33.395 43.7211 33.395 41.1438C33.395 38.5664 37.755 36.4746 43.1308 36.4746C48.5066 36.4746 52.857 38.5664 52.857 41.1438Z" fill="#C0C0C0"/>
</g>
<g style="mix-blend-mode:multiply" opacity="0.43">
<path d="M43.1308 45.7194C48.4019 45.7194 52.675 43.6708 52.675 41.1436C52.675 38.6165 48.4019 36.5679 43.1308 36.5679C37.8597 36.5679 33.5867 38.6165 33.5867 41.1436C33.5867 43.6708 37.8597 45.7194 43.1308 45.7194Z" fill="#BDBDBD"/>
</g>
<g style="mix-blend-mode:multiply" opacity="0.45">
<path d="M43.1212 45.6259C48.2864 45.6259 52.4737 43.6191 52.4737 41.1435C52.4737 38.668 48.2864 36.6611 43.1212 36.6611C37.9559 36.6611 33.7687 38.668 33.7687 41.1435C33.7687 43.6191 37.9559 45.6259 43.1212 45.6259Z" fill="#BABABA"/>
</g>
<g style="mix-blend-mode:multiply" opacity="0.47">
<path d="M52.2916 41.1439C52.2916 43.5719 48.1903 45.5422 43.1212 45.5422C38.052 45.5422 33.9603 43.5719 33.9603 41.1439C33.9603 38.7159 38.0616 36.7549 43.1212 36.7549C48.1807 36.7549 52.2916 38.7159 52.2916 41.1439Z" fill="#B7B7B7"/>
</g>
<g style="mix-blend-mode:multiply" opacity="0.49">
<path d="M52.1 41.1438C52.1 43.5251 48.085 45.4488 43.1212 45.4488C38.1575 45.4488 34.1425 43.5251 34.1425 41.1438C34.1425 38.7626 38.1671 36.8389 43.1212 36.8389C48.0754 36.8389 52.1 38.7719 52.1 41.1438Z" fill="#B4B4B4"/>
</g>
<g style="mix-blend-mode:multiply" opacity="0.51">
<path d="M51.9084 41.1437C51.9084 43.4783 47.9796 45.3646 43.1212 45.3646C38.2629 45.3646 34.3341 43.497 34.3341 41.1437C34.3341 38.7905 38.2629 36.9321 43.1212 36.9321C47.9796 36.9321 51.9084 38.8185 51.9084 41.1437Z" fill="#B1B1B1"/>
</g>
<g style="mix-blend-mode:multiply" opacity="0.53">
<path d="M51.7454 41.1436C51.7454 43.4221 47.9124 45.2711 43.1212 45.2711C38.3299 45.2711 34.4969 43.4035 34.4969 41.1436C34.4969 38.8837 38.3299 37.0254 43.1212 37.0254C47.9124 37.0254 51.7454 38.865 51.7454 41.1436Z" fill="#AEAEAE"/>
</g>
<g style="mix-blend-mode:multiply" opacity="0.55">
<path d="M51.5346 41.1435C51.5346 43.3754 47.7687 45.1777 43.1212 45.1777C38.4737 45.1777 34.7078 43.3754 34.7078 41.1435C34.7078 38.9117 38.4737 37.1094 43.1212 37.1094C47.7687 37.1094 51.5346 38.921 51.5346 41.1435Z" fill="#ABABAB"/>
</g>
<g style="mix-blend-mode:multiply" opacity="0.57">
<path d="M51.343 41.1439C51.343 43.329 47.6633 45.094 43.1212 45.094C38.5791 45.094 34.8899 43.329 34.8899 41.1439C34.8899 38.9587 38.5791 37.2031 43.1212 37.2031C47.6633 37.2031 51.343 38.9681 51.343 41.1439Z" fill="#A8A8A8"/>
</g>
<g style="mix-blend-mode:multiply" opacity="0.59">
<path d="M51.1514 41.1438C51.1514 43.273 47.5579 45.0006 43.1117 45.0006C38.6654 45.0006 35.0815 43.273 35.0815 41.1438C35.0815 39.0147 38.675 37.2871 43.1212 37.2871C47.5675 37.2871 51.1514 39.0147 51.1514 41.1438Z" fill="#A5A5A5"/>
</g>
<g style="mix-blend-mode:multiply" opacity="0.61">
<path d="M43.1116 44.9071C47.446 44.9071 50.9597 43.2222 50.9597 41.1437C50.9597 39.0653 47.446 37.3804 43.1116 37.3804C38.7772 37.3804 35.2635 39.0653 35.2635 41.1437C35.2635 43.2222 38.7772 44.9071 43.1116 44.9071Z" fill="#A2A2A2"/>
</g>
<g style="mix-blend-mode:multiply" opacity="0.63">
<path d="M43.1116 44.8135C47.3401 44.8135 50.768 43.1705 50.768 41.1436C50.768 39.1167 47.3401 37.4736 43.1116 37.4736C38.8831 37.4736 35.4552 39.1167 35.4552 41.1436C35.4552 43.1705 38.8831 44.8135 43.1116 44.8135Z" fill="#9F9F9F"/>
</g>
<g style="mix-blend-mode:multiply" opacity="0.65">
<path d="M50.5764 41.144C50.5764 43.1237 47.2321 44.7579 43.1212 44.7579C39.0103 44.7579 35.6469 43.1517 35.6469 41.172C35.6469 39.1923 38.9816 37.5674 43.1212 37.5674C47.2608 37.5674 50.5764 39.1549 50.5764 41.144Z" fill="#9C9C9C"/>
</g>
<g style="mix-blend-mode:multiply" opacity="0.67">
<path d="M43.1117 44.6364C47.1338 44.6364 50.3943 43.0728 50.3943 41.1439C50.3943 39.215 47.1338 37.6514 43.1117 37.6514C39.0896 37.6514 35.829 39.215 35.829 41.1439C35.829 43.0728 39.0896 44.6364 43.1117 44.6364Z" fill="#999999"/>
</g>
<g style="mix-blend-mode:multiply" opacity="0.69">
<path d="M50.2026 41.1438C50.2026 43.0114 47.0213 44.5523 43.1116 44.5523C39.202 44.5523 36.011 43.0301 36.011 41.1438C36.011 39.2574 39.1924 37.7446 43.1212 37.7446C47.05 37.7446 50.2026 39.2668 50.2026 41.1438Z" fill="#969696"/>
</g>
<g style="mix-blend-mode:multiply" opacity="0.71">
<path d="M50.011 41.1437C50.011 43.0113 46.9159 44.4588 43.102 44.4588C39.2882 44.4588 36.2026 42.974 36.2026 41.1437C36.2026 39.3133 39.2882 37.8379 43.1212 37.8379C46.9542 37.8379 50.011 39.3133 50.011 41.1437Z" fill="#939393"/>
</g>
<g style="mix-blend-mode:multiply" opacity="0.73">
<path d="M49.8289 41.1436C49.8289 42.9272 46.82 44.3653 43.1212 44.3653C39.4224 44.3653 36.4135 42.8899 36.4135 41.1436C36.4135 39.3973 39.4224 37.9219 43.1212 37.9219C46.82 37.9219 49.8289 39.3693 49.8289 41.1436Z" fill="#909090"/>
</g>
<g style="mix-blend-mode:multiply" opacity="0.75">
<path d="M43.1021 44.2723C46.7061 44.2723 49.6278 42.8717 49.6278 41.144C49.6278 39.4162 46.7061 38.0156 43.1021 38.0156C39.4981 38.0156 36.5764 39.4162 36.5764 41.144C36.5764 42.8717 39.4981 44.2723 43.1021 44.2723Z" fill="#8D8D8D"/>
</g>
<g style="mix-blend-mode:multiply" opacity="0.76">
<path d="M49.4456 41.1438C49.4456 42.8247 46.5709 44.1881 43.102 44.1881C39.6332 44.1881 36.7584 42.8247 36.7584 41.1438C36.7584 39.4629 39.6332 38.1089 43.102 38.1089C46.5709 38.1089 49.4456 39.4723 49.4456 41.1438Z" fill="#8A8A8A"/>
</g>
<g style="mix-blend-mode:multiply" opacity="0.78">
<path d="M49.254 41.1436C49.254 42.7778 46.4942 44.0945 43.102 44.0945C39.7098 44.0945 36.9501 42.7778 36.9501 41.1436C36.9501 39.5094 39.7002 38.2207 43.1212 38.2207C46.5421 38.2207 49.254 39.5187 49.254 41.1436Z" fill="#878787"/>
</g>
<g style="mix-blend-mode:multiply" opacity="0.8">
<path d="M49.0624 41.1436C49.0624 42.7218 46.3889 44.0105 43.1021 44.0105C39.8153 44.0105 37.1322 42.7218 37.1322 41.1436C37.1322 39.5655 39.8057 38.2861 43.1021 38.2861C46.3985 38.2861 49.0624 39.5655 49.0624 41.1436Z" fill="#848484"/>
</g>
<g style="mix-blend-mode:multiply" opacity="0.82">
<path d="M48.8707 41.1438C48.8707 42.6753 46.2834 43.9453 43.1212 43.9453C39.959 43.9453 37.3717 42.7033 37.3717 41.1438C37.3717 39.5843 39.959 38.3423 43.1212 38.3423C46.2834 38.3423 48.8707 39.6216 48.8707 41.1438Z" fill="#818181"/>
</g>
<g style="mix-blend-mode:multiply" opacity="0.84">
<path d="M48.679 41.144C48.679 42.6288 46.178 43.8241 43.1212 43.8241C40.0644 43.8241 37.5442 42.6288 37.5442 41.144C37.5442 39.6592 40.0356 38.4639 43.1212 38.4639C46.2068 38.4639 48.679 39.6685 48.679 41.144Z" fill="#7E7E7E"/>
</g>
<g style="mix-blend-mode:multiply" opacity="0.86">
<path d="M48.4874 41.1438C48.4874 42.5726 46.0726 43.7399 43.0924 43.7399C40.1123 43.7399 37.6975 42.5726 37.6975 41.1438C37.6975 39.7151 40.1123 38.5571 43.0924 38.5571C46.0726 38.5571 48.4874 39.7151 48.4874 41.1438Z" fill="#7B7B7B"/>
</g>
<g style="mix-blend-mode:multiply" opacity="0.88">
<path d="M48.3053 41.1437C48.3053 42.5258 45.9672 43.6464 43.0924 43.6464C40.2177 43.6464 37.8892 42.5258 37.8892 41.1437C37.8892 39.7616 40.2464 38.6504 43.1212 38.6504C45.9959 38.6504 48.3053 39.771 48.3053 41.1437Z" fill="#787878"/>
</g>
<g style="mix-blend-mode:multiply" opacity="0.9">
<path d="M48.1137 41.1436C48.1137 42.479 45.8618 43.5529 43.0925 43.5529C40.3232 43.5529 38.0713 42.479 38.0713 41.1436C38.0713 39.8082 40.3232 38.7437 43.0925 38.7437C45.8618 38.7437 48.1137 39.8176 48.1137 41.1436Z" fill="#757575"/>
</g>
<g style="mix-blend-mode:multiply" opacity="0.92">
<path d="M47.9124 41.1435C47.9124 42.4229 45.7468 43.4594 43.1212 43.4594C40.4956 43.4594 38.33 42.4229 38.33 41.1435C38.33 39.8642 40.486 38.8276 43.1212 38.8276C45.7564 38.8276 47.9124 39.8642 47.9124 41.1435Z" fill="#727272"/>
</g>
<g style="mix-blend-mode:multiply" opacity="0.94">
<path d="M43.0925 43.3664C45.6592 43.3664 47.74 42.3714 47.74 41.1439C47.74 39.9164 45.6592 38.9214 43.0925 38.9214C40.5257 38.9214 38.4449 39.9164 38.4449 41.1439C38.4449 42.3714 40.5257 43.3664 43.0925 43.3664Z" fill="#6F6F6F"/>
</g>
<g style="mix-blend-mode:multiply" opacity="0.96">
<path d="M47.5387 41.1438C47.5387 42.3298 45.5456 43.2823 43.0829 43.2823C40.6202 43.2823 38.6366 42.3484 38.6366 41.1438C38.6366 39.9391 40.6298 39.0146 43.1212 39.0146C45.6126 39.0146 47.5387 39.9672 47.5387 41.1438Z" fill="#6C6C6C"/>
</g>
<g style="mix-blend-mode:multiply" opacity="0.98">
<path d="M47.3567 41.1437C47.3567 42.2737 45.4402 43.1888 43.0829 43.1888C40.7256 43.1888 38.8187 42.255 38.8187 41.1437C38.8187 40.0325 40.7352 39.0986 43.0829 39.0986C45.4306 39.0986 47.3567 40.0138 47.3567 41.1437Z" fill="#696969"/>
</g>
<g style="mix-blend-mode:multiply">
<path d="M47.1651 41.1438C47.1651 42.2271 45.3348 43.1049 43.0829 43.1049C40.831 43.1049 39.0104 42.2271 39.0104 41.1438C39.0104 40.0606 40.831 39.1548 43.1213 39.1548C45.4115 39.1548 47.1651 40.0886 47.1651 41.1438Z" fill="#666666"/>
</g>
</g>
<path d="M37.0746 38.2957L46.2642 38.0342L37.0746 38.2957Z" fill="#21BFA2"/>
<path d="M37.0746 38.2954C36.9945 38.2961 36.9157 38.3153 36.8446 38.3514C36.9157 38.3153 36.9945 38.2961 37.0746 38.2954Z" fill="#21BFA2"/>
<path d="M36.7488 38.4356C36.7735 38.4007 36.8063 38.3719 36.8446 38.3516C36.8063 38.3719 36.7735 38.4007 36.7488 38.4356Z" fill="#21BFA2"/>
<path d="M36.7466 38.4355C36.7355 38.4717 36.7355 38.5115 36.7466 38.5476C36.7355 38.5115 36.7355 38.4717 36.7466 38.4355Z" fill="#21BFA2"/>
<path d="M48.2957 38.3141C48.2957 38.3141 48.2957 38.3141 48.2957 38.3795C48.2782 38.4651 48.2458 38.5472 48.1999 38.6223C48.1197 38.7434 48.0193 38.8507 47.9028 38.9398L46.9446 39.6681L47.9028 39.8642L48.2286 39.9296C48.2765 39.8334 48.3027 39.7283 48.3053 39.6214V38.2207C48.3053 38.2207 48.2957 38.2954 48.2957 38.3141Z" fill="#198F7A"/>
<path d="M44.4818 39.9579L44.5393 39.9019L44.4818 39.9579Z" fill="#A6E5DA"/>
<path d="M44.4723 39.9949L44.4799 39.9575L44.4723 39.9949Z" fill="#7AD9C7"/>
<path d="M44.4818 39.9575L44.5393 39.9015L46.5804 38.3793L46.6475 38.3233C46.6568 38.3043 46.6617 38.2836 46.6617 38.2626C46.6617 38.2416 46.6568 38.2208 46.6475 38.2019C46.6256 38.1567 46.5884 38.1204 46.5421 38.0992C46.4567 38.0545 46.361 38.032 46.2642 38.0338L37.0746 38.2953C36.9945 38.296 36.9157 38.3152 36.8446 38.3513C36.8063 38.3716 36.7735 38.4004 36.7488 38.4353L44.4818 39.9575Z" fill="#A6E5DA"/>
<path d="M50.9692 40.5273C50.8652 40.4687 50.7518 40.4276 50.6338 40.4059L48.219 39.9296L47.9124 39.8643L46.9541 39.6682L47.9124 38.9398C48.0288 38.8508 48.1292 38.7435 48.2094 38.6223C48.2554 38.5473 48.2878 38.4651 48.3053 38.3795C48.3053 38.3795 48.3053 38.3795 48.3053 38.3141C48.3127 38.1659 48.2793 38.0185 48.2085 37.8871C48.1378 37.7557 48.0322 37.6452 47.9028 37.567L47.7207 37.4457C47.2482 37.2061 46.7198 37.0903 46.1875 37.1095L36.9979 37.3709C36.6594 37.3522 36.3211 37.4108 36.01 37.5422C35.6988 37.6735 35.4235 37.8739 35.206 38.1274C35.1464 38.2179 35.1092 38.3208 35.0976 38.4278C35.0859 38.5348 35.1001 38.643 35.1389 38.7437V38.7997C35.1778 38.8789 35.2296 38.9514 35.2922 39.0145L35.3497 39.0799C35.442 39.1694 35.5449 39.2478 35.6564 39.3133H35.7522L42.6803 42.7405C43.2542 43.0011 43.8948 43.0888 44.5202 42.9926C44.7916 42.9743 45.0558 42.8998 45.2954 42.7742C45.535 42.6486 45.7444 42.4748 45.9096 42.2642C45.9793 42.1578 46.0189 42.0354 46.0246 41.9094V40.9755L49.8289 41.7693C50.0298 41.8235 50.242 41.8234 50.4428 41.7691C50.6437 41.7148 50.8256 41.6084 50.9692 41.4611L51.2183 41.0502C51.2309 41.0012 51.2309 40.9499 51.2183 40.9008C51.2138 40.8228 51.1885 40.7473 51.1448 40.6818C51.1011 40.6162 51.0405 40.563 50.9692 40.5273ZM44.5393 39.9016L44.4818 39.9577V40.023L44.4244 41.8907V41.9561C44.4022 41.9931 44.3687 42.0225 44.3285 42.0401C44.2549 42.0784 44.1724 42.0977 44.089 42.0961C44.0002 42.0996 43.9118 42.0837 43.8302 42.0494L36.9021 38.6129C36.8606 38.5885 36.8273 38.5528 36.8063 38.5102C36.7923 38.4741 36.7923 38.4343 36.8063 38.3982C36.831 38.3632 36.8638 38.3344 36.9021 38.3141C36.9732 38.278 37.052 38.2588 37.1321 38.2581L46.3217 37.9966C46.4185 37.9948 46.5142 38.0174 46.5996 38.062C46.6459 38.0833 46.6832 38.1196 46.705 38.1647C46.7143 38.1836 46.7192 38.2044 46.7192 38.2254C46.7192 38.2464 46.7143 38.2672 46.705 38.2861L46.6379 38.3421L44.5393 39.9016Z" fill="#21BFA2"/>
<path d="M36.7488 38.4355C36.7348 38.4717 36.7348 38.5115 36.7488 38.5476C36.7698 38.5902 36.8031 38.6259 36.8446 38.6503L43.7727 42.0868C43.8543 42.121 43.9427 42.137 44.0314 42.1335C44.1149 42.1351 44.1974 42.1158 44.271 42.0775C44.3112 42.0599 44.3447 42.0305 44.3668 41.9934V41.9281L44.4243 40.0604V39.995L36.7488 38.4355Z" fill="#7AD9C7"/>
<path d="M51.2374 40.9006C51.25 40.9497 51.25 41.001 51.2374 41.05L50.9883 41.4609C50.843 41.6115 50.6578 41.72 50.4532 41.7744C50.2485 41.8288 50.0324 41.8269 49.8288 41.7691L46.0725 41.022V41.9558C46.0668 42.0819 46.0271 42.2043 45.9575 42.3107C45.7922 42.5213 45.5828 42.6951 45.3432 42.8207C45.1037 42.9463 44.8394 43.0207 44.568 43.0391C43.9427 43.1353 43.3021 43.0475 42.7282 42.787L35.8001 39.3598H35.7042C35.5928 39.2943 35.4898 39.2159 35.3976 39.1263L35.3401 39.061C35.2774 38.9979 35.2256 38.9254 35.1868 38.8462V38.7902C35.1723 38.7098 35.1723 38.6277 35.1868 38.5474V39.9201C35.1986 40.0948 35.2606 40.2627 35.3656 40.4047C35.4707 40.5467 35.6146 40.6571 35.7809 40.7232L35.8767 40.7792L42.7953 44.2064C43.375 44.4587 44.0171 44.543 44.6447 44.4492C44.9161 44.4308 45.1803 44.3564 45.4199 44.2308C45.6595 44.1052 45.8689 43.9313 46.0342 43.7208C46.0994 43.6158 46.1387 43.4976 46.1491 43.3753V42.4414L49.8671 43.1792C50.068 43.2344 50.2805 43.2349 50.4815 43.1805C50.6826 43.1262 50.8645 43.0191 51.0075 42.871L51.2662 42.4601C51.279 42.4048 51.279 42.3474 51.2662 42.292V40.8913L51.2374 40.9006Z" fill="#198F7A"/>
<path d="M36.9787 1.68947V0.41012C36.9767 0.162829 36.9084 -0.0796594 36.7806 -0.293323C36.6529 -0.506986 36.47 -0.684409 36.2502 -0.808017C36.0304 -0.931625 35.7813 -0.997128 35.5276 -0.998037C35.2738 -0.998946 35.0242 -0.93523 34.8035 -0.813199L10.119 13.0822C9.52982 13.4137 9.04176 13.892 8.70496 14.468C8.36816 15.044 8.19474 15.697 8.20252 16.36V17.9008V45.9157L8.78705 46.3173L37.0266 29.6764L36.9787 1.68947Z" fill="#198F7A"/>
<path d="M8.80633 46.2799L37.6017 30.0779V2.06299L8.75842 18.293L8.80633 46.2799Z" fill="#D3F2EC"/>
<path d="M37.5634 2.09092V0.811566C37.5653 0.561792 37.499 0.316013 37.3715 0.099369C37.2439 -0.117275 37.0595 -0.297008 36.8373 -0.421445C36.6151 -0.545882 36.3629 -0.610557 36.1066 -0.608854C35.8503 -0.607151 35.599 -0.539132 35.3786 -0.411753L10.6941 13.4837C10.1063 13.8143 9.61921 14.2912 9.28249 14.8654C8.94577 15.4396 8.77154 16.0907 8.77762 16.7521V18.2929L37.5634 2.09092Z" fill="#21BFA2"/>
<path d="M36.2218 7.94622L11.2402 22.0844V21.1973L36.2218 7.05908V7.94622Z" fill="#21BFA2"/>
<path d="M36.2218 6.21868L11.2402 20.3569V19.4697L36.2218 5.33154V6.21868Z" fill="#21BFA2"/>
<path d="M32.9158 16.584L15.4182 26.4266V35.7649L32.9446 25.9036L32.9158 16.584ZM19.6058 27.8927L19.4812 28.1915C19.2427 28.742 19.0504 29.3103 18.9062 29.8911C18.8069 30.3423 18.7555 30.8023 18.7529 31.2638V31.4319C18.7361 31.6694 18.6634 31.8999 18.5404 32.1055C18.4174 32.3112 18.2475 32.4865 18.0438 32.6179C17.6413 32.842 17.3155 32.6646 17.3155 32.2163V31.9548C17.3143 31.5738 17.3626 31.1941 17.4593 30.8249C17.57 30.4211 17.7241 30.0298 17.9192 29.6576C18.0246 29.4522 18.2259 29.116 18.5229 28.6584C18.82 28.2008 19.05 27.818 19.1937 27.5378L18.8871 27.8367C18.7902 27.9152 18.6877 27.987 18.5804 28.0514C18.4095 28.1456 18.2299 28.2238 18.0438 28.2849C17.9111 28.3216 17.7826 28.3716 17.6605 28.4343C17.4762 28.5353 17.3313 28.6929 17.2485 28.8825C17.1642 29.0936 17.1251 29.3192 17.1335 29.5456V29.8164L16.3477 30.2553V28.0328L17.1431 27.5845V28.0701C17.2312 27.8419 17.3539 27.6278 17.5072 27.4351C17.6522 27.2571 17.8312 27.1081 18.0342 26.9962C18.2731 26.8624 18.537 26.7767 18.8104 26.7441C18.993 26.7323 19.1734 26.6977 19.347 26.6413C19.4154 26.6009 19.4742 26.5468 19.5195 26.4826C19.5577 26.4171 19.5775 26.3431 19.577 26.2678V26.2118L20.1807 25.8756V26.025C20.0859 26.6721 19.8921 27.3016 19.6058 27.8927ZM20.9569 31.3572V24.6243L21.4743 24.3254V31.0584L20.9569 31.3572ZM25.5852 24.5309C25.5373 24.6523 25.4894 24.755 25.4606 24.8204C25.2277 25.376 25.0355 25.9471 24.8857 26.5293C24.7806 26.9953 24.7324 27.4717 24.742 27.9487V28.1168C24.7266 28.3619 24.6527 28.6 24.5263 28.8124C24.3999 29.0248 24.2244 29.2055 24.0137 29.3401C23.6112 29.5642 23.2854 29.3401 23.2854 28.9292V28.6771C23.281 28.2964 23.3261 27.9168 23.4196 27.5472C23.5303 27.1434 23.6844 26.7521 23.8795 26.3799C23.9818 26.1744 24.183 25.8383 24.4832 25.3713C24.7899 24.9044 25.0103 24.5309 25.154 24.2601C25.0617 24.366 24.959 24.463 24.8474 24.5496C24.7522 24.6302 24.6495 24.7021 24.5407 24.7643C24.3732 24.8585 24.1967 24.9367 24.0137 24.9978L23.6304 25.1472C23.4583 25.2362 23.3205 25.377 23.2375 25.5488C23.1524 25.7596 23.1133 25.9854 23.1225 26.2118V26.4733L22.3272 26.9215V24.6616L23.1225 24.2227V24.699C23.2128 24.4718 23.3354 24.258 23.4867 24.064C23.6342 23.8884 23.8127 23.7398 24.0137 23.6251C24.2531 23.4943 24.5171 23.4118 24.7899 23.3823C24.9733 23.3702 25.1541 23.3325 25.3265 23.2702C25.3991 23.2354 25.4592 23.1801 25.499 23.1115C25.5368 23.0493 25.5566 22.9783 25.5565 22.906V22.85L26.1698 22.5138V22.6539C26.0746 23.305 25.8775 23.9381 25.5852 24.5309ZM26.9364 27.9487V21.2158L27.4634 20.9263V27.6592L26.9364 27.9487ZM31.6222 21.1504C31.5743 21.2812 31.5264 21.3839 31.4976 21.4492C31.2635 22.0013 31.0713 22.5693 30.9227 23.1488C30.8218 23.5996 30.7736 24.0602 30.7789 24.5216V24.699C30.7651 24.9431 30.6918 25.1806 30.5652 25.3917C30.4386 25.6027 30.2622 25.7814 30.0507 25.913C29.6578 26.1371 29.332 25.9597 29.332 25.5114V25.2593C29.3276 24.8755 29.3727 24.4928 29.4661 24.12C29.5768 23.7162 29.731 23.3249 29.9261 22.9527C30.0315 22.7566 30.2327 22.4111 30.5394 21.9442C30.846 21.4773 31.0568 21.1131 31.2006 20.8329C31.1057 20.9394 31.0032 21.0393 30.8939 21.1317C30.7987 21.2124 30.6961 21.2843 30.5873 21.3465C30.4197 21.4407 30.2432 21.5189 30.0602 21.58C29.9269 21.6148 29.7982 21.665 29.6769 21.7294C29.5073 21.8214 29.3703 21.9614 29.2841 22.1309C29.1986 22.3384 29.1595 22.5613 29.1691 22.7846V23.0554L28.3737 23.4943V21.2905L29.1691 20.8423V21.3278C29.2572 21.0996 29.3799 20.8856 29.5332 20.6928C29.6805 20.5145 29.8589 20.3627 30.0602 20.2446C30.3016 20.1181 30.5646 20.0358 30.8364 20.0018C31.0192 19.9912 31.1997 19.9566 31.373 19.8991C31.4435 19.8614 31.5029 19.8068 31.5455 19.7403C31.5878 19.6766 31.6079 19.6013 31.603 19.5256V19.4789L32.2163 19.1333V19.2734C32.1195 19.9254 31.9191 20.5586 31.6222 21.1504Z" fill="#F9F132"/>
<path d="M32.9542 27.6781L34.5449 26.7442V24.97V15.6316V13.9414L32.9542 14.8752L15.4087 24.6525L13.818 25.5863V25.9318V38.4638L15.4087 37.53L32.9542 27.6781ZM15.4183 26.4267L32.9159 16.5841V25.9225L15.447 35.7464L15.4183 26.4267Z" fill="#E8630B"/>
<path d="M20.1903 25.876L19.5866 26.2122V26.2682C19.5871 26.3435 19.5672 26.4175 19.5291 26.483C19.4838 26.5472 19.425 26.6013 19.3566 26.6417C19.183 26.6981 19.0026 26.7326 18.82 26.7444C18.5466 26.7771 18.2826 26.8628 18.0438 26.9966C17.8408 27.1084 17.6618 27.2575 17.5168 27.4355C17.3635 27.6282 17.2407 27.8422 17.1526 28.0705V27.5849L16.3573 28.0331V30.237L17.1526 29.8167V29.5459C17.1381 29.3209 17.1707 29.0953 17.2485 28.8829C17.3337 28.7181 17.467 28.5817 17.6318 28.4907C17.7539 28.428 17.8823 28.378 18.0151 28.3413C18.2011 28.2802 18.3808 28.202 18.5517 28.1078C18.659 28.0434 18.7614 27.9716 18.8583 27.8931L19.165 27.5755C19.0212 27.8557 18.7912 28.2199 18.4942 28.6961C18.1971 29.1724 17.9959 29.4899 17.8905 29.6953C17.6954 30.0676 17.5412 30.4588 17.4305 30.8626C17.3338 31.2318 17.2855 31.6115 17.2868 31.9926V32.254C17.2868 32.7023 17.6126 32.8797 18.0151 32.6556C18.2255 32.5215 18.4004 32.3408 18.5254 32.1281C18.6503 31.9155 18.7217 31.677 18.7338 31.4323V31.2642C18.7363 30.8027 18.7877 30.3427 18.8871 29.8914C19.0313 29.3107 19.2236 28.7423 19.462 28.1919L19.5866 27.8931C19.8796 27.303 20.0799 26.6735 20.1807 26.0254V25.876H20.1903Z" fill="#F2460B"/>
<path d="M20.9377 24.6245L20.9569 31.3574L21.4744 31.0586L21.4552 24.3257L20.9377 24.6245Z" fill="white"/>
<path d="M26.1794 22.5142L25.5661 22.8503V22.9064C25.5662 22.9786 25.5464 23.0496 25.5086 23.1118C25.4688 23.1804 25.4087 23.2357 25.3361 23.2706C25.1637 23.3328 24.983 23.3706 24.7995 23.3826C24.5267 23.4121 24.2628 23.4947 24.0233 23.6254C23.8223 23.7401 23.6439 23.8887 23.4963 24.0643C23.345 24.2584 23.2224 24.4721 23.1321 24.6993V24.2137L22.3368 24.6526V26.8658L23.1321 26.4176V26.1561C23.1229 25.9297 23.1621 25.7039 23.2471 25.4931C23.3301 25.3214 23.4679 25.1805 23.64 25.0915L24.0233 24.9421C24.2063 24.881 24.3828 24.8029 24.5503 24.7087C24.6592 24.6465 24.7618 24.5746 24.857 24.4939C24.9686 24.4073 25.0713 24.3103 25.1636 24.2044C25.0199 24.4752 24.7995 24.8487 24.4928 25.3157C24.1862 25.7826 23.9946 26.1187 23.8892 26.3242C23.694 26.6964 23.5399 27.0877 23.4292 27.4915C23.3357 27.8611 23.2906 28.2408 23.295 28.6214V28.8829C23.295 29.3311 23.6208 29.5179 24.0233 29.2938C24.234 29.1591 24.4095 28.9784 24.5359 28.7661C24.6624 28.5537 24.7362 28.3155 24.7516 28.0705V27.9491C24.7483 27.4713 24.803 26.9949 24.9145 26.5296C25.0643 25.9474 25.2565 25.3764 25.4894 24.8207C25.4894 24.7554 25.5661 24.6526 25.614 24.5312C25.912 23.9424 26.1156 23.3125 26.2177 22.6636V22.5235L26.1794 22.5142Z" fill="#F2460B"/>
<path d="M26.9172 21.2534L26.9364 27.9863L27.4634 27.6968L27.4443 20.9639L26.9172 21.2534Z" fill="white"/>
<path d="M32.1779 19.1338L31.5646 19.4793V19.5447C31.5695 19.6204 31.5494 19.6957 31.5071 19.7595C31.4645 19.8259 31.4051 19.8806 31.3346 19.9182C31.1613 19.9758 30.9808 20.0103 30.798 20.0209C30.5262 20.055 30.2632 20.1373 30.0218 20.2637C29.8205 20.3819 29.6421 20.5336 29.4948 20.712C29.3415 20.9047 29.2188 21.1187 29.1307 21.347V20.8614L28.3353 21.3096V23.5135L29.1307 23.0746V22.8037C29.1211 22.5804 29.1603 22.3576 29.2457 22.1501C29.3319 21.9805 29.4689 21.8405 29.6385 21.7485C29.7598 21.6841 29.8885 21.6339 30.0218 21.5991C30.2048 21.538 30.3813 21.4598 30.5489 21.3656C30.6577 21.3034 30.7603 21.2315 30.8555 21.1509C30.9648 21.0584 31.0673 20.9585 31.1622 20.852C31.0184 21.1322 30.798 21.4964 30.501 21.9633C30.2039 22.4302 29.9931 22.7757 29.8877 22.9718C29.6926 23.344 29.5384 23.7353 29.4277 24.1391C29.3343 24.5119 29.2892 24.8947 29.2936 25.2784V25.5305C29.2936 25.9788 29.6194 26.1562 30.0123 25.9321C30.2238 25.8006 30.4002 25.6219 30.5268 25.4108C30.6534 25.1997 30.7267 24.9622 30.7405 24.7181V24.5407C30.7352 24.0793 30.7834 23.6188 30.8843 23.1679C31.0329 22.5884 31.2251 22.0204 31.4592 21.4684C31.4592 21.403 31.5359 21.3003 31.5838 21.1695C31.883 20.5812 32.0867 19.9511 32.1875 19.3019V19.1618L32.1779 19.1338Z" fill="#F2460B"/>
<path d="M34.5448 28.5654L13.8658 40.201V41.9846L34.5544 30.3397L34.5448 28.5654Z" fill="#198F7A"/>
<path d="M34.4969 10.3462L13.8083 21.9911L13.8179 23.7654L34.4969 12.1298V10.3462Z" fill="#198F7A"/>
</g>
<defs>
<linearGradient id="paint0_linear_104_1580" x1="3.27713" y1="49.0908" x2="69.9999" y2="49.0908" gradientUnits="userSpaceOnUse">
<stop stop-color="#4C4C4C"/>
<stop offset="0.05" stop-color="#747474"/>
<stop offset="0.11" stop-color="#A5A5A5"/>
<stop offset="0.18" stop-color="#CCCCCC"/>
<stop offset="0.23" stop-color="#E8E8E8"/>
<stop offset="0.28" stop-color="#F9F9F9"/>
<stop offset="0.32" stop-color="white"/>
<stop offset="0.36" stop-color="#F4F4F4"/>
<stop offset="0.44" stop-color="#D7D7D7"/>
<stop offset="0.53" stop-color="#A8A8A8"/>
<stop offset="0.64" stop-color="#676767"/>
<stop offset="0.69" stop-color="#4C4C4C"/>
<stop offset="0.73" stop-color="#616161"/>
<stop offset="0.82" stop-color="#979797"/>
<stop offset="0.94" stop-color="#E8E8E8"/>
<stop offset="0.97" stop-color="#E6E6E6"/>
<stop offset="0.98" stop-color="#D4D4D4"/>
<stop offset="0.99" stop-color="#919191"/>
<stop offset="1" stop-color="#4C4C4C"/>
</linearGradient>
<clipPath id="clip0_104_1580">
<rect width="70" height="70" fill="white"/>
</clipPath>
</defs>
</svg>
