<svg width="36" height="37" viewBox="0 0 36 37" fill="none" xmlns="http://www.w3.org/2000/svg">
<g clip-path="url(#clip0_104_4796)">
<circle cx="18" cy="18.3604" r="18" fill="#1DA1F3"/>
<path d="M25.6455 14.9886C25.6455 15.1592 25.6455 15.3298 25.6455 15.4761C25.6455 20.5217 21.7943 26.3473 14.7743 26.3473C12.6049 26.3473 10.6062 25.7136 8.8999 24.6411C9.1924 24.6654 9.50928 24.6898 9.80178 24.6898C11.5812 24.6898 13.2387 24.0804 14.5549 23.0567C12.873 23.0323 11.4593 21.9111 10.9962 20.3998C11.2399 20.4486 11.4593 20.4729 11.7274 20.4729C12.0687 20.4729 12.4099 20.4242 12.7268 20.3267C10.9718 19.9854 9.65553 18.4498 9.65553 16.5973C9.65553 16.5729 9.65553 16.5729 9.65553 16.5486C10.1674 16.8411 10.7524 17.0117 11.3862 17.0361C10.3624 16.3536 9.6799 15.1836 9.6799 13.8429C9.6799 13.1361 9.8749 12.4779 10.1918 11.9173C12.0687 14.2329 14.8962 15.7442 18.0649 15.9148C17.9918 15.6467 17.9674 15.3298 17.9674 15.0373C17.9674 12.9167 19.6737 11.2104 21.7943 11.2104C22.8911 11.2104 23.8905 11.6736 24.573 12.4048C25.4505 12.2342 26.2549 11.9173 27.0105 11.4786C26.718 12.3804 26.1086 13.1117 25.3286 13.5992C26.1086 13.5017 26.8399 13.3067 27.5224 12.9898C27.0349 13.7698 26.4011 14.4523 25.6455 14.9886Z" fill="#FAFBFC"/>
</g>
<defs>
<clipPath id="clip0_104_4796">
<rect width="36" height="36" fill="white" transform="translate(0 0.360352)"/>
</clipPath>
</defs>
</svg>
