<svg width="36" height="37" viewBox="0 0 36 37" fill="none" xmlns="http://www.w3.org/2000/svg">
<g clip-path="url(#clip0_104_4797)">
<ellipse cx="18" cy="18.3604" rx="18" ry="17.9991" fill="#1877F2"/>
<path d="M18 6.65967C11.5748 6.65967 6.30005 11.5409 6.30005 17.5871C6.30005 20.8083 7.8308 23.6703 10.2 25.6638V30.0585L14.5271 27.95C15.6269 28.2731 16.7774 28.5144 18 28.5144C24.4253 28.5144 29.7001 23.6332 29.7001 17.5871C29.7001 11.5409 24.4253 6.65967 18 6.65967ZM18 8.56008C23.4201 8.56008 27.7501 12.6137 27.7501 17.5871C27.7501 22.5604 23.4201 26.614 18 26.614C16.8349 26.614 15.7224 26.3983 14.6792 26.0496L14.2833 25.9308L12.15 26.9704V24.8324L11.7844 24.535C9.6209 22.8731 8.25005 20.3826 8.25005 17.5871C8.25005 12.6137 12.58 8.56008 18 8.56008ZM16.9032 14.5882L11.0229 20.6458L16.2938 17.7951L19.0969 20.7351L24.9167 14.5872L19.7668 17.4094L16.9032 14.5882Z" fill="white"/>
</g>
<defs>
<clipPath id="clip0_104_4797">
<rect width="36" height="36" fill="white" transform="translate(0 0.360352)"/>
</clipPath>
</defs>
</svg>
