<svg width="142" height="81" viewBox="0 0 142 81" fill="none" xmlns="http://www.w3.org/2000/svg">
<g clip-path="url(#clip0_104_3858)">
<path d="M140.765 40.3013C140.765 50.8296 133.234 60.5604 120.622 67.7158C108.041 74.8543 90.5923 79.3013 71.2649 79.3013C51.9375 79.3013 34.489 74.8543 21.9073 67.7158C9.29602 60.5604 1.76489 50.8296 1.76489 40.3013C1.76489 29.7729 9.29602 20.0421 21.9073 12.8868C34.489 5.74821 51.9375 1.30127 71.2649 1.30127C90.5923 1.30127 108.041 5.74821 120.622 12.8868C133.234 20.0421 140.765 29.7729 140.765 40.3013Z" stroke="#E0E0E0" stroke-width="2"/>
<path d="M40.3669 53.2656C44.4037 55.9791 48.7338 57.6461 53.4529 57.9083V57.1079C48.9222 56.5617 44.5747 55.2118 40.3669 53.2656Z" fill="#FDB927"/>
<path d="M56.3234 24.395L53.6295 47.6956L61.1583 47.2795L62.1252 35.3517L65.7861 47.0022L69.5968 46.6876L72.624 36.3921L73.8673 46.378L79.8764 45.9249L76.8374 26.4755L70.4138 26.1287L67.5818 36.8775L64.4737 25.4351L56.3234 24.395Z" fill="#808080"/>
<path d="M80.1528 26.7183L80.3052 45.9452L90.0786 45.1656L90.0643 41.1771H85.8165L85.7819 39.1314L89.6155 39.0966V34.6237L85.8165 34.5892L85.7475 32.6821L90.0299 32.8208L89.9606 27.7931L80.1528 26.7183Z" fill="#808080"/>
<path d="M99.7485 34.4737L103.168 32.3933C102.37 31.1129 101.857 29.7639 99.7138 28.718C98.44 28.0242 96.1865 27.7885 94.6373 28.7525C92.3898 29.9556 90.9694 32.5742 90.9764 34.9939C90.8234 37.4226 90.9173 39.88 92.1507 41.9286C94.2001 45.3468 97.1367 45.4499 99.973 44.4251C101.305 43.8575 103.222 41.9879 103.271 39.3282L103.478 35.5834L97.6073 35.4445L97.5727 39.0159L99.4031 39.0507C99.2989 39.8999 99.0165 40.4862 97.4 40.5762C96.776 40.5118 95.2324 40.2829 95.2934 38.2533L95.4315 34.8378C95.4664 34.087 96.5004 32.9098 97.8144 32.9482C98.589 32.9703 99.2919 33.3354 99.7485 34.4737Z" fill="#808080"/>
<path d="M106.819 29.1479L103.258 44.1488L106.745 43.9193L107.127 42.0514H109.572L109.843 43.6749L113.004 43.4346L110.54 29.3612L106.819 29.1479ZM108.605 34.1109L109.338 38.7535L107.712 38.7214L108.605 34.1109Z" fill="#808080"/>
<path d="M57.4954 23.6113L54.8018 46.9119L62.3303 46.4958L63.2975 34.568L66.9581 46.2183L70.7688 45.9039L73.796 35.6084L75.0393 45.5943L81.0484 45.141L78.0094 25.6915L71.5858 25.345L68.7538 36.0938L65.6457 24.6514L57.4954 23.6113Z" fill="white"/>
<path d="M81.325 25.9351L81.4773 45.162L91.2509 44.3823L91.2366 40.3939H86.9887L86.9543 38.3482L90.7876 38.3134V33.8405L86.9887 33.8057L86.9196 31.8987L91.202 32.0375L91.133 27.0099L81.325 25.9351Z" fill="white"/>
<path d="M100.921 33.6901L104.34 31.6097C103.542 30.3293 103.029 28.9801 100.886 27.9344C99.6121 27.2403 97.3585 27.0049 95.8093 27.9689C93.5618 29.172 92.1414 31.7906 92.1487 34.2103C91.9956 36.639 92.0894 39.0963 93.323 41.1449C95.3723 44.5632 98.3087 44.6663 101.145 43.6415C102.477 43.0739 104.394 41.2043 104.443 38.5443L104.65 34.7998L98.7793 34.6609L98.745 38.2323L100.575 38.2671C100.471 39.116 100.189 39.7026 98.5723 39.7926C97.9483 39.7281 96.4044 39.4993 96.4655 37.4694L96.6038 34.0542C96.6384 33.3034 97.6724 32.1262 98.9867 32.1644C99.7611 32.1867 100.464 32.5518 100.921 33.6901Z" fill="white"/>
<path d="M107.991 28.3638L104.43 43.3649L107.917 43.1353L108.3 41.2674H110.744L111.015 42.8909L114.176 42.6504L111.712 28.5773L107.991 28.3638ZM109.777 33.3267L110.511 37.9696L108.884 37.9375L109.777 33.3267Z" fill="white"/>
<path d="M58.0817 23.2188L55.3878 46.5195L62.9166 46.1034L63.8835 34.1757L67.5444 45.826L71.3551 45.5115L74.3823 35.216L75.6256 45.202L81.6347 44.7487L78.5957 25.2992L72.1721 24.9527L69.3401 35.7014L66.232 24.2591L58.0817 23.2188Z" fill="#EE1D25"/>
<path d="M81.911 25.541L82.0634 44.7682L91.8367 43.9885L91.8224 40.0001H87.5747L87.5401 37.9542L91.3736 37.9196V33.4467L87.5747 33.4119L87.5057 31.5049L91.7881 31.6437L91.7188 26.6159L81.911 25.541Z" fill="#EE1D25"/>
<path d="M101.507 33.2985L104.926 31.2181C104.128 29.9377 103.616 28.5885 101.472 27.5426C100.198 26.8488 97.9447 26.6134 96.3954 27.5774C94.1479 28.7804 92.7276 31.399 92.7346 33.8187C92.5815 36.2474 92.6755 38.7045 93.9089 40.7534C95.9582 44.1716 98.8949 44.2747 101.731 43.2499C103.063 42.6823 104.98 40.8127 105.029 38.1527L105.237 34.4079L99.3655 34.2693L99.3308 37.8407L101.161 37.8755C101.057 38.7245 100.775 39.311 99.1584 39.401C98.5342 39.3366 96.9906 39.1077 97.0516 37.0779L97.1897 33.6626C97.2245 32.9119 98.2586 31.7346 99.5728 31.7728C100.347 31.7952 101.05 32.1602 101.507 33.2985Z" fill="#EE1D25"/>
<path d="M108.577 27.9707L105.016 42.9718L108.503 42.7422L108.886 40.8743H111.331L111.601 42.4978L114.762 42.2573L112.298 28.1842L108.577 27.9707ZM110.363 32.9336L111.097 37.5765L109.47 37.5444L110.363 32.9336Z" fill="#EE1D25"/>
<path d="M59.6923 33.0905C59.6923 38.6631 55.2546 43.1805 49.7806 43.1805C44.3068 43.1805 39.8691 38.6631 39.8691 33.0905C39.8691 27.5179 44.3068 23.0005 49.7806 23.0005C55.2546 23.0005 59.6923 27.5179 59.6923 33.0905Z" fill="#FDB927"/>
<path d="M59.6923 33.0905C59.6923 38.6631 55.2546 43.1805 49.7806 43.1805C44.3068 43.1805 39.8691 38.6631 39.8691 33.0905C39.8691 27.5179 44.3068 23.0005 49.7806 23.0005C55.2546 23.0005 59.6923 27.5179 59.6923 33.0905Z" fill="url(#paint0_radial_104_3858)"/>
<path d="M60.2785 32.6984C60.2785 38.271 55.8408 42.7884 50.3668 42.7884C44.8927 42.7884 40.4551 38.271 40.4551 32.6984C40.4551 27.1258 44.8927 22.6084 50.3668 22.6084C55.8408 22.6084 60.2785 27.1258 60.2785 32.6984Z" fill="url(#paint1_radial_104_3858)"/>
<path d="M48.669 33.3061L46.139 32.0321L43.5425 34.1626L44.4978 31.1919L40.7919 29.2138L44.8613 29.3412L45.7033 26.646L46.7671 29.3154L49.6758 29.3077L47.6068 30.9027L48.669 33.3061Z" fill="#214489"/>
<path d="M53.2868 28.4147L51.1005 27.5937L49.5535 29.3488L49.6315 26.7623L47.2711 25.1901L49.7521 25.0055L49.9885 23.1143L51.2766 24.9951L53.287 24.954L52.1021 26.3953L53.2868 28.4147Z" fill="#214489"/>
<path d="M57.5503 29.256L56.1258 29.0261L55.6491 30.6334L54.8915 28.7825L53.3083 28.4213L54.736 27.542L54.5451 25.6768L55.7017 26.9841L56.8304 26.1989L56.454 27.88L57.5503 29.256Z" fill="#214489"/>
<path d="M57.4841 35.4061L56.5009 33.6152L55.0057 33.8125L56.0698 32.5236L55.5614 30.7167L56.7124 31.5632L57.6992 30.3872L57.6696 32.1732L59.003 32.9844L57.5466 33.2388L57.4841 35.4061Z" fill="#214489"/>
<path d="M50.2631 40.058L48.4181 38.6524L45.3209 40.9582L46.7236 37.8946L43.8938 35.7998L47.7077 35.8854L48.6485 33.3125L49.5425 35.7959L51.9453 35.862L49.8743 37.3545L50.2631 40.058Z" fill="#214489"/>
<path d="M57.2532 36.5993L55.2685 36.2578L54.9914 33.9053L53.9358 36.0718L51.9293 35.8559L53.2617 37.536L52.2987 39.7551L54.1778 38.6272L55.5076 40.0819L55.4179 37.8371L57.2532 36.5993Z" fill="#214489"/>
<path d="M46.8368 44.7523C53.0881 47.8495 59.2079 44.5461 60.9841 38.8203C57.9569 43.5794 50.6003 45.2868 46.8368 44.7523Z" fill="#FDB927"/>
<path d="M39.6961 28.7115C40.3389 26.6916 42.2761 24.099 44.3936 23.4351C43.69 22.9988 39.9807 20.0383 34.0413 21.0239C28.6823 22.2576 29.2513 28.3829 30.0312 30.86C30.0874 29.3783 29.9297 27.3606 30.8431 26.1843C31.2946 25.6731 34.0362 24.5066 39.4105 28.4746C39.8402 28.7888 38.4848 27.7434 39.6961 28.7115Z" fill="#FDB927"/>
<path d="M38.7426 30.0722C37.1071 28.5343 35.2666 27.352 32.9909 26.457C30.2646 38.2719 40.7309 47.1939 47.402 51.6865C41.8514 50.6695 27.5111 41.0576 27.6675 27.6049C27.6346 26.6871 28.2559 19.9691 35.5555 19.748C40.2526 19.8436 42.2344 20.9054 44.1549 21.8008" stroke="#FDB927" stroke-width="2.95"/>
<path d="M38.5021 30.3374L39.2314 31.0091L39.4341 30.1864L38.9429 29.7715L38.63 30.0054L38.472 30.1713L38.5021 30.3374Z" fill="#FDB927"/>
<path d="M43.9745 22.1119C44.5071 22.4055 45.0293 22.7012 45.5305 23.0015L46.6355 22.76C45.8374 22.3264 44.8566 21.7068 44.2659 21.459L44.0346 21.7338L43.9745 22.1119Z" fill="#FDB927"/>
<path d="M45.2816 51.4281C46.5746 51.9701 49.0795 52.5769 51.0989 52.4594C48.9914 52.0219 48.4696 52.0389 46.8679 50.8965L45.9433 51.0079L45.2816 51.4281Z" fill="#FDB927"/>
<path d="M31.6474 26.8281C30.617 30.3271 31.38 34.3861 33.271 38.9636C31.0855 35.2197 27.928 31.5313 31.6474 26.8281Z" fill="#EE1D25"/>
<path d="M39.2843 24.896C37.0442 28.9667 36.5373 33.1018 38.6228 37.3335C37.4747 33.1876 37.8692 29.0418 39.2843 24.896Z" fill="#EE1D25"/>
<path d="M113.732 46.3478L113.148 47.9896L112.214 47.5907C111.449 47.4083 111.361 48.3166 111.77 48.3881L112.681 48.6226C113.241 48.8035 113.454 49.2332 113.569 49.5138C113.832 50.4433 113.608 50.8292 113.498 51.3428C113.136 52.3246 112.452 52.7472 111.606 52.8907C110.545 53.049 110.009 52.8377 109.364 52.703L110.088 50.7332C110.22 51.2434 110.818 51.2585 110.976 51.2959C111.329 51.3866 111.611 51.2431 111.747 51.0615C111.943 50.7205 111.72 50.4827 111.513 50.4049L110.485 50.1938C109.867 50.0282 109.693 49.2728 109.586 48.822C109.518 48.2225 109.589 47.6897 109.896 47.1756C110.137 46.717 110.42 46.4103 110.847 46.0852C111.238 45.8238 111.934 45.7197 112.471 45.8084C113.337 45.9884 113.384 46.1681 113.732 46.3478Z" fill="#808080"/>
<path d="M53.9532 48.957L52.3313 60.8537L57.521 60.1691L57.6477 54.0233L60.3058 59.7228L63.0065 59.3792L64.8936 53.3458L65.8416 58.9991L69.8011 58.405L67.5926 48.4639L63.0014 48.5317L61.3829 54.6566L59.3146 48.7309L53.9532 48.957Z" fill="#808080"/>
<path d="M70.838 48.2935L74.9419 47.9966L75.0809 57.6581L71.227 58.2133L70.838 48.2935Z" fill="#808080"/>
<path d="M76.5823 47.8779L80.3233 47.6748L80.3618 54.0212L83.2502 53.7299L83.2391 56.5812L76.631 57.5219L76.5823 47.8779Z" fill="#808080"/>
<path d="M90.6661 47.182L93.5112 46.9585L93.5429 55.1833L90.6661 55.6336V47.182Z" fill="#808080"/>
<path d="M101.726 52.1972C100.705 54.2957 98.3494 55.31 96.4635 54.4627C94.5777 53.6157 93.876 51.2279 94.8964 49.1294C95.9169 47.031 98.2731 46.0169 100.159 46.8639C102.045 47.7112 102.746 50.099 101.726 52.1972Z" fill="#808080"/>
<path d="M84.111 47.5581L87.2852 47.3687L87.3179 53.2929L89.7689 53.021L89.7594 55.6824L84.1524 56.5608L84.111 47.5581Z" fill="#808080"/>
<path d="M102.926 46.3655L102.869 53.9473L104.912 53.6708L104.981 49.7069L106.656 53.3712L108.814 53.2328L108.975 46.0659L106.932 46.1812L107.012 50.237L105.118 46.2388L102.926 46.3655Z" fill="#808080"/>
<path d="M114.51 45.6105L113.926 47.252L112.991 46.8534C112.226 46.6711 112.139 47.5793 112.547 47.6508L113.458 47.8853C114.018 48.0662 114.231 48.4959 114.346 48.7763C114.609 49.7058 114.385 50.0919 114.276 50.6056C113.914 51.5871 113.229 52.0097 112.384 52.1534C111.322 52.3115 110.787 52.1004 110.142 51.9657L110.866 49.9959C110.998 50.5061 111.595 50.5209 111.753 50.5586C112.107 50.6493 112.389 50.5058 112.524 50.3242C112.72 49.983 112.498 49.7454 112.29 49.6676L111.263 49.4565C110.644 49.2909 110.471 48.5356 110.364 48.0847C110.295 47.485 110.366 46.9524 110.673 46.4381C110.915 45.9797 111.198 45.673 111.624 45.3476C112.016 45.0865 112.712 44.9824 113.248 45.0711C114.114 45.2508 114.161 45.4308 114.51 45.6105Z" fill="white"/>
<path d="M54.6883 48.2615L53.0662 60.1581L58.2559 59.4735L58.3825 53.3278L61.0409 59.0271L63.7413 58.6837L65.6287 52.65L66.5765 58.3033L70.5359 57.7095L68.3274 47.7681L63.7362 47.8359L62.1177 53.961L60.0495 48.0353L54.6883 48.2615Z" fill="white"/>
<path d="M71.5303 47.5989L75.6344 47.3018L75.7731 56.9635L71.9195 57.5187L71.5303 47.5989Z" fill="white"/>
<path d="M77.2749 47.0112L81.0157 46.8081L81.0544 53.1545L83.9426 52.8634L83.9315 55.7145L77.3236 56.6554L77.2749 47.0112Z" fill="white"/>
<path d="M91.4894 46.3558L94.3342 46.1323L94.3661 54.3569L91.4894 54.8072V46.3558Z" fill="white"/>
<path d="M102.549 51.3716C101.529 53.4698 99.1725 54.4842 97.2866 53.6371C95.4007 52.7899 94.6993 50.4021 95.7197 48.3036C96.7402 46.2054 99.0962 45.1911 100.982 46.0384C102.868 46.8854 103.57 49.2732 102.549 51.3716Z" fill="white"/>
<path d="M84.9309 46.7344L88.1054 46.5449L88.1381 52.4694L90.5888 52.1975L90.5794 54.8589L84.9723 55.7373L84.9309 46.7344Z" fill="white"/>
<path d="M103.747 45.6268L103.689 53.2083L105.732 52.9318L105.801 48.9681L107.476 52.6322L109.634 52.494L109.794 45.3271L107.752 45.4424L107.832 49.4983L105.938 45.5001L103.747 45.6268Z" fill="white"/>
<path d="M114.864 45.299L114.28 46.9407L113.346 46.5419C112.581 46.3598 112.493 47.2678 112.902 47.3393L113.813 47.5737C114.372 47.7549 114.585 48.1846 114.7 48.465C114.964 49.3945 114.739 49.7804 114.63 50.2942C114.268 51.2757 113.584 51.6984 112.738 51.8419C111.677 52.0002 111.141 51.7889 110.496 51.6544L111.22 49.6843C111.352 50.1945 111.949 50.2096 112.108 50.2473C112.461 50.3378 112.743 50.1943 112.878 50.0126C113.074 49.6717 112.852 49.4339 112.645 49.356L111.617 49.145C110.998 48.9796 110.825 48.224 110.718 47.7731C110.649 47.1737 110.72 46.6411 111.028 46.1268C111.269 45.6681 111.552 45.3615 111.978 45.0363C112.37 44.7749 113.066 44.6708 113.602 44.7596C114.468 44.9396 114.515 45.1193 114.864 45.299Z" fill="#33337A"/>
<path d="M55.0852 47.9089L53.4631 59.8053L58.6528 59.121L58.7795 52.975L61.4378 58.6745L64.1383 58.3312L66.0256 52.2975L66.9734 57.9508L70.9329 57.3567L68.7244 47.4155L64.1332 47.4834L62.5147 53.6082L60.4464 47.6828L55.0852 47.9089Z" fill="#33337A"/>
<path d="M71.9697 47.3301L76.0738 47.0332L76.2126 56.6949L72.3587 57.2499L71.9697 47.3301Z" fill="#33337A"/>
<path d="M77.714 46.8285L81.455 46.6255L81.4935 52.9719L84.3819 52.6806L84.3708 55.5319L77.7627 56.4728L77.714 46.8285Z" fill="#33337A"/>
<path d="M91.7981 46.1327L94.6429 45.9092L94.6747 54.1339L91.7981 54.5843V46.1327Z" fill="#33337A"/>
<path d="M102.858 51.1491C101.837 53.2473 99.4812 54.2616 97.5953 53.4144C95.7094 52.5674 95.0077 50.1795 96.0281 48.0811C97.0488 45.9829 99.4049 44.9685 101.291 45.8156C103.177 46.6628 103.878 49.0507 102.858 51.1491Z" fill="#33337A"/>
<path d="M85.2426 46.4663L88.417 46.2769L88.4497 52.2011L90.9005 51.9295L90.9336 54.6337L85.284 55.4693L85.2426 46.4663Z" fill="#33337A"/>
<path d="M104.058 45.3167L104.001 52.8985L106.043 52.622L106.112 48.6583L107.788 52.3224L109.946 52.184L110.106 45.0171L108.063 45.1324L108.144 49.1882L106.25 45.19L104.058 45.3167Z" fill="#33337A"/>
<path d="M99.752 46.6748L99.144 48.6001L96.5249 48.835L98.6295 50.1027L98.0683 52.4507L99.8455 50.8542L101.483 51.6054L100.875 49.8681L102.325 48.4593L100.547 48.5532L99.752 46.6748Z" fill="white"/>
</g>
<defs>
<radialGradient id="paint0_radial_104_3858" cx="0" cy="0" r="1" gradientUnits="userSpaceOnUse" gradientTransform="translate(45.7896 29.8561) rotate(71.5918) scale(10.5672 11.3086)">
<stop stop-color="#FFF6D5"/>
<stop offset="1" stop-color="#FFF6D5" stop-opacity="0"/>
</radialGradient>
<radialGradient id="paint1_radial_104_3858" cx="0" cy="0" r="1" gradientUnits="userSpaceOnUse" gradientTransform="translate(46.5335 29.8898) rotate(75.0572) scale(4.27653 5.12506)">
<stop stop-color="#FFF6D5"/>
<stop offset="1" stop-color="#FFF6D5" stop-opacity="0"/>
</radialGradient>
<clipPath id="clip0_104_3858">
<rect width="141" height="80" fill="white" transform="translate(0.623047 0.30127)"/>
</clipPath>
</defs>
</svg>
