<svg width="21" height="14" viewBox="0 0 21 14" fill="none" xmlns="http://www.w3.org/2000/svg">
<path d="M0.0114746 0.0488281H23.0135V14.0488H0.0114746V0.0488281Z" fill="white"/>
<path d="M0.0114746 0.0488281H23.0135V0.995077H0.0114746V0.0488281ZM0.0114746 1.94133H23.0135V2.88757H0.0114746V1.94133ZM0.0114746 3.83375H23.0135V4.77999H0.0114746V3.83375ZM0.0114746 5.72624H23.0135V6.67249H0.0114746V5.72624ZM0.0114746 7.61866H23.0135V8.56491H0.0114746V7.61866ZM0.0114746 9.51116H23.0135V10.4574H0.0114746V9.51116ZM0.0114746 11.4036H23.0135V12.3498H0.0114746V11.4036Z" fill="#B22234"/>
<path d="M0.043335 13.1284H23.0454V14.0747H0.043335V13.1284ZM0.043335 15.0209H23.0454V15.9672H0.043335V15.0209ZM0.043335 16.9133H23.0454V17.8596H0.043335V16.9133ZM0.043335 18.8058H23.0454V19.7521H0.043335V18.8058ZM0.043335 20.6983H23.0454V21.6445H0.043335V20.6983ZM0.043335 22.5908H23.0454V23.537H0.043335V22.5908ZM0.043335 24.4832H23.0454V25.4294H0.043335V24.4832Z" fill="#B22234"/>
<path d="M0.0114746 0.0488281H9.2123V6.67241H0.0114746V0.0488281Z" fill="#3C3B6E"/>
<path d="M0.443726 0.586472L0.662935 0.748283L0.579208 1.01013L0.798341 0.848315L1.01755 1.01013L0.933823 0.748283L1.15296 0.586472H0.882068L0.798341 0.324707L0.714613 0.586472H0.443726ZM1.96915 0.586472L2.18828 0.748283L2.10455 1.01013L2.32376 0.848315L2.54297 1.01013L2.45924 0.748283L2.67838 0.586472H2.40749L2.32376 0.324707L2.24003 0.586472H1.96915ZM3.49457 0.586472L3.7137 0.748283L3.62997 1.01013L3.84918 0.848315L4.06831 1.01013L3.98459 0.748283L4.2038 0.586472H3.93291L3.84918 0.324707L3.76545 0.586472H3.49457ZM5.01999 0.586472L5.23912 0.748283L5.15539 1.01013L5.3746 0.848315L5.59373 1.01013L5.51001 0.748283L5.72922 0.586472H5.45825L5.3746 0.324707L5.29087 0.586472H5.01999ZM6.54533 0.586472L6.76454 0.748283L6.68081 1.01013L6.89994 0.848315L7.11915 1.01013L7.03543 0.748283L7.25456 0.586472H6.98367L6.89994 0.324707L6.81622 0.586472H6.54533ZM8.07075 0.586472L8.28988 0.748283L8.20615 1.01013L8.42536 0.848315L8.6445 1.01013L8.56077 0.748283L8.77998 0.586472H8.50909L8.42536 0.324707L8.34164 0.586472H8.07075ZM1.2064 1.25078L1.42561 1.41259L1.34188 1.67435L1.56109 1.51254L1.78022 1.67435L1.69649 1.41259L1.9157 1.25078H1.64474L1.56109 0.988935L1.47736 1.25078H1.2064ZM2.73182 1.25078L2.95103 1.41259L2.8673 1.67435L3.08643 1.51254L3.30564 1.67435L3.22191 1.41259L3.44105 1.25078H3.17016L3.08643 0.988935L3.0027 1.25078H2.73182ZM4.25724 1.25078L4.47645 1.41259L4.39272 1.67435L4.61185 1.51254L4.83106 1.67435L4.74733 1.41259L4.96647 1.25078H4.69558L4.61185 0.988935L4.52812 1.25078H4.25724ZM5.78266 1.25078L6.00179 1.41259L5.91806 1.67435L6.13727 1.51254L6.35641 1.67435L6.27268 1.41259L6.49189 1.25078H6.221L6.13727 0.988935L6.05354 1.25078H5.78266ZM7.308 1.25078L7.52721 1.41259L7.44348 1.67435L7.66262 1.51254L7.88183 1.67435L7.7981 1.41259L8.01723 1.25078H7.74634L7.66262 0.988935L7.57896 1.25078H7.308ZM0.443726 1.91501L0.662935 2.07682L0.579208 2.33866L0.798341 2.17685L1.01755 2.33866L0.933823 2.07682L1.15296 1.91501H0.882068L0.798341 1.65324L0.714613 1.91501H0.443726ZM1.96915 1.91501L2.18828 2.07682L2.10455 2.33866L2.32376 2.17685L2.54297 2.33866L2.45924 2.07682L2.67838 1.91501H2.40749L2.32376 1.65324L2.24003 1.91501H1.96915ZM3.49457 1.91501L3.7137 2.07682L3.62997 2.33866L3.84918 2.17685L4.06831 2.33866L3.98459 2.07682L4.2038 1.91501H3.93291L3.84918 1.65324L3.76545 1.91501H3.49457ZM5.01999 1.91501L5.23912 2.07682L5.15539 2.33866L5.3746 2.17685L5.59373 2.33866L5.51001 2.07682L5.72922 1.91501H5.45825L5.3746 1.65324L5.29087 1.91501H5.01999ZM6.54533 1.91501L6.76454 2.07682L6.68081 2.33866L6.89994 2.17685L7.11915 2.33866L7.03543 2.07682L7.25456 1.91501H6.98367L6.89994 1.65324L6.81622 1.91501H6.54533ZM8.07075 1.91501L8.28988 2.07682L8.20615 2.33866L8.42536 2.17685L8.6445 2.33866L8.56077 2.07682L8.77998 1.91501H8.50909L8.42536 1.65324L8.34164 1.91501H8.07075ZM1.22526 2.58149L1.44439 2.74331L1.36074 3.00507L1.57987 2.84326L1.79908 3.00507L1.71536 2.74323L1.93449 2.58149H1.6636L1.57987 2.31965L1.49615 2.58149H1.22526ZM2.75068 2.58149L2.96981 2.74331L2.88608 3.00507L3.10529 2.84326L3.32443 3.00507L3.2407 2.74323L3.45991 2.58149H3.18902L3.10529 2.31965L3.02157 2.58149H2.75068ZM4.2761 2.58149L4.49523 2.74331L4.4115 3.00507L4.63071 2.84326L4.84985 3.00507L4.76612 2.74323L4.98533 2.58149H4.71437L4.63071 2.31965L4.54699 2.58149H4.2761ZM5.80144 2.58149L6.02065 2.74331L5.93692 3.00507L6.15606 2.84326L6.37527 3.00507L6.29154 2.74323L6.51067 2.58149H6.23979L6.15606 2.31965L6.07233 2.58149H5.80144ZM7.32686 2.58149L7.546 2.74331L7.46227 3.00507L7.68148 2.84326L7.90061 3.00507L7.81688 2.74323L8.03609 2.58149H7.7652L7.68148 2.31965L7.59775 2.58149H7.32686ZM0.466881 3.24019L0.686091 3.40192L0.602363 3.66377L0.821496 3.50196L1.04071 3.66377L0.956978 3.40192L1.17611 3.24019H0.905224L0.821496 2.97835L0.737769 3.24019H0.466881ZM1.9923 3.24019L2.21143 3.40192L2.12771 3.66377L2.34692 3.50196L2.56605 3.66377L2.4824 3.40192L2.70153 3.24019H2.43064L2.34692 2.97835L2.26319 3.24019H1.9923ZM3.51772 3.24019L3.73685 3.40192L3.65313 3.66377L3.87234 3.50196L4.09147 3.66377L4.00774 3.40192L4.22695 3.24019H3.95606L3.87234 2.97835L3.78861 3.24019H3.51772ZM5.04306 3.24019L5.26227 3.40192L5.17855 3.66377L5.39768 3.50196L5.61689 3.66377L5.53316 3.40192L5.75237 3.24019H5.48141L5.39768 2.97835L5.31403 3.24019H5.04306ZM6.56848 3.24019L6.78762 3.40192L6.70397 3.66377L6.9231 3.50196L7.14231 3.66377L7.05858 3.40192L7.27771 3.24019H7.00683L6.9231 2.97835L6.83937 3.24019H6.56848ZM8.0939 3.24019L8.31304 3.40192L8.22931 3.66377L8.44852 3.50196L8.66765 3.66377L8.58393 3.40192L8.80313 3.24019H8.53225L8.44852 2.97835L8.36479 3.24019H8.0939ZM0.481219 4.54761L0.700352 4.70942L0.616624 4.97127L0.835834 4.80946L1.05497 4.97127L0.97124 4.70942L1.19045 4.54761H0.919562L0.835834 4.28585L0.752107 4.54761H0.481219ZM2.00656 4.54761L2.22577 4.70942L2.14204 4.97127L2.36118 4.80946L2.58039 4.97127L2.49666 4.70942L2.71579 4.54761H2.44491L2.36118 4.28585L2.27745 4.54761H2.00656ZM3.53198 4.54761L3.75112 4.70942L3.66746 4.97127L3.8866 4.80946L4.10581 4.97127L4.02208 4.70942L4.24121 4.54761H3.97032L3.8866 4.28585L3.80287 4.54761H3.53198ZM5.0574 4.54761L5.27654 4.70942L5.19281 4.97127L5.41202 4.80946L5.63115 4.97127L5.5475 4.70942L5.76663 4.54761H5.49574L5.41202 4.28585L5.32829 4.54761H5.0574ZM6.58275 4.54761L6.80196 4.70942L6.71823 4.97127L6.93736 4.80946L7.15657 4.97127L7.07284 4.70942L7.29205 4.54761H7.02109L6.93736 4.28585L6.85371 4.54761H6.58275ZM8.10817 4.54761L8.3273 4.70942L8.24365 4.97127L8.46278 4.80946L8.68199 4.97127L8.59826 4.70942L8.8174 4.54761H8.54651L8.46278 4.28585L8.37905 4.54761H8.10817ZM0.462587 5.87046L0.68172 6.03227L0.597993 6.29411L0.817202 6.1323L1.03634 6.29411L0.952608 6.03227L1.17182 5.87046H0.900853L0.817202 5.6087L0.733475 5.87046H0.462587ZM1.98793 5.87046L2.20714 6.03227L2.12341 6.29411L2.34255 6.1323L2.56176 6.29411L2.47803 6.03227L2.69716 5.87046H2.42627L2.34255 5.6087L2.25882 5.87046H1.98793ZM3.51335 5.87046L3.73248 6.03227L3.64883 6.29411L3.86797 6.1323L4.08718 6.29411L4.00345 6.03227L4.22258 5.87046H3.95169L3.86797 5.6087L3.78424 5.87046H3.51335ZM5.03877 5.87046L5.2579 6.03227L5.17418 6.29411L5.39339 6.1323L5.61252 6.29411L5.52887 6.03227L5.748 5.87046H5.47711L5.39339 5.6087L5.30966 5.87046H5.03877ZM6.56411 5.87046L6.78332 6.03227L6.6996 6.29411L6.91873 6.1323L7.13794 6.29411L7.05421 6.03227L7.27342 5.87046H7.00246L6.91873 5.6087L6.83508 5.87046H6.56411ZM8.08953 5.87046L8.30867 6.03227L8.22502 6.29411L8.44415 6.1323L8.66336 6.29411L8.57963 6.03227L8.79876 5.87046H8.52788L8.44415 5.6087L8.36042 5.87046H8.08953ZM1.22978 3.88736L1.44892 4.04917L1.36526 4.31093L1.5844 4.14912L1.80361 4.31093L1.71988 4.04917L1.93901 3.88736H1.66813L1.5844 3.62552L1.50067 3.88736H1.22978ZM2.7552 3.88736L2.97434 4.04917L2.89061 4.31093L3.10982 4.14912L3.32895 4.31093L3.2453 4.04917L3.46443 3.88736H3.19355L3.10982 3.62552L3.02609 3.88736H2.7552ZM4.28062 3.88736L4.49976 4.04917L4.41603 4.31093L4.63524 4.14912L4.85437 4.31093L4.77064 4.04917L4.98985 3.88736H4.71897L4.63524 3.62552L4.55151 3.88736H4.28062ZM5.80597 3.88736L6.02518 4.04917L5.94145 4.31093L6.16058 4.14912L6.37979 4.31093L6.29606 4.04917L6.5152 3.88736H6.24431L6.16058 3.62552L6.07685 3.88736H5.80597ZM7.33139 3.88736L7.55052 4.04917L7.46679 4.31093L7.686 4.14912L7.90513 4.31093L7.82148 4.04917L8.04062 3.88736H7.76973L7.686 3.62552L7.60227 3.88736H7.33139ZM1.22526 5.2081L1.44447 5.36991L1.36074 5.63176L1.57987 5.46994L1.79908 5.63176L1.71536 5.36991L1.93449 5.2081H1.6636L1.57987 4.94634L1.49615 5.2081H1.22526ZM2.75068 5.2081L2.96981 5.36991L2.88608 5.63176L3.10529 5.46994L3.3245 5.63176L3.24078 5.36991L3.45991 5.2081H3.18902L3.10529 4.94634L3.02157 5.2081H2.75068ZM4.2761 5.2081L4.49523 5.36991L4.4115 5.63176L4.63071 5.46994L4.84985 5.63176L4.76612 5.36991L4.98533 5.2081H4.71444L4.63071 4.94634L4.54699 5.2081H4.2761ZM5.80144 5.2081L6.02065 5.36991L5.93692 5.63176L6.15606 5.46994L6.37527 5.63176L6.29154 5.36991L6.51067 5.2081H6.23979L6.15606 4.94634L6.07233 5.2081H5.80144ZM7.32686 5.2081L7.546 5.36991L7.46227 5.63176L7.68148 5.46994L7.90061 5.63176L7.81696 5.36991L8.03609 5.2081H7.7652L7.68148 4.94634L7.59775 5.2081H7.32686Z" fill="white"/>
</svg>
