<svg width="21" height="21" viewBox="0 0 21 21" fill="none" xmlns="http://www.w3.org/2000/svg">
<rect x="0.675537" y="0.0371094" width="20" height="20" rx="10" fill="#F30000"/>
<path d="M10.0544 10.4453C10.0544 11.6719 9.82397 12.5977 9.36304 13.2227C8.90601 13.8438 8.20874 14.1543 7.27124 14.1543C6.34937 14.1543 5.65405 13.8516 5.1853 13.2461C4.72046 12.6367 4.48218 11.7363 4.47046 10.5449V9.06836C4.47046 7.8418 4.69897 6.92188 5.15601 6.30859C5.61694 5.69531 6.31812 5.38867 7.25952 5.38867C8.19312 5.38867 8.88843 5.6875 9.34546 6.28516C9.8064 6.88281 10.0427 7.77734 10.0544 8.96875V10.4453ZM8.63062 8.85156C8.63062 8.05078 8.52124 7.46484 8.30249 7.09375C8.08374 6.71875 7.73608 6.53125 7.25952 6.53125C6.79468 6.53125 6.45288 6.70898 6.23413 7.06445C6.01538 7.41602 5.90015 7.9668 5.88843 8.7168V10.6504C5.88843 11.4473 5.99976 12.041 6.22241 12.4316C6.44507 12.8223 6.79468 13.0176 7.27124 13.0176C7.72827 13.0176 8.06616 12.8379 8.28491 12.4785C8.50366 12.1152 8.6189 11.5488 8.63062 10.7793V8.85156ZM16.9919 6.29688L13.5818 14.0371H12.0876L15.4919 6.64844H11.0798V5.50586H16.9919V6.29688Z" fill="white"/>
</svg>
