<svg width="45" height="28" viewBox="0 0 45 28" fill="none" xmlns="http://www.w3.org/2000/svg">
<g clip-path="url(#clip0_104_4542)">
<rect x="0.733154" y="0.728027" width="44" height="26.4" rx="4" fill="#26337A"/>
<path fill-rule="evenodd" clip-rule="evenodd" d="M18.9888 18.1284L20.3417 9.73584H22.5042L21.1514 18.1284H18.9888" fill="#FFFFFE"/>
<path fill-rule="evenodd" clip-rule="evenodd" d="M28.9956 9.94197C28.568 9.77353 27.8955 9.58984 27.0578 9.58984C24.9197 9.58984 23.4147 10.7288 23.4022 12.3596C23.3886 13.566 24.4762 14.2387 25.2961 14.6397C26.1388 15.0507 26.4219 15.3137 26.4186 15.6812C26.4127 16.2433 25.7459 16.5008 25.1242 16.5008C24.2584 16.5008 23.7984 16.374 23.0872 16.0607L22.809 15.9271L22.5066 17.8057C23.0109 18.0395 23.9457 18.2424 24.9159 18.253C27.1881 18.253 28.6646 17.1278 28.6819 15.3863C28.6897 14.4297 28.1134 13.7046 26.8654 13.106C26.1097 12.7168 25.6459 12.459 25.6512 12.0651C25.6517 11.7163 26.043 11.3429 26.89 11.3429C27.5974 11.3315 28.1095 11.4949 28.5085 11.6654L28.7027 11.7613L28.9956 9.94197" fill="#FFFFFE"/>
<path fill-rule="evenodd" clip-rule="evenodd" d="M31.8752 15.1532C32.0544 14.6708 32.7366 12.8073 32.7366 12.8073C32.724 12.8295 32.9149 12.3212 33.0241 12.0066L33.17 12.7304C33.17 12.7304 33.585 14.7336 33.6705 15.1532C33.3338 15.1532 32.2974 15.1532 31.8752 15.1532ZM34.5431 9.74463H32.8718C32.3535 9.74463 31.9655 9.89311 31.7384 10.4403L28.5269 18.1316H30.7982C30.7982 18.1316 31.1688 17.097 31.2529 16.8699C31.5007 16.8699 33.7077 16.8742 34.0227 16.8742C34.0876 17.1671 34.2861 18.1316 34.2861 18.1316H36.2933L34.5431 9.74463Z" fill="#FFFFFE"/>
<path fill-rule="evenodd" clip-rule="evenodd" d="M17.1745 9.74316L15.0579 15.4649L14.8311 14.3018C14.4367 12.9617 13.2089 11.5092 11.8354 10.7814L13.7719 18.1214L16.0606 18.12L19.4662 9.74316H17.1745" fill="#FFFFFE"/>
<path fill-rule="evenodd" clip-rule="evenodd" d="M13.0929 9.7373H9.6056L9.5769 9.9112C12.2905 10.6064 14.0859 12.2845 14.8311 14.3017L14.0733 10.4454C13.9425 9.91355 13.5626 9.7559 13.0929 9.7373" fill="#EC982D"/>
</g>
<defs>
<clipPath id="clip0_104_4542">
<rect width="44" height="26.4" fill="white" transform="translate(0.733154 0.728027)"/>
</clipPath>
</defs>
</svg>
