<svg width="45" height="28" viewBox="0 0 45 28" fill="none" xmlns="http://www.w3.org/2000/svg">
<g clip-path="url(#clip0_104_4551)">
<rect x="0.733154" y="0.728027" width="44" height="26.4" rx="4" fill="#000066"/>
<path fill-rule="evenodd" clip-rule="evenodd" d="M25.4298 14.1414C25.4298 18.8838 21.5857 22.7278 16.8434 22.7278C12.101 22.7278 8.25659 18.8838 8.25659 14.1414C8.25659 9.39909 12.101 5.55469 16.8434 5.55469C21.5857 5.55469 25.4298 9.39909 25.4298 14.1414Z" fill="#CC0000"/>
<path fill-rule="evenodd" clip-rule="evenodd" d="M28.3714 5.55469C26.1522 5.55469 24.1309 6.39641 22.6068 7.77725C22.2967 8.05868 22.0073 8.36264 21.7401 8.68628H23.475C23.7119 8.97476 23.9302 9.27804 24.1296 9.59571H21.0854C20.9033 9.88759 20.7377 10.1909 20.5906 10.5051H24.624C24.7619 10.7995 24.8832 11.1026 24.9877 11.4142H20.2269C20.1279 11.7103 20.0443 12.0137 19.9775 12.3231H25.2368C25.3628 12.9093 25.4298 13.5175 25.4298 14.1414C25.4298 15.0946 25.2744 16.0122 24.9877 16.8691H20.2269C20.3314 17.1804 20.4527 17.484 20.5903 17.7787H24.624C24.4767 18.0922 24.3119 18.3957 24.1287 18.688H21.0854C21.2839 19.0047 21.5026 19.3084 21.7401 19.5965H23.4744C23.2078 19.9204 22.9181 20.2244 22.6071 20.5058C24.1311 21.8866 26.1522 22.7278 28.3714 22.7278C33.1136 22.7278 36.9578 18.8838 36.9578 14.1414C36.9578 9.39949 33.1136 5.55469 28.3714 5.55469Z" fill="#FF9900"/>
<path fill-rule="evenodd" clip-rule="evenodd" d="M14.8381 15.0815C14.7402 15.0704 14.6971 15.0669 14.6299 15.0669C14.1015 15.0669 13.8343 15.2482 13.8343 15.6063C13.8343 15.8268 13.9647 15.9669 14.1683 15.9669C14.5481 15.9669 14.8218 15.6054 14.8381 15.0815ZM15.5162 16.6598C15.3919 16.6598 14.7436 16.6598 14.7436 16.6598L14.7614 16.2927C14.5258 16.5825 14.2114 16.721 13.7844 16.721C13.2793 16.721 12.9329 16.3266 12.9329 15.7536C12.9329 14.891 13.5352 14.3879 14.5694 14.3879C14.6753 14.3879 14.8108 14.3977 14.9494 14.4152C14.9782 14.2982 14.9858 14.2486 14.9858 14.1855C14.9858 13.951 14.8235 13.8631 14.3881 13.8631C13.932 13.8584 13.5558 13.972 13.4013 14.0228C13.4111 13.9639 13.5306 13.2261 13.5306 13.2261C13.995 13.0896 14.3014 13.0386 14.6462 13.0386C15.4468 13.0386 15.8708 13.3979 15.8699 14.0772C15.8715 14.2594 15.8412 14.4835 15.7944 14.779C15.7135 15.2919 15.5399 16.392 15.5162 16.6598Z" fill="#000066"/>
<path fill-rule="evenodd" clip-rule="evenodd" d="M12.5428 16.6601H11.6105L12.1448 13.3122L10.9522 16.6601H10.317L10.2384 13.331L9.67721 16.6601H8.80469L9.53351 12.3047H10.874L10.9551 14.7426L11.7729 12.3047H13.2638L12.5428 16.6601Z" fill="#000066"/>
<path fill-rule="evenodd" clip-rule="evenodd" d="M29.5231 15.0815C29.4252 15.0704 29.3826 15.0669 29.3156 15.0669C28.7868 15.0669 28.5199 15.2482 28.5199 15.6063C28.5199 15.8268 28.6497 15.9669 28.8538 15.9669C29.2334 15.9669 29.5072 15.6054 29.5231 15.0815ZM30.2016 16.6598C30.0771 16.6598 29.4293 16.6598 29.4293 16.6598L29.4468 16.2927C29.2112 16.5825 28.8969 16.721 28.4702 16.721C27.9644 16.721 27.6184 16.3266 27.6184 15.7536C27.6184 14.891 28.221 14.3879 29.2549 14.3879C29.3607 14.3879 29.4959 14.3977 29.6347 14.4152C29.6636 14.2982 29.6711 14.2486 29.6711 14.1855C29.6711 13.951 29.5088 13.8631 29.0733 13.8631C28.6173 13.8584 28.2413 13.972 28.0862 14.0228C28.0965 13.9639 28.2163 13.2261 28.2163 13.2261C28.6804 13.0896 28.987 13.0386 29.3313 13.0386C30.1324 13.0386 30.5559 13.3979 30.5551 14.0772C30.5568 14.2594 30.5268 14.4835 30.4797 14.779C30.3991 15.2919 30.225 16.392 30.2016 16.6598Z" fill="#000066"/>
<path fill-rule="evenodd" clip-rule="evenodd" d="M19.659 16.6064C19.4037 16.6867 19.2049 16.7214 18.9892 16.7214C18.5127 16.7214 18.2526 16.4476 18.2526 15.9432C18.246 15.7866 18.3211 15.3748 18.3803 14.9992C18.4343 14.6682 18.7847 12.582 18.7847 12.582H19.7111L19.6029 13.1182H20.1627L20.0363 13.9695H19.4747C19.3671 14.643 19.2136 15.4821 19.2118 15.5934C19.2118 15.776 19.3093 15.8558 19.5311 15.8558C19.6374 15.8558 19.7196 15.845 19.7824 15.8224L19.659 16.6064Z" fill="#000066"/>
<path fill-rule="evenodd" clip-rule="evenodd" d="M22.5 16.5772C22.1817 16.6745 21.8749 16.722 21.5493 16.721C20.5119 16.7196 19.9712 16.1782 19.9712 15.1408C19.9712 13.9301 20.659 13.0386 21.593 13.0386C22.3569 13.0386 22.845 13.5377 22.845 14.3201C22.845 14.5802 22.8116 14.8337 22.7306 15.1914H20.8854C20.8231 15.7053 21.1517 15.9193 21.6911 15.9193C22.0224 15.9193 22.3217 15.8509 22.6543 15.6966L22.5 16.5772ZM21.9793 14.4775C21.9846 14.4035 22.0774 13.8452 21.5478 13.8452C21.253 13.8452 21.0418 14.0701 20.9561 14.4775H21.9793Z" fill="#000066"/>
<path fill-rule="evenodd" clip-rule="evenodd" d="M16.0754 14.2376C16.0754 14.6852 16.2925 14.9942 16.785 15.2264C17.1624 15.404 17.2212 15.4565 17.2212 15.6173C17.2212 15.8378 17.0545 15.938 16.6859 15.938C16.4075 15.938 16.1489 15.8943 15.8505 15.7978C15.8505 15.7978 15.7282 16.5789 15.7224 16.6162C15.9342 16.6621 16.1231 16.7048 16.6925 16.721C17.676 16.721 18.1303 16.3464 18.1303 15.537C18.1303 15.0504 17.9404 14.7648 17.4733 14.5498C17.0826 14.3706 17.0374 14.3304 17.0374 14.1651C17.0374 13.9737 17.1925 13.8758 17.4937 13.8758C17.6767 13.8758 17.9265 13.8954 18.1636 13.9289L18.2962 13.1074C18.0549 13.069 17.6888 13.0386 17.4757 13.0386C16.4331 13.0386 16.072 13.5831 16.0754 14.2376Z" fill="#000066"/>
<path fill-rule="evenodd" clip-rule="evenodd" d="M27.0338 13.1325C27.2927 13.1325 27.5345 13.1998 27.8668 13.3677L28.0195 12.4224C27.8824 12.3687 27.4019 12.0537 26.9948 12.0537C26.3712 12.0537 25.8433 12.3636 25.4727 12.874C24.9316 12.6949 24.7089 13.0569 24.4364 13.4179L24.1942 13.4743C24.2125 13.3556 24.2292 13.2377 24.2239 13.1181H23.3674C23.2507 14.2147 23.0435 15.3249 22.8813 16.4219L22.8389 16.6602H23.7715C23.9271 15.6487 24.0122 15.0013 24.0641 14.5627L24.4152 14.3681C24.468 14.1726 24.6318 14.1069 24.9613 14.1149C24.9183 14.3459 24.8949 14.5892 24.8949 14.8409C24.8949 15.9999 25.521 16.7214 26.5241 16.7214C26.7826 16.7214 27.0046 16.6875 27.3483 16.5938L27.5117 15.6013C27.2026 15.7532 26.9495 15.8247 26.72 15.8247C26.1781 15.8247 25.8501 15.4245 25.8501 14.7636C25.8501 13.8043 26.3375 13.1325 27.0338 13.1325Z" fill="#000066"/>
<path fill-rule="evenodd" clip-rule="evenodd" d="M34.926 12.3047L34.7188 13.563C34.4643 13.2277 34.1905 12.9848 33.829 12.9848C33.3587 12.9848 32.9306 13.3414 32.6502 13.8665C32.2598 13.7855 31.8564 13.6478 31.8564 13.6478L31.8561 13.6512C31.8872 13.3577 31.9004 13.1791 31.8973 13.118H31.0409C30.9246 14.2146 30.7171 15.3249 30.5551 16.4218L30.5122 16.6601H31.4451C31.571 15.8427 31.6673 15.1631 31.7382 14.625C32.0571 14.3367 32.2167 14.0861 32.5381 14.1024C32.3955 14.4473 32.3123 14.8444 32.3123 15.2517C32.3123 16.1369 32.7599 16.7213 33.4378 16.7213C33.7795 16.7213 34.0417 16.6034 34.2973 16.3304L34.2533 16.6598H35.1354L35.8455 12.3047H34.926ZM33.7602 15.8419C33.443 15.8419 33.2823 15.6066 33.2823 15.1436C33.2823 14.4473 33.5826 13.9538 34.0053 13.9538C34.3257 13.9538 34.4994 14.1975 34.4994 14.6475C34.4994 15.3497 34.1941 15.8419 33.7602 15.8419Z" fill="#000066"/>
<path fill-rule="evenodd" clip-rule="evenodd" d="M12.8108 16.4014H11.8787L12.4129 13.0535L11.2205 16.4014H10.5851L10.5067 13.0729L9.94528 16.4014H9.07275L9.80158 12.0464H11.1421L11.1796 14.7424L12.0841 12.0464H13.5319L12.8108 16.4014Z" fill="white"/>
<path fill-rule="evenodd" clip-rule="evenodd" d="M15.1064 14.8237C15.0087 14.8123 14.9655 14.8092 14.8984 14.8092C14.37 14.8092 14.1026 14.9902 14.1026 15.348C14.1026 15.5683 14.2332 15.7093 14.4369 15.7093C14.8165 15.7093 15.0902 15.3478 15.1064 14.8237ZM15.7843 16.4015C15.6601 16.4015 15.012 16.4015 15.012 16.4015L15.0297 16.0347C14.7941 16.3244 14.4797 16.4629 14.0527 16.4629C13.5475 16.4629 13.2012 16.068 13.2012 15.4951C13.2012 14.6324 13.8037 14.13 14.8378 14.13C14.9435 14.13 15.0789 14.1397 15.2177 14.1576C15.2465 14.0403 15.2541 13.9905 15.2541 13.9272C15.2541 13.6928 15.0918 13.6056 14.6564 13.6056C14.2002 13.6001 13.8242 13.7137 13.6695 13.7643C13.6794 13.7057 13.7988 12.9679 13.7988 12.9679C14.2633 12.8317 14.5697 12.7803 14.9145 12.7803C15.7149 12.7803 16.1389 13.14 16.1382 13.819C16.1397 14.001 16.1097 14.2261 16.0627 14.5208C15.9817 15.0334 15.808 16.1341 15.7843 16.4015Z" fill="white"/>
<path fill-rule="evenodd" clip-rule="evenodd" d="M28.2875 12.1637L28.1348 13.1088C27.8019 12.9415 27.5608 12.8738 27.3022 12.8738C26.6062 12.8738 26.1179 13.5464 26.1179 14.5058C26.1179 15.1668 26.4461 15.5661 26.988 15.5661C27.2176 15.5661 27.4712 15.4952 27.7797 15.3428L27.6159 16.3353C27.2727 16.4288 27.0506 16.463 26.7922 16.463C25.7885 16.463 25.1633 15.7413 25.1633 14.5826C25.1633 13.0256 26.0276 11.9375 27.263 11.9375C27.67 11.9375 28.1508 12.11 28.2875 12.1637Z" fill="white"/>
<path fill-rule="evenodd" clip-rule="evenodd" d="M29.7912 14.8237C29.6941 14.8123 29.6508 14.8092 29.5838 14.8092C29.0556 14.8092 28.7882 14.9902 28.7882 15.348C28.7882 15.5683 28.9186 15.7093 29.1221 15.7093C29.5017 15.7093 29.7756 15.3478 29.7912 14.8237ZM30.4697 16.4015C30.3457 16.4015 29.6974 16.4015 29.6974 16.4015L29.715 16.0347C29.4794 16.3244 29.165 16.4629 28.7383 16.4629C28.2326 16.4629 27.8867 16.068 27.8867 15.4951C27.8867 14.6324 28.4887 14.13 29.5231 14.13C29.6288 14.13 29.7639 14.1397 29.9026 14.1576C29.9315 14.0403 29.9391 13.9905 29.9391 13.9272C29.9391 13.6928 29.7772 13.6056 29.3415 13.6056C28.8857 13.6001 28.5098 13.7137 28.3549 13.7643C28.3646 13.7057 28.4842 12.9679 28.4842 12.9679C28.9487 12.8317 29.2548 12.7803 29.5996 12.7803C30.4001 12.7803 30.8244 13.14 30.8233 13.819C30.8252 14.001 30.795 14.2261 30.748 14.5208C30.6673 15.0334 30.4936 16.1341 30.4697 16.4015Z" fill="white"/>
<path fill-rule="evenodd" clip-rule="evenodd" d="M19.9273 16.3478C19.6723 16.4281 19.4732 16.463 19.2577 16.463C18.7812 16.463 18.5209 16.189 18.5209 15.6852C18.5144 15.5281 18.5897 15.1169 18.649 14.7409C18.7026 14.4096 19.0531 12.3237 19.0531 12.3237H19.9798L19.8713 12.8597H20.3471L20.2204 13.7108H19.7431C19.6355 14.3849 19.482 15.2235 19.4801 15.3348C19.4801 15.518 19.578 15.5973 19.7996 15.5973C19.9058 15.5973 19.9879 15.5868 20.051 15.5637L19.9273 16.3478Z" fill="white"/>
<path fill-rule="evenodd" clip-rule="evenodd" d="M22.7685 16.3196C22.45 16.4172 22.1425 16.4632 21.8174 16.4629C20.7798 16.4622 20.2395 15.9201 20.2395 14.8829C20.2395 13.6718 20.9272 12.7803 21.8605 12.7803C22.6252 12.7803 23.113 13.2794 23.113 14.0627C23.113 14.3223 23.0791 14.5757 22.999 14.9335H21.1535C21.091 15.4474 21.4201 15.6618 21.9589 15.6618C22.2904 15.6618 22.5896 15.5931 22.9226 15.4384L22.7685 16.3196ZM22.2476 14.2192C22.2526 14.1451 22.3458 13.587 21.8163 13.587C21.5213 13.587 21.3101 13.8124 21.2242 14.2192H22.2476Z" fill="white"/>
<path fill-rule="evenodd" clip-rule="evenodd" d="M16.3434 13.9793C16.3434 14.4278 16.5608 14.7361 17.0535 14.9685C17.4309 15.146 17.4893 15.1985 17.4893 15.3594C17.4893 15.5802 17.3228 15.6798 16.9539 15.6798C16.6759 15.6798 16.4171 15.6367 16.1185 15.5405C16.1185 15.5405 15.9964 16.321 15.9907 16.3578C16.2024 16.4042 16.3914 16.4465 16.9605 16.4629C17.9443 16.4629 18.3986 16.0885 18.3986 15.2791C18.3986 14.7922 18.2084 14.5067 17.7415 14.2923C17.3507 14.1125 17.3058 14.0728 17.3058 13.9072C17.3058 13.7158 17.4607 13.6172 17.7621 13.6172C17.9447 13.6172 18.1948 13.6376 18.4318 13.671L18.5645 12.8496C18.3231 12.8115 17.9572 12.7803 17.744 12.7803C16.7011 12.7803 16.3403 13.325 16.3434 13.9793Z" fill="white"/>
<path fill-rule="evenodd" clip-rule="evenodd" d="M35.4037 16.4014H34.522L34.5657 16.0718C34.3099 16.345 34.0478 16.4629 33.7062 16.4629C33.0288 16.4629 32.5806 15.8791 32.5806 14.993C32.5806 13.8149 33.2755 12.8219 34.0974 12.8219C34.4589 12.8219 34.7326 12.9695 34.9875 13.305L35.1943 12.0464H36.1137L35.4037 16.4014ZM34.0284 15.5831C34.4628 15.5831 34.7676 15.0912 34.7676 14.3896C34.7676 13.9395 34.594 13.695 34.2737 13.695C33.8508 13.695 33.5507 14.1886 33.5507 14.8852C33.5507 15.3487 33.7115 15.5831 34.0284 15.5831Z" fill="white"/>
<path fill-rule="evenodd" clip-rule="evenodd" d="M31.3095 12.8598C31.193 13.9561 30.9856 15.0664 30.8235 16.1635L30.781 16.4016H31.7134C32.0469 14.2356 32.1271 13.8129 32.6504 13.8657C32.7335 13.4224 32.8886 13.0342 33.0041 12.8385C32.6137 12.7571 32.3957 12.9777 32.1099 13.397C32.1327 13.2156 32.1738 13.0396 32.1661 12.8598H31.3095Z" fill="white"/>
<path fill-rule="evenodd" clip-rule="evenodd" d="M23.6359 12.8598C23.5188 13.9561 23.3112 15.0664 23.1493 16.1635L23.1069 16.4016H24.0396C24.3732 14.2356 24.4532 13.8129 24.9756 13.8657C25.0593 13.4224 25.2147 13.0342 25.3299 12.8385C24.9399 12.7571 24.7214 12.9777 24.4362 13.397C24.4587 13.2156 24.5001 13.0396 24.492 12.8598H23.6359Z" fill="white"/>
</g>
<defs>
<clipPath id="clip0_104_4551">
<rect width="44" height="26.4" fill="white" transform="translate(0.733154 0.728027)"/>
</clipPath>
</defs>
</svg>
