<svg width="45" height="28" viewBox="0 0 45 28" fill="none" xmlns="http://www.w3.org/2000/svg">
<g clip-path="url(#clip0_104_4589)">
<rect x="0.733154" y="0.728027" width="44" height="26.4" rx="4" fill="#000066"/>
<path fill-rule="evenodd" clip-rule="evenodd" d="M37.5419 13.9207C37.5419 18.7851 33.6145 22.7279 28.7687 22.7279C23.9238 22.7279 19.9958 18.7851 19.9958 13.9207C19.9958 9.05623 23.9238 5.11328 28.7687 5.11328C33.6145 5.11328 37.5419 9.05623 37.5419 13.9207Z" fill="#CC0000"/>
<path fill-rule="evenodd" clip-rule="evenodd" d="M21.9916 19.5137C21.7493 19.2188 21.5262 18.9071 21.3234 18.5809H24.4327C24.6193 18.2819 24.7878 17.9704 24.9382 17.6482H20.8181C20.6776 17.3465 20.5529 17.0352 20.4466 16.7158H25.309C25.6018 15.8376 25.76 14.8981 25.76 13.9207C25.76 13.2807 25.6921 12.6566 25.5632 12.0556H20.1932C20.2611 11.7379 20.3468 11.427 20.4477 11.123H25.3084C25.2018 10.8035 25.0777 10.4925 24.9374 10.1907H20.8189C20.9694 9.86851 21.1383 9.55757 21.3243 9.25791H24.4317C24.229 8.9325 24.0053 8.62142 23.7635 8.32607H21.9927C22.2652 7.99412 22.5612 7.68248 22.8782 7.39395C21.321 5.97664 19.2543 5.11328 16.9874 5.11328C12.1418 5.11328 8.21387 9.05623 8.21387 13.9207C8.21387 18.7851 12.1418 22.7279 16.9874 22.7279C19.2544 22.7279 21.3213 21.8645 22.8782 20.4478C23.1956 20.1587 23.492 19.8463 23.7645 19.5137H21.9916Z" fill="#0066CC"/>
<path fill-rule="evenodd" clip-rule="evenodd" d="M22.7532 16.3007C22.3782 16.4004 22.0157 16.4491 21.6324 16.4482C20.4096 16.4471 19.7727 15.888 19.7727 14.8188C19.7727 13.5696 20.5834 12.6509 21.684 12.6509C22.5842 12.6509 23.1588 13.166 23.1588 13.9731C23.1588 14.2409 23.1199 14.5019 23.0247 14.8707H20.8501C20.7727 15.3929 21.1525 15.6222 21.7991 15.6222C22.1863 15.6222 22.5365 15.5523 22.9244 15.3957L22.7532 16.3007ZM22.1684 14.134C22.1684 14.0553 22.2893 13.4946 21.66 13.4825C21.3125 13.4825 21.0633 13.7144 20.9625 14.134H22.1684Z" fill="#000066"/>
<path fill-rule="evenodd" clip-rule="evenodd" d="M23.49 13.8895C23.49 14.3509 23.7488 14.6697 24.3371 14.9071C24.7868 15.0919 24.8575 15.1455 24.8575 15.3107C24.8575 15.5396 24.6589 15.6446 24.2177 15.6418C23.8865 15.6394 23.584 15.5989 23.2273 15.4997L23.0693 16.3414C23.3866 16.4153 23.8313 16.4395 24.2255 16.4487C25.3998 16.4487 25.9419 16.0627 25.9419 15.2284C25.9419 14.7268 25.7158 14.4319 25.1581 14.212C24.6919 14.0249 24.6373 13.9847 24.6373 13.8153C24.6373 13.6165 24.822 13.5161 25.1821 13.5161C25.4005 13.5161 25.6993 13.5361 25.983 13.5706L26.142 12.7244C25.853 12.6841 25.4147 12.6519 25.1609 12.6519C23.9168 12.6519 23.4863 13.214 23.49 13.8895Z" fill="#000066"/>
<path fill-rule="evenodd" clip-rule="evenodd" d="M19.1766 16.388H18.2644L18.2862 16.0044C18.008 16.307 17.6374 16.448 17.1346 16.448C16.5395 16.448 16.1318 16.0395 16.1318 15.452C16.1318 14.559 16.8405 14.0438 18.0591 14.0438C18.1843 14.0438 18.3436 14.0533 18.5072 14.0718C18.541 13.9523 18.5502 13.9008 18.5502 13.8359C18.5502 13.5915 18.3584 13.5014 17.8457 13.5014C17.3401 13.5034 16.999 13.5787 16.6825 13.664L16.8383 12.8448C17.3857 12.705 17.744 12.6509 18.1496 12.6509C19.0932 12.6509 19.5915 13.0225 19.5915 13.7204C19.5994 13.9067 19.5349 14.2806 19.5024 14.4443C19.4655 14.6821 19.204 16.0623 19.1766 16.388ZM18.3758 14.7587C18.2603 14.7473 18.21 14.7438 18.1308 14.7438C17.5087 14.7438 17.1932 14.9297 17.1932 15.2968C17.1932 15.5273 17.3471 15.6713 17.5872 15.6713C18.0342 15.6713 18.357 15.2959 18.3758 14.7587Z" fill="#000066"/>
<path fill-rule="evenodd" clip-rule="evenodd" d="M27.864 16.3301C27.5647 16.4124 27.3314 16.4483 27.0792 16.4483C26.5204 16.4483 26.2152 16.1616 26.2152 15.651C26.1976 15.5107 26.3342 14.8627 26.3652 14.6822C26.396 14.5011 26.8801 11.8613 26.8801 11.8613H27.9658L27.8016 12.7348H28.3584L28.2072 13.626H27.6478C27.6478 13.626 27.341 15.1734 27.341 15.2917C27.341 15.4791 27.4541 15.5607 27.7141 15.5607C27.8383 15.5607 27.9344 15.549 28.0086 15.5267L27.864 16.3301Z" fill="#000066"/>
<path fill-rule="evenodd" clip-rule="evenodd" d="M32.715 12.651C31.9193 12.651 31.2975 12.9802 30.9363 13.5291L31.2498 12.7146C30.6722 12.5018 30.2997 12.8057 29.9632 13.2374C29.9632 13.2374 29.9068 13.3091 29.8505 13.3746V12.7345H28.8311C28.693 13.8643 28.4488 15.0101 28.2578 16.1423L28.2117 16.3885H29.3083C29.4125 15.814 29.4979 15.3477 29.583 14.9758C29.816 13.9556 30.2081 13.6438 30.7967 13.7819C30.6608 14.0749 30.5863 14.4145 30.5863 14.7901C30.5863 15.7022 31.0794 16.4484 32.3045 16.4484C33.5405 16.4484 34.4355 15.7856 34.4355 14.2742C34.4355 13.3627 33.839 12.651 32.715 12.651ZM32.3959 15.5619C32.0086 15.5679 31.7737 15.2417 31.7737 14.7534C31.7737 14.1749 32.1163 13.5212 32.667 13.5212C33.1112 13.5212 33.2633 13.8749 33.2633 14.2516C33.2633 15.0745 32.9274 15.5619 32.3959 15.5619Z" fill="#000066"/>
<path fill-rule="evenodd" clip-rule="evenodd" d="M15.6207 16.3886H14.5285L15.1776 12.9558L13.6833 16.3886H12.6877L12.5058 12.976L11.8546 16.3886H10.8638L11.7076 11.9233H13.4144L13.5565 14.4126L14.6378 11.9233H16.4815L15.6207 16.3886Z" fill="#000066"/>
<path fill-rule="evenodd" clip-rule="evenodd" d="M23.0271 16.0257C22.6524 16.1255 22.2897 16.1742 21.9066 16.1733C20.6837 16.1722 20.0469 15.613 20.0469 14.5439C20.0469 13.2947 20.8575 12.376 21.9579 12.376C22.8582 12.376 23.4329 12.8911 23.4329 13.6981C23.4329 13.9659 23.394 14.2263 23.2988 14.5958H21.1244C21.0469 15.1175 21.4264 15.3471 22.073 15.3471C22.4602 15.3471 22.8106 15.2773 23.1985 15.1204L23.0271 16.0257ZM22.4423 13.8591C22.4423 13.7802 22.5632 13.2197 21.9341 13.2075C21.5866 13.2075 21.3375 13.4394 21.2364 13.8591H22.4423Z" fill="white"/>
<path fill-rule="evenodd" clip-rule="evenodd" d="M23.7642 13.614C23.7642 14.0755 24.0228 14.3941 24.611 14.6317C25.061 14.8166 25.1315 14.8701 25.1315 15.0349C25.1315 15.2643 24.9328 15.3692 24.492 15.3666C24.1604 15.3641 23.858 15.3235 23.5015 15.2243L23.3433 16.0657C23.6607 16.1399 24.1056 16.1641 24.4994 16.1734C25.6737 16.1734 26.2161 15.7873 26.2161 14.9528C26.2161 14.4514 25.9898 14.1562 25.4322 13.9366C24.966 13.7497 24.9112 13.7089 24.9112 13.54C24.9112 13.3413 25.0962 13.2404 25.4561 13.2404C25.6745 13.2404 25.9732 13.2608 26.257 13.2954L26.4161 12.4491C26.1271 12.4083 25.6888 12.3765 25.4352 12.3765C24.1909 12.3765 23.7603 12.9384 23.7642 13.614Z" fill="white"/>
<path fill-rule="evenodd" clip-rule="evenodd" d="M19.4509 16.1129H18.5383L18.5604 15.7293C18.2821 16.0316 17.9117 16.1725 17.4088 16.1725C16.8138 16.1725 16.4058 15.7641 16.4058 15.1766C16.4058 14.2839 17.1146 13.7688 18.3331 13.7688C18.4583 13.7688 18.6175 13.7784 18.7814 13.7962C18.8152 13.6769 18.8243 13.6258 18.8243 13.5609C18.8243 13.3159 18.6326 13.2263 18.12 13.2263C17.6143 13.2283 17.2732 13.3036 16.9568 13.3891L17.1122 12.5697C17.6598 12.43 18.018 12.376 18.4238 12.376C19.3674 12.376 19.8656 12.7472 19.8656 13.4453C19.8738 13.6318 19.8089 14.005 19.7767 14.1692C19.7394 14.4071 19.478 15.7872 19.4509 16.1129ZM18.65 14.4838C18.5347 14.4718 18.4842 14.4687 18.4049 14.4687C17.783 14.4687 17.4674 14.6544 17.4674 15.0212C17.4674 15.2521 17.6216 15.3964 17.8612 15.3964C18.3085 15.3964 18.6313 15.0206 18.65 14.4838Z" fill="white"/>
<path fill-rule="evenodd" clip-rule="evenodd" d="M28.138 16.0552C27.8387 16.1376 27.6054 16.1735 27.3531 16.1735C26.7943 16.1735 26.4894 15.8867 26.4894 15.3761C26.4716 15.2358 26.6082 14.5878 26.6391 14.4073C26.6702 14.2262 27.1542 11.5864 27.1542 11.5864H28.2398L28.0758 12.4597H28.6326L28.4812 13.3511H27.922C27.922 13.3511 27.6149 14.8985 27.6149 15.0162C27.6149 15.2044 27.7282 15.2854 27.9881 15.2854C28.1124 15.2854 28.2083 15.2743 28.2829 15.2517L28.138 16.0552Z" fill="white"/>
<path fill-rule="evenodd" clip-rule="evenodd" d="M33.5378 13.9759C33.5378 14.7994 33.2014 15.2868 32.6699 15.2868C32.2827 15.2924 32.0479 14.9666 32.0479 14.4783C32.0479 13.8999 32.3905 13.246 32.941 13.246C33.3854 13.246 33.5378 13.5997 33.5378 13.9759ZM34.7098 13.999C34.7098 13.0876 34.1131 12.376 32.9894 12.376C31.6967 12.376 30.8606 13.2409 30.8606 14.5151C30.8606 15.427 31.3537 16.1733 32.5789 16.1733C33.8149 16.1733 34.7098 15.5105 34.7098 13.999Z" fill="white"/>
<path fill-rule="evenodd" clip-rule="evenodd" d="M29.1052 12.459C28.9672 13.5891 28.7229 14.7347 28.5321 15.8668L28.4861 16.1134H29.5826C29.9778 13.9267 30.1105 13.3039 30.9387 13.5231L31.3371 12.4885C30.7593 12.2757 30.3875 12.5797 30.051 13.0117C30.0814 12.8173 30.1385 12.6295 30.1248 12.459H29.1052Z" fill="white"/>
<path fill-rule="evenodd" clip-rule="evenodd" d="M15.8949 16.1134H14.803L15.4519 12.6806L13.9574 16.1134H12.9619L12.7798 12.7006L12.1287 16.1134H11.1379L11.9817 11.6479H13.6886L13.7787 14.4124L14.9802 11.6479H16.7557L15.8949 16.1134Z" fill="white"/>
</g>
<defs>
<clipPath id="clip0_104_4589">
<rect width="44" height="26.4" fill="white" transform="translate(0.733154 0.728027)"/>
</clipPath>
</defs>
</svg>
