<svg width="45" height="27" viewBox="0 0 45 27" fill="none" xmlns="http://www.w3.org/2000/svg">
<g clip-path="url(#clip0_104_4619)">
<rect x="0.733154" y="0.12793" width="44" height="26.4" rx="4" fill="#0069AA"/>
<path fill-rule="evenodd" clip-rule="evenodd" d="M9.3343 15.9603C9.3343 15.4294 9.05688 15.4643 8.7915 15.4587V15.3052C9.02161 15.3164 9.25755 15.3164 9.48827 15.3164C9.73613 15.3164 10.0727 15.3052 10.5099 15.3052C12.0389 15.3052 12.8718 16.3262 12.8718 17.3718C12.8718 17.9569 12.5293 19.4268 10.4389 19.4268C10.138 19.4268 9.86006 19.4151 9.58265 19.4151C9.31715 19.4151 9.05688 19.4206 8.7915 19.4268V19.2732C9.14542 19.2374 9.31715 19.2259 9.3343 18.8244V15.9603ZM9.91292 18.7296C9.91292 19.1845 10.238 19.2374 10.5272 19.2374C11.803 19.2374 12.2216 18.2751 12.2216 17.3954C12.2216 16.2912 11.5132 15.4943 10.3737 15.4943C10.1311 15.4943 10.0195 15.5115 9.91292 15.5179V18.7296Z" fill="white"/>
<path fill-rule="evenodd" clip-rule="evenodd" d="M13.0786 19.2731H13.1905C13.3558 19.2731 13.474 19.2731 13.474 19.0778V17.4778C13.474 17.2184 13.3856 17.1825 13.1668 17.0648V16.9705C13.4443 16.8871 13.7753 16.7757 13.7986 16.7579C13.8402 16.7342 13.8751 16.7279 13.9051 16.7279C13.9341 16.7279 13.9463 16.7634 13.9463 16.8111V19.0778C13.9463 19.2731 14.0764 19.2731 14.2419 19.2731H14.3419V19.4267C14.1411 19.4267 13.9341 19.4151 13.7222 19.4151C13.5096 19.4151 13.2969 19.4205 13.0786 19.4267V19.2731ZM13.7103 15.8189C13.5565 15.8189 13.421 15.6772 13.421 15.5237C13.421 15.3758 13.5629 15.2397 13.7103 15.2397C13.8636 15.2397 13.9998 15.3642 13.9998 15.5237C13.9998 15.6834 13.8695 15.8189 13.7103 15.8189Z" fill="white"/>
<path fill-rule="evenodd" clip-rule="evenodd" d="M14.9031 17.5135C14.9031 17.2954 14.8379 17.2364 14.5609 17.124V17.0119C14.8143 16.9293 15.0562 16.8522 15.34 16.728C15.3578 16.728 15.375 16.7398 15.375 16.787V17.171C15.7121 16.9293 16.0015 16.728 16.3977 16.728C16.8989 16.728 17.076 17.0942 17.076 17.5548V19.078C17.076 19.2733 17.2062 19.2733 17.3714 19.2733H17.4779V19.4269C17.2706 19.4269 17.0642 19.4152 16.8518 19.4152C16.6391 19.4152 16.4264 19.4207 16.2138 19.4269V19.2733H16.3203C16.4857 19.2733 16.6034 19.2733 16.6034 19.078V17.5493C16.6034 17.2123 16.3977 17.0472 16.0607 17.0472C15.8716 17.0472 15.5704 17.2004 15.375 17.3309V19.078C15.375 19.2733 15.5055 19.2733 15.6709 19.2733H15.7769V19.4269C15.5704 19.4269 15.3637 19.4152 15.1507 19.4152C14.9386 19.4152 14.7258 19.4207 14.5134 19.4269V19.2733H14.62C14.7851 19.2733 14.9031 19.2733 14.9031 19.078V17.5135Z" fill="white"/>
<path fill-rule="evenodd" clip-rule="evenodd" d="M17.9266 17.7973C17.9146 17.8505 17.9146 17.9389 17.9266 18.1398C17.9614 18.7006 18.3224 19.1609 18.7942 19.1609C19.1195 19.1609 19.3735 18.9837 19.5916 18.7657L19.674 18.8484C19.4023 19.2085 19.0659 19.5157 18.5821 19.5157C17.643 19.5157 17.4541 18.6058 17.4541 18.2282C17.4541 17.0708 18.2333 16.728 18.6462 16.728C19.125 16.728 19.6391 17.0292 19.6446 17.6553C19.6446 17.6911 19.6446 17.7262 19.6391 17.7617L19.5857 17.7973H17.9266ZM18.9722 17.6082C19.1195 17.6082 19.1368 17.5313 19.1368 17.4602C19.1368 17.1595 18.9539 16.9174 18.623 16.9174C18.2632 16.9174 18.0151 17.1826 17.9443 17.6082H18.9722Z" fill="white"/>
<path fill-rule="evenodd" clip-rule="evenodd" d="M19.7808 19.2733H19.9403C20.105 19.2733 20.2232 19.2733 20.2232 19.078V17.4191C20.2232 17.2364 20.0049 17.2004 19.9162 17.1532V17.0649C20.3473 16.8818 20.5836 16.728 20.6376 16.728C20.6721 16.728 20.6899 16.7458 20.6899 16.8051V17.3366H20.7023C20.8494 17.1064 21.0979 16.728 21.4579 16.728C21.6054 16.728 21.7942 16.8284 21.7942 17.0411C21.7942 17.2004 21.6825 17.3428 21.5173 17.3428C21.3336 17.3428 21.3336 17.2004 21.1267 17.2004C21.0265 17.2004 20.6958 17.3366 20.6958 17.6911V19.078C20.6958 19.2733 20.8138 19.2733 20.9792 19.2733H21.3095V19.4269C20.9848 19.4207 20.7377 19.4152 20.4835 19.4152C20.2413 19.4152 19.9932 19.4207 19.7808 19.4269V19.2733Z" fill="white"/>
<path fill-rule="evenodd" clip-rule="evenodd" d="M22.0538 18.6057C22.1308 18.9954 22.3665 19.3266 22.7984 19.3266C23.1462 19.3266 23.276 19.1137 23.276 18.9072C23.276 18.2101 21.9891 18.4347 21.9891 17.4841C21.9891 17.1531 22.255 16.728 22.9045 16.728C23.0932 16.728 23.347 16.7815 23.5771 16.8998L23.6186 17.5015H23.4828C23.4239 17.1297 23.2175 16.9173 22.8391 16.9173C22.6029 16.9173 22.3788 17.0529 22.3788 17.3068C22.3788 17.9981 23.7483 17.7852 23.7483 18.7123C23.7483 19.1017 23.4358 19.5156 22.7328 19.5156C22.4969 19.5156 22.2188 19.4327 22.0128 19.3147L21.9475 18.6355L22.0538 18.6057Z" fill="white"/>
<path fill-rule="evenodd" clip-rule="evenodd" d="M29.0803 16.3738H28.9331C28.8207 15.6836 28.3306 15.4057 27.6697 15.4057C26.9898 15.4057 26.0041 15.86 26.0041 17.2772C26.0041 18.4704 26.8547 19.3267 27.7638 19.3267C28.3478 19.3267 28.8331 18.925 28.9509 18.3046L29.0868 18.3399L28.9509 19.2023C28.703 19.356 28.0355 19.5157 27.6453 19.5157C26.2642 19.5157 25.3904 18.6239 25.3904 17.2954C25.3904 16.0846 26.471 15.2163 27.6283 15.2163C28.1064 15.2163 28.5669 15.3703 29.0216 15.5298L29.0803 16.3738Z" fill="white"/>
<path fill-rule="evenodd" clip-rule="evenodd" d="M29.2935 19.2732H29.4052C29.5711 19.2732 29.689 19.2732 29.689 19.0779V15.7897C29.689 15.4055 29.6006 15.3939 29.3759 15.3288V15.2342C29.612 15.1576 29.8602 15.0515 29.9845 14.9801C30.0486 14.9452 30.0963 14.915 30.1137 14.915C30.1498 14.915 30.1615 14.9509 30.1615 14.9983V19.0779C30.1615 19.2732 30.2915 19.2732 30.4566 19.2732H30.5566V19.4268C30.3564 19.4268 30.1498 19.4151 29.9371 19.4151C29.7246 19.4151 29.5123 19.4206 29.2935 19.4268V19.2732Z" fill="white"/>
<path fill-rule="evenodd" clip-rule="evenodd" d="M33.0848 19.1017C33.0848 19.2083 33.1493 19.2139 33.2494 19.2139C33.3207 19.2139 33.4089 19.2083 33.4862 19.2083V19.3326C33.2322 19.356 32.7478 19.48 32.6354 19.5155L32.6059 19.4975V19.0192C32.252 19.3084 31.9801 19.5155 31.5603 19.5155C31.2415 19.5155 30.911 19.3084 30.911 18.8131V17.3009C30.911 17.1472 30.8876 16.9996 30.5574 16.9705V16.858C30.7701 16.8522 31.2415 16.8169 31.3185 16.8169C31.384 16.8169 31.384 16.858 31.384 16.9881V18.5114C31.384 18.6888 31.384 19.196 31.8976 19.196C32.0981 19.196 32.3638 19.0429 32.6117 18.8365V17.2477C32.6117 17.1297 32.3284 17.0648 32.1162 17.006V16.8998C32.6471 16.8638 32.9781 16.8169 33.0371 16.8169C33.0848 16.8169 33.0848 16.858 33.0848 16.9232V19.1017Z" fill="white"/>
<path fill-rule="evenodd" clip-rule="evenodd" d="M34.2595 17.1531C34.4956 16.9528 34.8146 16.7279 35.1394 16.7279C35.8244 16.7279 36.2378 17.325 36.2378 17.9684C36.2378 18.7417 35.6707 19.5156 34.8259 19.5156C34.3894 19.5156 34.1591 19.3734 34.0052 19.3085L33.8286 19.4443L33.7048 19.3796C33.7576 19.0313 33.7874 18.6888 33.7874 18.3284V15.7897C33.7874 15.4055 33.6985 15.3939 33.4741 15.3288V15.2342C33.7106 15.1576 33.9583 15.0515 34.0822 14.9801C34.1474 14.9452 34.1945 14.915 34.2125 14.915C34.2476 14.915 34.2595 14.951 34.2595 14.9983V17.1531ZM34.2595 18.7593C34.2595 18.9836 34.4722 19.3618 34.8677 19.3618C35.4994 19.3618 35.765 18.7417 35.765 18.2159C35.765 17.5784 35.2813 17.047 34.8209 17.047C34.6015 17.047 34.4188 17.189 34.2595 17.3249V18.7593Z" fill="white"/>
<path fill-rule="evenodd" clip-rule="evenodd" d="M8.78491 22.8601H8.83003C8.94557 22.8601 9.06768 22.8443 9.06768 22.6771V20.9938C9.06768 20.8264 8.94557 20.8104 8.83003 20.8104H8.78491V20.7139C8.91018 20.7139 9.10295 20.7266 9.26081 20.7266C9.42135 20.7266 9.61388 20.7139 9.76493 20.7139V20.8104H9.71957C9.60451 20.8104 9.48216 20.8264 9.48216 20.9938V22.6771C9.48216 22.8443 9.60451 22.8601 9.71957 22.8601H9.76493V22.9567C9.61084 22.9567 9.41758 22.9443 9.25753 22.9443C9.09979 22.9443 8.91018 22.9567 8.78491 22.9567V22.8601Z" fill="white"/>
<path fill-rule="evenodd" clip-rule="evenodd" d="M9.765 22.9707C9.60957 22.9707 9.41729 22.9578 9.25736 22.9578C9.1001 22.9578 8.9111 22.9707 8.78498 22.9707H8.771V22.8466H8.82986C8.94649 22.8438 9.05255 22.8344 9.05352 22.6774V20.9942C9.05255 20.8369 8.94649 20.8267 8.82986 20.8246H8.771V20.7002H8.78498C8.9111 20.7002 9.10375 20.7127 9.26088 20.7127C9.42069 20.7127 9.6131 20.7002 9.765 20.7002H9.77935V20.8246H9.72025C9.60349 20.8267 9.49683 20.8369 9.49622 20.9942V22.6774C9.49683 22.8344 9.60349 22.8438 9.72025 22.8466H9.77935V22.9707H9.765ZM9.75108 22.9432L9.7512 22.8749H9.72018C9.60525 22.8749 9.46867 22.8547 9.46794 22.6774V20.9941C9.46867 20.8165 9.60525 20.7966 9.72018 20.7966H9.75108V20.728C9.60282 20.7282 9.41662 20.7411 9.26082 20.7411C9.10819 20.7411 8.92345 20.729 8.79903 20.728V20.7966H8.8298C8.94437 20.7966 9.08119 20.8165 9.08119 20.9941V22.6774C9.08119 22.8547 8.94437 22.8749 8.8298 22.8749H8.79903V22.9432C8.92345 22.9421 9.1049 22.9303 9.2573 22.9303C9.41382 22.9303 9.59954 22.9424 9.75108 22.9432Z" fill="white"/>
<path fill-rule="evenodd" clip-rule="evenodd" d="M11.9723 22.3234L11.9787 22.3171V21.1125C11.9787 20.8489 11.7953 20.8103 11.699 20.8103H11.6282V20.7139C11.7795 20.7139 11.9273 20.7266 12.0781 20.7266C12.2098 20.7266 12.3421 20.7139 12.4733 20.7139V20.8103H12.4256C12.2902 20.8103 12.1391 20.836 12.1391 21.2183V22.6802C12.1391 22.7929 12.1423 22.9052 12.1581 23.005H12.036L10.3816 21.1603V22.4844C10.3816 22.7641 10.436 22.8601 10.6833 22.8601H10.7381V22.9567C10.5999 22.9567 10.4619 22.9441 10.3237 22.9441C10.1795 22.9441 10.0314 22.9567 9.88672 22.9567V22.8601H9.93184C10.1534 22.8601 10.2209 22.7091 10.2209 22.4528V21.099C10.2209 20.9193 10.0727 20.8103 9.92868 20.8103H9.88672V20.7139C10.0086 20.7139 10.1341 20.7266 10.256 20.7266C10.3526 20.7266 10.4458 20.7139 10.5421 20.7139L11.9723 22.3234Z" fill="white"/>
<path fill-rule="evenodd" clip-rule="evenodd" d="M12.1579 23.0188L12.0256 23.0143L10.395 21.1969V22.4847C10.3989 22.7641 10.4414 22.8435 10.6833 22.8466H10.7521V22.9707H10.7379C10.5989 22.9707 10.4606 22.9578 10.3235 22.9578C10.1796 22.9578 10.032 22.9707 9.88642 22.9707H9.87231V22.8466H9.93167C10.144 22.8453 10.2047 22.7089 10.207 22.453V21.0998C10.2064 20.9287 10.0661 20.8246 9.92862 20.8246H9.87231V20.7002H9.88642C10.0093 20.7002 10.135 20.7127 10.2555 20.7127C10.3514 20.7127 10.4442 20.7002 10.5525 20.7052L11.9646 22.2946V21.1129C11.963 20.8577 11.7925 20.8267 11.6989 20.8246H11.6139V20.7002H11.6282C11.7799 20.7002 11.9278 20.7127 12.0779 20.7127C12.2086 20.7127 12.3404 20.7002 12.4732 20.7002H12.4873V20.8246H12.4254C12.2927 20.828 12.1566 20.8397 12.1527 21.2187V22.6805C12.1527 22.793 12.1562 22.9052 12.1717 23.0027L12.1746 23.0188H12.1579ZM12.036 22.9908H12.1422C12.1279 22.8941 12.1253 22.7874 12.1253 22.6805V21.2187C12.1253 20.833 12.287 20.7966 12.4254 20.7964H12.4592V20.728C12.3326 20.729 12.2057 20.7407 12.0779 20.7407C11.9307 20.7407 11.7877 20.729 11.6425 20.728L11.6421 20.7964H11.6989C11.7977 20.7966 11.9924 20.8405 11.9924 21.1128L11.9882 22.3275L11.9818 22.3337L11.9709 22.344L10.542 20.728C10.4465 20.728 10.3536 20.7407 10.2555 20.7407C10.1378 20.7407 10.0172 20.729 9.90066 20.728L9.90005 20.7964H9.92863C10.0793 20.7966 10.2344 20.9117 10.2344 21.0998V22.453C10.2344 22.7101 10.1627 22.8743 9.93167 22.8751L9.90066 22.8743V22.9432C10.0398 22.9421 10.1832 22.9303 10.3235 22.9303C10.4576 22.9303 10.5913 22.9421 10.7239 22.9432V22.8751H10.6833C10.4304 22.8743 10.3678 22.7641 10.3676 22.4847V21.1246L12.036 22.9908ZM11.9722 22.3237L11.9823 22.3145L11.9722 22.3237ZM11.9645 22.3174V22.3161L11.962 22.3141L11.9645 22.3174Z" fill="white"/>
<path fill-rule="evenodd" clip-rule="evenodd" d="M12.9548 20.8745C12.7135 20.8745 12.7042 20.9327 12.656 21.1669H12.5596C12.5722 21.0769 12.5882 20.987 12.5981 20.8939C12.611 20.8035 12.6175 20.7139 12.6175 20.6209H12.6944C12.7204 20.7174 12.8006 20.7139 12.8878 20.7139H14.545C14.6322 20.7139 14.7124 20.7107 14.7189 20.6143L14.7957 20.6274C14.7833 20.7139 14.7701 20.8007 14.7608 20.8877C14.7545 20.9744 14.7545 21.0608 14.7545 21.1476L14.6579 21.1833C14.6513 21.0646 14.6354 20.8745 14.4201 20.8745H13.8931V22.5839C13.8931 22.8318 14.0058 22.8601 14.1597 22.8601H14.221V22.9567C14.0956 22.9567 13.8706 22.9443 13.6975 22.9443C13.5044 22.9443 13.2793 22.9567 13.1539 22.9567V22.8601H13.2152C13.3923 22.8601 13.4818 22.8443 13.4818 22.5906V20.8745H12.9548Z" fill="white"/>
<path fill-rule="evenodd" clip-rule="evenodd" d="M14.2212 22.9706C14.0946 22.9706 13.8699 22.9578 13.6974 22.9578C13.5046 22.9578 13.2799 22.9706 13.1539 22.9706H13.1401V22.8464H13.2152C13.3922 22.8423 13.4634 22.84 13.4674 22.5908V20.8885H12.9548V20.8604H13.4953V22.5908C13.4953 22.8487 13.3913 22.8748 13.2152 22.875H13.1676V22.9429C13.2943 22.942 13.5108 22.9302 13.6974 22.9302C13.8646 22.9302 14.0793 22.942 14.2066 22.9429V22.875H14.1597C14.0042 22.8748 13.8792 22.8366 13.8792 22.5841V20.8604H14.4201C14.6356 20.8612 14.6642 21.0444 14.6708 21.1639L14.7404 21.1383C14.7404 21.0543 14.7408 20.9703 14.7465 20.8859C14.756 20.8028 14.7677 20.7212 14.7797 20.6389L14.7309 20.6307C14.716 20.7243 14.6254 20.7293 14.5448 20.728H12.871C12.7953 20.7282 12.713 20.7245 12.6841 20.6349H12.631C12.6305 20.7237 12.6245 20.8099 12.6123 20.8955C12.6027 20.9838 12.588 21.0686 12.5763 21.1537H12.6449C12.6871 20.9296 12.7146 20.8572 12.9548 20.8604V20.8885C12.7168 20.8932 12.722 20.933 12.6696 21.1704L12.6673 21.1813H12.5435L12.5452 21.1647C12.5583 21.075 12.5746 20.9848 12.584 20.8915C12.5973 20.8023 12.6034 20.7132 12.6034 20.6211V20.6069H12.7055L12.7079 20.617C12.7295 20.698 12.789 20.6986 12.871 20.7001H14.5448C14.6344 20.6986 14.6995 20.6974 14.705 20.6133L14.7061 20.5981L14.7207 20.6011L14.8116 20.6154L14.8092 20.6296C14.7965 20.7159 14.784 20.8023 14.7742 20.8885C14.7683 20.9746 14.7683 21.0609 14.7683 21.1477V21.1575L14.7589 21.1612L14.6452 21.2028L14.6445 21.1842C14.6356 21.0633 14.6232 20.8885 14.4201 20.8885H13.9072V22.5841C13.9104 22.8264 14.0064 22.8434 14.1597 22.8464H14.2348V22.9706H14.2212Z" fill="white"/>
<path fill-rule="evenodd" clip-rule="evenodd" d="M14.8982 22.8601H14.9434C15.0587 22.8601 15.1812 22.8443 15.1812 22.6771V20.9938C15.1812 20.8264 15.0587 20.8104 14.9434 20.8104H14.8982V20.7139C15.0935 20.7139 15.4285 20.7266 15.6978 20.7266C15.9682 20.7266 16.3019 20.7139 16.5204 20.7139C16.5148 20.852 16.5178 21.0646 16.5273 21.2057L16.4305 21.2312C16.415 21.0223 16.3765 20.8557 16.039 20.8557H15.5929V21.6969H15.9745C16.1673 21.6969 16.2093 21.5881 16.2284 21.4144H16.3247C16.3182 21.5399 16.3148 21.6652 16.3148 21.7903C16.3148 21.9127 16.3182 22.0347 16.3247 22.1565L16.2284 22.1757C16.2093 21.9832 16.1997 21.858 15.9777 21.858H15.5929V22.6062C15.5929 22.8153 15.7785 22.8153 15.9843 22.8153C16.3699 22.8153 16.5401 22.7894 16.6365 22.4236L16.7262 22.4457C16.6844 22.6164 16.6461 22.7862 16.6173 22.9567C16.4114 22.9567 16.0419 22.9443 15.7533 22.9443C15.4635 22.9443 15.0815 22.9567 14.8982 22.9567V22.8601Z" fill="white"/>
<path fill-rule="evenodd" clip-rule="evenodd" d="M16.6173 22.9707C16.4111 22.9707 16.0414 22.9573 15.7531 22.9573C15.4637 22.9573 15.0818 22.9707 14.8983 22.9707H14.8848V22.8466H14.9435C15.0598 22.8446 15.1656 22.8344 15.167 22.6774V20.9942C15.1656 20.8371 15.0598 20.8267 14.9435 20.8246H14.8848V20.7002H14.8983C15.0946 20.7002 15.4288 20.7127 15.698 20.7127C15.9682 20.7127 16.3018 20.7002 16.5206 20.7002H16.5348L16.5343 20.715C16.5322 20.7631 16.5309 20.8202 16.5309 20.8807C16.5309 20.9917 16.5343 21.1135 16.5406 21.2049L16.5412 21.2164L16.5304 21.2196L16.4174 21.2492L16.4169 21.2326C16.398 21.0242 16.37 20.8725 16.0392 20.8694H15.6061L15.6059 21.6831H15.9746C16.1598 21.6812 16.1929 21.5866 16.2148 21.4133L16.2155 21.4004H16.3391L16.3389 21.4151C16.3327 21.5406 16.3289 21.6655 16.3289 21.7906C16.3289 21.9121 16.3327 22.0341 16.3389 22.1562L16.3391 22.1679L16.3274 22.1706L16.2155 22.1928L16.2148 22.1778C16.1926 21.9816 16.1911 21.8741 15.9779 21.8718H15.6061V22.6065C15.6066 22.8018 15.7749 22.8007 15.9843 22.8018C16.3712 22.7995 16.5262 22.7805 16.623 22.4202L16.6263 22.4071L16.6397 22.4093L16.7428 22.4361L16.7398 22.4493C16.6981 22.6194 16.6598 22.7893 16.6308 22.9593L16.6283 22.9707H16.6173ZM16.6054 22.943C16.6335 22.7805 16.6701 22.6183 16.7095 22.4565L16.6462 22.4406C16.55 22.8 16.3636 22.8321 15.9844 22.8296C15.7819 22.8296 15.5795 22.8296 15.5784 22.6065V21.8443H15.9779C16.2023 21.842 16.2249 21.9772 16.241 22.16L16.3103 22.1458C16.3041 22.0273 16.301 21.9084 16.301 21.7906C16.301 21.67 16.3041 21.5496 16.3103 21.4283H16.241C16.2229 21.5962 16.1705 21.7133 15.9747 21.7112H15.5784V20.8415H16.0392C16.3733 20.8388 16.4287 21.0118 16.4433 21.2139L16.5125 21.1951C16.5069 21.1045 16.5031 20.9879 16.5031 20.8807C16.5031 20.8257 16.5046 20.7735 16.5064 20.728C16.2881 20.729 15.9622 20.7407 15.6981 20.7407C15.434 20.7407 15.1091 20.729 14.9124 20.728V20.7964H14.9436C15.0579 20.7966 15.1946 20.8165 15.1953 20.9941V22.6774C15.1946 22.8547 15.0579 22.8743 14.9436 22.8751H14.9124V22.943C15.0995 22.9424 15.4709 22.9303 15.7532 22.9303C16.0368 22.9303 16.3983 22.9424 16.6054 22.943Z" fill="white"/>
<path fill-rule="evenodd" clip-rule="evenodd" d="M17.1602 21.0542C17.1602 20.8199 17.0315 20.8103 16.9318 20.8103H16.8738V20.7139C16.9767 20.7139 17.1759 20.7266 17.3721 20.7266C17.5645 20.7266 17.7189 20.7139 17.8892 20.7139C18.2935 20.7139 18.6541 20.823 18.6541 21.2795C18.6541 21.5685 18.4612 21.745 18.2075 21.8452L18.7566 22.6672C18.8468 22.8032 18.9106 22.8413 19.0684 22.8601V22.9567C18.9621 22.9567 18.8594 22.9443 18.7537 22.9443C18.6541 22.9443 18.5508 22.9567 18.4517 22.9567C18.2041 22.6323 17.9918 22.2854 17.7831 21.9154H17.5714V22.6034C17.5714 22.8507 17.6868 22.8601 17.8341 22.8601H17.8924V22.9567C17.7088 22.9567 17.5232 22.9443 17.3397 22.9443C17.1855 22.9443 17.0344 22.9567 16.8738 22.9567V22.8601H16.9318C17.0511 22.8601 17.1602 22.8057 17.1602 22.687V21.0542ZM17.5714 21.7995H17.7284C18.0501 21.7995 18.2233 21.6777 18.2233 21.2984C18.2233 21.0127 18.0401 20.8295 17.7538 20.8295C17.6574 20.8295 17.6162 20.8394 17.5714 20.8426V21.7995Z" fill="white"/>
<path fill-rule="evenodd" clip-rule="evenodd" d="M19.0685 22.9707C18.9607 22.9707 18.8586 22.9578 18.7529 22.9578C18.655 22.9578 18.5522 22.9707 18.4403 22.9654C18.1938 22.6419 17.9825 22.297 17.7751 21.9301H17.5852V22.6031C17.5887 22.845 17.6857 22.8431 17.8342 22.8466H17.9063V22.9707H17.8921C17.7084 22.9707 17.5217 22.9578 17.3397 22.9578C17.1862 22.9578 17.0352 22.9707 16.8738 22.9707H16.8599V22.8466H16.9319C17.0474 22.8457 17.1451 22.7954 17.1456 22.6874V21.0545C17.1431 20.8267 17.0316 20.8278 16.9319 20.8246H16.8599V20.7002H16.8738C16.9778 20.7002 17.1762 20.7127 17.3721 20.7127C17.5639 20.7127 17.718 20.7002 17.8893 20.7002C18.2944 20.701 18.6671 20.8126 18.6681 21.2794C18.6681 21.5693 18.4764 21.7505 18.2287 21.8516L18.7682 22.6599C18.8581 22.7932 18.914 22.8265 19.0703 22.8466L19.082 22.8484V22.9707H19.0685ZM17.5713 21.9018H17.7909L17.7949 21.909C18.0041 22.2781 18.2152 22.6251 18.4518 22.9432C18.5495 22.9432 18.6528 22.9303 18.7529 22.9303C18.8554 22.9303 18.9547 22.9415 19.0544 22.943V22.8725C18.9038 22.8541 18.833 22.8086 18.7454 22.6754L18.186 21.839L18.2018 21.8326C18.4535 21.7335 18.6399 21.5619 18.64 21.2793C18.6399 20.8336 18.2932 20.7302 17.8893 20.728C17.7201 20.728 17.5656 20.7411 17.3721 20.7411C17.1834 20.7411 16.9927 20.729 16.8876 20.728V20.7964H16.9319C17.0316 20.7966 17.1735 20.8132 17.1735 21.0545V22.6873C17.1735 22.8163 17.0528 22.8749 16.9319 22.8751H16.8876V22.943C17.0421 22.9424 17.1887 22.9303 17.3397 22.9303C17.5191 22.9303 17.7005 22.9424 17.8782 22.943V22.8751H17.8342C17.6879 22.8749 17.5571 22.8568 17.5571 22.6031V21.9018H17.5713ZM17.5714 21.8136H17.5572V20.8298L17.5694 20.8288C17.6135 20.8253 17.6568 20.8164 17.7539 20.8164C18.0466 20.8164 18.2371 21.0065 18.2374 21.2995C18.2365 21.6831 18.0526 21.8135 17.7285 21.8136H17.5714ZM17.7285 21.7863C18.0465 21.7831 18.2068 21.6728 18.21 21.2995C18.208 21.0188 18.0337 20.8447 17.7539 20.8434C17.6672 20.8434 17.6262 20.8515 17.5852 20.8555V21.7863H17.7285Z" fill="white"/>
<path fill-rule="evenodd" clip-rule="evenodd" d="M21.2496 22.3234L21.2552 22.3171V21.1125C21.2552 20.8489 21.0727 20.8103 20.9762 20.8103H20.9058V20.7139C21.0568 20.7139 21.2041 20.7266 21.3555 20.7266C21.4876 20.7266 21.6184 20.7139 21.7511 20.7139V20.8103H21.7026C21.5676 20.8103 21.4167 20.836 21.4167 21.2183V22.6802C21.4167 22.7929 21.4199 22.9052 21.4357 23.005H21.3141L19.6595 21.1603V22.4844C19.6595 22.7641 19.7138 22.8601 19.9612 22.8601H20.0159V22.9567C19.8779 22.9567 19.7394 22.9441 19.6014 22.9441C19.4563 22.9441 19.3088 22.9567 19.1643 22.9567V22.8601H19.2089C19.4308 22.8601 19.4986 22.7091 19.4986 22.4528V21.099C19.4986 20.9193 19.3506 20.8103 19.2061 20.8103H19.1643V20.7139C19.2859 20.7139 19.4122 20.7266 19.534 20.7266C19.6295 20.7266 19.7232 20.7139 19.8197 20.7139L21.2496 22.3234Z" fill="white"/>
<path fill-rule="evenodd" clip-rule="evenodd" d="M21.4356 23.0188L21.3037 23.0143L19.6729 21.1971V22.4846C19.6766 22.7645 19.719 22.8435 19.9612 22.8466H20.0293V22.9707H20.0154C19.8765 22.9707 19.7385 22.9574 19.6009 22.9574C19.4575 22.9574 19.309 22.9707 19.1643 22.9707H19.1499V22.8466H19.209C19.4212 22.8457 19.482 22.7089 19.4841 22.4523V21.0994C19.4838 20.9281 19.3436 20.8246 19.2062 20.8246H19.1499V20.7002H19.1643C19.287 20.7002 19.4127 20.7127 19.534 20.7127C19.6284 20.7127 19.7214 20.7002 19.8292 20.7043L21.2417 22.2946V21.1129C21.2408 20.8577 21.0697 20.8261 20.9763 20.8246H20.8915V20.7002H20.9055C21.0573 20.7002 21.2054 20.7127 21.3556 20.7127C21.4865 20.7127 21.6181 20.7002 21.7505 20.7002H21.7647V20.8246H21.7027C21.5702 20.8278 21.4336 20.8397 21.4304 21.2187V22.6805C21.4304 22.793 21.4332 22.9044 21.4496 23.003L21.4512 23.0188H21.4356ZM21.314 22.9908H21.4193C21.4052 22.8947 21.4024 22.7874 21.4024 22.6805V21.2187C21.4026 20.833 21.5651 20.7972 21.7027 20.7964H21.7365V20.728C21.61 20.729 21.483 20.7407 21.3556 20.7407C21.2079 20.7407 21.0648 20.729 20.9194 20.728V20.7964H20.9762C21.0752 20.7972 21.2698 20.8405 21.2698 21.1128L21.2652 22.3275L21.2593 22.3337L21.2493 22.3443L19.8197 20.728C19.7241 20.728 19.631 20.7407 19.5339 20.7407C19.4147 20.7407 19.2947 20.729 19.1779 20.728V20.7964H19.2062C19.3573 20.7972 19.5119 20.9112 19.5119 21.0993V22.4523C19.5119 22.7101 19.4393 22.8743 19.2089 22.8751L19.1779 22.8749V22.9431C19.3167 22.9421 19.4599 22.9303 19.6008 22.9303C19.7356 22.9303 19.8691 22.9421 20.0019 22.9431V22.8751H19.9612C19.7083 22.8749 19.6453 22.7645 19.6446 22.4846V21.1251L21.314 22.9908ZM21.2493 22.3237L21.2598 22.3145L21.2493 22.3237ZM21.2417 22.3174V22.3165L21.2394 22.3141L21.2417 22.3174Z" fill="white"/>
<path fill-rule="evenodd" clip-rule="evenodd" d="M22.2677 22.4973C22.2353 22.6061 22.1965 22.6905 22.1965 22.7476C22.1965 22.8442 22.3319 22.8602 22.4376 22.8602H22.4735V22.9566C22.3444 22.9497 22.2133 22.9442 22.084 22.9442C21.9684 22.9442 21.8533 22.9497 21.7373 22.9566V22.8602H21.7569C21.8819 22.8602 21.9883 22.7861 22.036 22.6511L22.5501 21.1768C22.5921 21.0576 22.6499 20.8971 22.6695 20.7779C22.7717 20.7428 22.9007 20.6789 22.9615 20.6399C22.9715 20.6366 22.9775 20.6333 22.9872 20.6333C22.9969 20.6333 23.0029 20.6333 23.0099 20.6434C23.0194 20.6688 23.0288 20.6978 23.0388 20.7234L23.6302 22.4041C23.6688 22.5162 23.7069 22.6351 23.7481 22.732C23.7872 22.8221 23.8547 22.8602 23.9611 22.8602H23.9804V22.9566C23.8356 22.9497 23.6907 22.9442 23.5372 22.9442C23.3797 22.9442 23.2185 22.9497 23.0547 22.9566V22.8602H23.0901C23.1635 22.8602 23.2897 22.8474 23.2897 22.767C23.2897 22.7255 23.2606 22.6387 23.2247 22.5354L23.0996 22.1629H22.3703L22.2677 22.4973ZM22.7367 21.0738H22.7301L22.4315 21.9832H23.0318L22.7367 21.0738Z" fill="white"/>
<path fill-rule="evenodd" clip-rule="evenodd" d="M23.9793 22.9705C23.835 22.9643 23.6901 22.9571 23.5371 22.9571C23.3796 22.9571 23.2193 22.9643 23.0554 22.9705L23.0405 22.9712V22.8457H23.09C23.1645 22.8457 23.2749 22.8291 23.2751 22.7671C23.2759 22.7305 23.2471 22.6425 23.2117 22.5403L23.0893 22.1768H22.3806L22.2807 22.5015C22.2483 22.6107 22.2093 22.6956 22.2099 22.7479C22.211 22.8264 22.3309 22.8457 22.4375 22.8457H22.4869V22.9712L22.4723 22.9705C22.3439 22.9643 22.2128 22.9571 22.0842 22.9571C21.9695 22.9571 21.8534 22.9643 21.7383 22.9705L21.7234 22.9712V22.8457H21.7567C21.8761 22.8455 21.9759 22.7772 22.0223 22.6467L22.5369 21.172C22.5784 21.053 22.6368 20.8932 22.6645 20.7648C22.7653 20.7306 22.8946 20.6658 22.9563 20.627C22.9653 20.6238 22.9741 20.6197 22.987 20.6197C22.9949 20.6192 23.0122 20.6213 23.0227 20.6381C23.0318 20.6644 23.042 20.6933 23.0517 20.7192L23.6433 22.3996C23.6811 22.5121 23.7195 22.6308 23.7616 22.726C23.7988 22.8117 23.8578 22.8455 23.9611 22.8457H23.9936V22.9712L23.9793 22.9705ZM23.0687 22.9419C23.2277 22.9363 23.3837 22.9301 23.5372 22.9301C23.6862 22.9301 23.8263 22.9363 23.9659 22.9419V22.8746H23.9612C23.851 22.8754 23.7752 22.8321 23.7358 22.7373C23.694 22.6403 23.6549 22.521 23.617 22.4085L23.0254 20.7279C23.0157 20.7022 23.0066 20.6735 22.9982 20.6507C22.995 20.6475 22.9957 20.6475 22.9932 20.6475H22.9871C22.9807 20.6475 22.9768 20.6495 22.9685 20.6515C22.9067 20.6917 22.7779 20.755 22.6823 20.7801C22.6627 20.9018 22.6048 21.0624 22.5631 21.1814L22.049 22.6558C22.0002 22.7955 21.8872 22.8749 21.7568 22.8746H21.7514V22.9419C21.8616 22.9363 21.9728 22.9301 22.0843 22.9301C22.2086 22.9301 22.3353 22.9363 22.4583 22.9419V22.8746H22.4376C22.3327 22.8732 22.1865 22.8617 22.1828 22.7479C22.1831 22.6842 22.2225 22.602 22.254 22.4934L22.2676 22.4974L22.254 22.493L22.3598 22.1497H23.109L23.2376 22.5312C23.2738 22.6346 23.3029 22.7202 23.3029 22.7671C23.2982 22.8655 23.163 22.8728 23.0901 22.8746H23.0687V22.9419ZM22.4118 21.9972L22.7194 21.0597H22.7367V21.0739L22.7333 21.0749L22.7367 21.0739V21.0597H22.7463L23.0517 21.9972H22.4118ZM22.4503 21.9691H23.0128L22.7332 21.1081L22.4503 21.9691ZM22.7227 21.0781L22.7302 21.0758L22.7227 21.0781Z" fill="white"/>
<path fill-rule="evenodd" clip-rule="evenodd" d="M24.1215 20.8745C23.8805 20.8745 23.8708 20.9327 23.8224 21.1669H23.7258C23.7385 21.0769 23.7549 20.987 23.7649 20.8939C23.7774 20.8035 23.7836 20.7139 23.7836 20.6209H23.8613C23.8865 20.7174 23.967 20.7139 24.0537 20.7139H25.7119C25.7982 20.7139 25.8785 20.7107 25.8848 20.6143L25.9617 20.6274C25.9498 20.7139 25.937 20.8007 25.9269 20.8877C25.9199 20.9744 25.9199 21.0608 25.9199 21.1476L25.8239 21.1833C25.8182 21.0646 25.802 20.8745 25.5863 20.8745H25.0594V22.5839C25.0594 22.8318 25.172 22.8601 25.326 22.8601H25.3874V22.9567C25.2619 22.9567 25.0374 22.9443 24.8635 22.9443C24.6711 22.9443 24.4456 22.9567 24.3203 22.9567V22.8601H24.3815C24.5586 22.8601 24.6482 22.8443 24.6482 22.5906V20.8745H24.1215Z" fill="white"/>
<path fill-rule="evenodd" clip-rule="evenodd" d="M25.3875 22.9706C25.2612 22.9706 25.036 22.9578 24.8633 22.9578C24.6714 22.9578 24.4464 22.9706 24.3205 22.9706H24.3063V22.8464H24.3815C24.5588 22.8423 24.6298 22.84 24.634 22.5908L24.6338 20.8885H24.1215V20.8604H24.6621V22.5908C24.6621 22.8487 24.558 22.8742 24.3815 22.8748H24.3342V22.9431C24.4612 22.942 24.6771 22.9302 24.8633 22.9302C25.0312 22.9302 25.2463 22.942 25.3731 22.9431V22.8748H25.3259C25.1711 22.8742 25.046 22.8369 25.0457 22.5841V20.8604H25.5863C25.8022 20.8612 25.8303 21.0444 25.8365 21.1639L25.9063 21.1383C25.9063 21.0543 25.9068 20.9703 25.9134 20.8863C25.922 20.8034 25.9342 20.7212 25.9458 20.6393L25.8973 20.6307C25.8826 20.7243 25.7919 20.7295 25.712 20.728H24.0374C23.9616 20.7289 23.8796 20.7245 23.8504 20.6346H23.7979C23.7972 20.7235 23.7908 20.8099 23.7782 20.8955C23.7694 20.9842 23.754 21.0692 23.7417 21.1537H23.8108C23.853 20.9296 23.8808 20.8568 24.1215 20.8604V20.8885C23.8833 20.8926 23.8885 20.933 23.8361 21.1704L23.8338 21.1813H23.7097L23.7117 21.1654C23.7252 21.075 23.741 20.9848 23.7503 20.8922C23.7635 20.8023 23.7694 20.7132 23.7694 20.6211V20.6069H23.8715L23.8741 20.617C23.8966 20.698 23.9551 20.6986 24.0374 20.7001H25.712C25.8009 20.6986 25.8657 20.6974 25.8714 20.6136L25.8719 20.5981L25.8868 20.6011L25.9781 20.6154L25.9759 20.6296C25.9626 20.7159 25.9505 20.8023 25.9407 20.8885C25.9342 20.9746 25.9342 21.061 25.9342 21.1477V21.1575L25.9248 21.1612L25.8111 21.2028L25.8106 21.1842C25.8022 21.0633 25.7894 20.8885 25.5863 20.8885H25.0733V22.5841C25.0766 22.8264 25.1728 22.8434 25.3259 22.8464H25.4009V22.9706H25.3875Z" fill="white"/>
<path fill-rule="evenodd" clip-rule="evenodd" d="M26.0808 22.8601H26.1258C26.2416 22.8601 26.3632 22.8443 26.3632 22.6771V20.9938C26.3632 20.8264 26.2416 20.8104 26.1258 20.8104H26.0808V20.7139C26.2062 20.7139 26.3986 20.7266 26.5559 20.7266C26.7169 20.7266 26.9098 20.7139 27.0611 20.7139V20.8104H27.0159C26.8998 20.8104 26.7777 20.8264 26.7777 20.9938V22.6771C26.7777 22.8443 26.8998 22.8601 27.0159 22.8601H27.0611V22.9567C26.9067 22.9567 26.7137 22.9443 26.5533 22.9443C26.3956 22.9443 26.2062 22.9567 26.0808 22.9567V22.8601Z" fill="white"/>
<path fill-rule="evenodd" clip-rule="evenodd" d="M27.0611 22.9707C26.9058 22.9707 26.7137 22.9573 26.5534 22.9573C26.3961 22.9573 26.2064 22.9707 26.0809 22.9707H26.0671V22.8466H26.126C26.2418 22.8446 26.3486 22.8344 26.3493 22.6774V20.9942C26.3486 20.8371 26.2418 20.8267 26.126 20.8246H26.0671V20.7002H26.0809C26.2064 20.7002 26.3997 20.7127 26.5559 20.7127C26.7161 20.7127 26.9089 20.7002 27.0611 20.7002H27.0745V20.8246H27.0161C26.8985 20.8267 26.7929 20.8371 26.7918 20.9942V22.6774C26.7929 22.8344 26.8985 22.8446 27.0161 22.8466H27.0745V22.9707H27.0611ZM27.0466 22.943V22.8749H27.0162C26.9009 22.8749 26.7645 22.8547 26.7645 22.6774V20.9941C26.7645 20.8165 26.9009 20.7966 27.0162 20.7964H27.0466V20.728C26.8984 20.729 26.7123 20.7407 26.5559 20.7407C26.4034 20.7407 26.2195 20.729 26.0949 20.728V20.7964H26.126C26.2401 20.7966 26.377 20.8165 26.3774 20.9941V22.6774C26.377 22.8547 26.2401 22.8749 26.126 22.8749H26.0949V22.943C26.2187 22.9415 26.4004 22.9303 26.5534 22.9303C26.7092 22.9303 26.895 22.9421 27.0466 22.943Z" fill="white"/>
<path fill-rule="evenodd" clip-rule="evenodd" d="M28.3422 20.666C29.0271 20.666 29.5731 21.0906 29.5731 21.775C29.5731 22.514 29.0428 23.0053 28.3587 23.0053C27.6773 23.0053 27.157 22.5425 27.157 21.8516C27.157 21.1836 27.6741 20.666 28.3422 20.666ZM28.3907 22.8638C29.0142 22.8638 29.1229 22.314 29.1229 21.8455C29.1229 21.3759 28.8697 20.8075 28.3361 20.8075C27.7739 20.8075 27.6067 21.3088 27.6067 21.739C27.6067 22.314 27.8704 22.8638 28.3907 22.8638Z" fill="white"/>
<path fill-rule="evenodd" clip-rule="evenodd" d="M27.1426 21.8514C27.1439 21.1757 27.667 20.653 28.342 20.6519V20.6799C27.6815 20.6799 27.1706 21.1905 27.1698 21.8514C27.1712 22.5345 27.6839 22.9904 28.3588 22.9906C29.036 22.9904 29.5586 22.5062 29.5594 21.7743C29.5588 21.0984 29.0215 20.6806 28.342 20.6799V20.6519C29.0318 20.6526 29.5856 21.0813 29.5868 21.7743C29.5861 22.521 29.0495 23.0174 28.3588 23.0186C27.6715 23.0174 27.1439 22.55 27.1426 21.8514ZM27.5926 21.7387C27.5936 21.3064 27.7623 20.7929 28.336 20.7929C28.8816 20.7941 29.136 21.3732 29.1371 21.8453C29.136 22.3138 29.0258 22.8768 28.3908 22.8768V22.8495C29.0017 22.849 29.1079 22.3138 29.1089 21.8453C29.1089 21.3798 28.8582 20.8221 28.336 20.8212C27.7848 20.8218 27.6219 21.3108 27.6205 21.7387C27.6207 22.3111 27.882 22.8487 28.3908 22.8495V22.8768C27.8575 22.8763 27.5936 22.3172 27.5926 21.7387Z" fill="white"/>
<path fill-rule="evenodd" clip-rule="evenodd" d="M31.7381 22.3234L31.7448 22.3171V21.1125C31.7448 20.8489 31.5611 20.8103 31.4647 20.8103H31.3948V20.7139C31.5454 20.7139 31.6935 20.7266 31.8441 20.7266C31.9762 20.7266 32.1079 20.7139 32.2397 20.7139V20.8103H32.1914C32.0568 20.8103 31.9051 20.836 31.9051 21.2183V22.6802C31.9051 22.7929 31.9085 22.9052 31.9248 23.005H31.8026L30.1476 21.1603V22.4844C30.1476 22.7641 30.2024 22.8601 30.4493 22.8601H30.5044V22.9567C30.3661 22.9567 30.2282 22.9441 30.0901 22.9441C29.9453 22.9441 29.7974 22.9567 29.6528 22.9567V22.8601H29.698C29.92 22.8601 29.987 22.7091 29.987 22.4528V21.099C29.987 20.9193 29.8398 20.8103 29.6944 20.8103H29.6528V20.7139C29.7749 20.7139 29.9001 20.7266 30.0224 20.7266C30.1186 20.7266 30.2113 20.7139 30.3081 20.7139L31.7381 22.3234Z" fill="white"/>
<path fill-rule="evenodd" clip-rule="evenodd" d="M31.925 23.0188L31.7921 23.0143L30.1615 21.1971V22.4847C30.1653 22.7645 30.2077 22.8431 30.449 22.8459H30.5182V22.9707H30.5046C30.3655 22.9707 30.2276 22.9578 30.0901 22.9578C29.9461 22.9578 29.7982 22.9707 29.6525 22.9707H29.6394V22.8459H29.6979C29.9096 22.8453 29.9707 22.7089 29.9733 22.453V21.0994C29.9731 20.9281 29.8327 20.8246 29.6946 20.8246H29.6394V20.7002H29.6525C29.7757 20.7002 29.901 20.7127 30.0224 20.7127C30.1177 20.7127 30.21 20.7002 30.319 20.7052L31.7308 22.2946V21.1129C31.7297 20.8577 31.5586 20.8267 31.4648 20.8246H31.3802V20.7002H31.3949C31.5458 20.7002 31.6941 20.7127 31.8438 20.7127C31.9752 20.7127 32.1064 20.7002 32.2399 20.7002H32.2534V20.8246H32.1914C32.0589 20.828 31.9222 20.8402 31.9195 21.2187V22.6805C31.9195 22.793 31.9221 22.9052 31.9377 23.003L31.9405 23.0188H31.925ZM31.8027 22.9908H31.908C31.8944 22.8941 31.8912 22.7874 31.8912 22.6805V21.2187C31.8912 20.8324 32.0535 20.7972 32.1914 20.7964H32.2262V20.728C32.0986 20.729 31.9722 20.7407 31.8438 20.7407C31.6975 20.7407 31.5539 20.729 31.4084 20.728V20.7964H31.4648C31.5641 20.7972 31.7581 20.8411 31.7581 21.1128L31.7547 22.3275L31.7485 22.3337L31.7382 22.3443L30.3084 20.728C30.2132 20.728 30.1197 20.7407 30.0224 20.7407C29.904 20.7407 29.7833 20.729 29.6664 20.728V20.7964H29.6947C29.8457 20.7972 30.0009 20.9112 30.0009 21.0993V22.453C30.0009 22.7101 29.9291 22.8743 29.6979 22.8751L29.6664 22.8749V22.9431C29.8059 22.9421 29.949 22.9303 30.0902 22.9303C30.2242 22.9303 30.3574 22.9421 30.4905 22.9431V22.8751H30.4491C30.197 22.8749 30.1337 22.7645 30.1337 22.4847V21.1246L31.8027 22.9908ZM31.7382 22.3237L31.7484 22.3145L31.7382 22.3237ZM31.7308 22.3174V22.3165L31.7283 22.3141L31.7308 22.3174Z" fill="white"/>
<path fill-rule="evenodd" clip-rule="evenodd" d="M32.7559 22.4973C32.7244 22.6061 32.6856 22.6905 32.6856 22.7476C32.6856 22.8442 32.8209 22.8602 32.9262 22.8602H32.9621V22.9566C32.8334 22.9497 32.7016 22.9442 32.5729 22.9442C32.4573 22.9442 32.3417 22.9497 32.2266 22.9566V22.8602H32.2448C32.3708 22.8602 32.4772 22.7861 32.5242 22.6511L33.0394 21.1768C33.0808 21.0576 33.139 20.8971 33.1574 20.7779C33.2607 20.7428 33.3889 20.6789 33.4508 20.6399C33.4598 20.6366 33.4662 20.6333 33.4762 20.6333C33.4856 20.6333 33.4917 20.6333 33.4982 20.6434C33.508 20.6688 33.5176 20.6978 33.5273 20.7234L34.1185 22.4041C34.1568 22.5162 34.1956 22.6351 34.2376 22.732C34.2761 22.8221 34.3435 22.8602 34.4494 22.8602H34.4692V22.9566C34.3244 22.9497 34.1797 22.9442 34.0253 22.9442C33.8682 22.9442 33.7073 22.9497 33.5432 22.9566V22.8602H33.5789C33.6523 22.8602 33.7783 22.8474 33.7783 22.767C33.7783 22.7255 33.7495 22.6387 33.7136 22.5354L33.5883 22.1629H32.8591L32.7559 22.4973ZM33.2257 21.0738H33.2193L32.9198 21.9832H33.5215L33.2257 21.0738Z" fill="white"/>
<path fill-rule="evenodd" clip-rule="evenodd" d="M34.4679 22.9703C34.323 22.9646 34.1788 22.9574 34.0255 22.9574C33.8688 22.9574 33.7077 22.9646 33.544 22.9703L33.5298 22.971V22.8461H33.5787C33.6534 22.8461 33.764 22.8289 33.7642 22.767C33.765 22.7304 33.7359 22.6427 33.6998 22.5401L33.578 22.1766H32.8687L32.7694 22.5013C32.7371 22.6114 32.6991 22.6954 32.6995 22.7475C32.6995 22.8262 32.82 22.8461 32.9262 22.8461H32.9753V22.971L32.9609 22.9703C32.8325 22.9646 32.701 22.9574 32.573 22.9574C32.4578 22.9574 32.3425 22.9646 32.2266 22.9703L32.2126 22.971V22.8461H32.2449C32.3647 22.8455 32.4649 22.7769 32.512 22.6466L33.0258 21.1718C33.067 21.0528 33.125 20.893 33.1533 20.7651C33.2542 20.7301 33.3832 20.6656 33.4458 20.6268C33.454 20.6236 33.463 20.6198 33.4762 20.6198C33.4844 20.619 33.5013 20.6211 33.5112 20.6386C33.5209 20.6639 33.5304 20.6931 33.5409 20.719L34.1317 22.3994C34.1704 22.5119 34.2087 22.6306 34.2504 22.7265C34.2882 22.8115 34.3464 22.8453 34.4491 22.8461H34.4823V22.971L34.4679 22.9703ZM33.5571 22.942C33.716 22.9361 33.8723 22.9299 34.0256 22.9299C34.1749 22.9299 34.3146 22.9361 34.4549 22.9417L34.4545 22.8745H34.4492C34.3403 22.8747 34.2645 22.8319 34.2244 22.7372C34.1821 22.6401 34.1439 22.5208 34.1053 22.4087L33.5141 20.7278C33.5047 20.7021 33.4944 20.6734 33.4869 20.6511C33.4842 20.6474 33.4845 20.6474 33.4825 20.6474H33.4762C33.4693 20.6474 33.4657 20.6496 33.4581 20.6517C33.3952 20.691 33.2666 20.7555 33.1718 20.7799C33.1518 20.9017 33.0935 21.062 33.0521 21.1813L32.5375 22.6557C32.4886 22.7953 32.3764 22.8747 32.2449 22.8745H32.2402V22.9417C32.3508 22.9361 32.4613 22.9299 32.573 22.9299C32.6975 22.9299 32.8246 22.9361 32.948 22.9417V22.8745H32.9262C32.8218 22.873 32.6753 22.862 32.6712 22.7475C32.672 22.684 32.7116 22.6021 32.7431 22.4932L32.756 22.4972L32.7431 22.4928L32.8488 22.1495H33.5977L33.7267 22.531C33.7621 22.6344 33.7914 22.72 33.7914 22.767C33.7868 22.8654 33.6517 22.8727 33.5787 22.8745H33.5571V22.942ZM32.9005 21.9969L33.209 21.0596H33.2257V21.0738L33.2221 21.0748L33.2257 21.0738V21.0596H33.2354L33.5392 21.9969H32.9005ZM32.9393 21.9689H33.5014L33.2219 21.1084L32.9393 21.9689ZM33.2124 21.0779L33.2187 21.0756L33.2124 21.0779Z" fill="white"/>
<path fill-rule="evenodd" clip-rule="evenodd" d="M35.2786 22.6416C35.2786 22.7707 35.3678 22.8088 35.471 22.8222C35.6024 22.8318 35.7472 22.8318 35.8954 22.8153C36.0302 22.7992 36.1458 22.7226 36.2035 22.6416C36.2546 22.571 36.2835 22.481 36.3032 22.4105H36.3961C36.3607 22.5936 36.3159 22.7738 36.2773 22.9567C35.9951 22.9567 35.7115 22.9443 35.4292 22.9443C35.1462 22.9443 34.8637 22.9567 34.5811 22.9567V22.8601H34.6256C34.7415 22.8601 34.8672 22.8443 34.8672 22.6451V20.9938C34.8672 20.8264 34.7415 20.8103 34.6256 20.8103H34.5811V20.7139C34.7511 20.7139 34.9184 20.7266 35.0885 20.7266C35.2526 20.7266 35.4129 20.7139 35.5773 20.7139V20.8103H35.4965C35.3744 20.8103 35.2786 20.8137 35.2786 20.984V22.6416Z" fill="white"/>
<path fill-rule="evenodd" clip-rule="evenodd" d="M36.2774 22.9707C35.994 22.9707 35.711 22.9578 35.4292 22.9578C35.1465 22.9578 34.8638 22.9707 34.5804 22.9707H34.5669V22.8466H34.6255C34.7417 22.8438 34.852 22.8356 34.8533 22.6454V20.9935C34.852 20.8371 34.7421 20.8267 34.6255 20.8246H34.5669V20.7002H34.5804C34.7515 20.7002 34.9187 20.7127 35.0882 20.7127C35.2517 20.7127 35.4118 20.7002 35.5772 20.7002H35.5901V20.8246H35.4964C35.3718 20.8278 35.2944 20.8222 35.2916 20.9843V22.6419C35.2925 22.762 35.3712 22.7941 35.4716 22.8085C35.5282 22.8124 35.588 22.8144 35.6498 22.8144C35.7284 22.8144 35.81 22.8108 35.893 22.802C36.0239 22.7865 36.1365 22.7108 36.1921 22.6342C36.2417 22.5655 36.2697 22.4774 36.2892 22.4075L36.2918 22.3969H36.413L36.4102 22.4138C36.3738 22.5975 36.3295 22.7767 36.2906 22.9599L36.2881 22.9707H36.2774ZM36.2656 22.943C36.3029 22.7685 36.3448 22.5978 36.3796 22.4245H36.3133C36.2936 22.4945 36.2649 22.5807 36.2146 22.6506C36.1545 22.7338 36.0355 22.8124 35.8962 22.8296C35.8121 22.8382 35.7286 22.8425 35.6499 22.8425C35.5876 22.8425 35.5275 22.8397 35.469 22.8356C35.3646 22.8242 35.2635 22.7793 35.2636 22.6419V20.9843C35.2636 20.8056 35.3766 20.7964 35.4965 20.7964H35.5627V20.728C35.4045 20.729 35.2482 20.7411 35.0882 20.7411C34.9222 20.7411 34.7594 20.729 34.5949 20.728V20.7964H34.6256C34.7402 20.7964 34.8804 20.8165 34.8804 20.9935V22.6454C34.8804 22.8534 34.7408 22.8749 34.6256 22.8749H34.5949V22.943C34.8725 22.9424 35.1503 22.9303 35.4293 22.9303C35.7086 22.9303 35.9875 22.9424 36.2656 22.943Z" fill="white"/>
<path fill-rule="evenodd" clip-rule="evenodd" d="M36.357 20.623C36.5509 20.623 36.6955 20.7719 36.6955 20.9621C36.6955 21.1522 36.5509 21.2995 36.357 21.2995C36.1636 21.2995 36.0188 21.1522 36.0188 20.9621C36.0188 20.7719 36.1636 20.623 36.357 20.623ZM36.357 21.2366C36.5088 21.2366 36.6247 21.1076 36.6247 20.9621C36.6247 20.8164 36.5102 20.6864 36.357 20.6864C36.2048 20.6864 36.089 20.8164 36.089 20.9621C36.089 21.1076 36.2048 21.2366 36.357 21.2366ZM36.1888 21.1406V21.1241C36.2301 21.1182 36.2379 21.1193 36.2379 21.094V20.8432C36.2379 20.8079 36.2344 20.7958 36.1901 20.7977V20.7804H36.3633C36.4228 20.7804 36.4776 20.8089 36.4776 20.8704C36.4776 20.9207 36.4446 20.958 36.3976 20.9725L36.4533 21.0501C36.4792 21.0851 36.5088 21.1182 36.5277 21.1299V21.1406H36.4619C36.4303 21.1406 36.4024 21.0742 36.3403 20.985H36.3029V21.0971C36.3029 21.1193 36.3107 21.1182 36.3522 21.1241V21.1406H36.1888ZM36.3029 20.9622H36.3428C36.3864 20.9622 36.4066 20.9292 36.4066 20.8758C36.4066 20.822 36.3755 20.803 36.3406 20.803H36.3029V20.9622Z" fill="white"/>
<path fill-rule="evenodd" clip-rule="evenodd" d="M16.2888 9.37087C16.2888 6.3655 18.7251 3.9292 21.7304 3.9292C24.7357 3.9292 27.172 6.3655 27.172 9.37087C27.172 12.3762 24.7357 14.8127 21.7304 14.8127C18.7251 14.8127 16.2888 12.3762 16.2888 9.37087Z" fill="#0069AA"/>
<path fill-rule="evenodd" clip-rule="evenodd" d="M25.0213 9.26364C25.0191 7.87011 24.1481 6.68163 22.9207 6.21096V12.3161C24.1481 11.8448 25.0191 10.6574 25.0213 9.26364ZM20.5792 12.3148V6.2115C19.3529 6.68363 18.4832 7.87041 18.4799 9.26357C18.4832 10.6564 19.3529 11.843 20.5792 12.3148ZM21.7505 4.10336C18.9007 4.10445 16.5919 6.41378 16.5914 9.2636C16.5919 12.113 18.9007 14.422 21.7505 14.4225C24.6003 14.422 26.9097 12.113 26.9104 9.2636C26.9097 6.41378 24.6003 4.10445 21.7505 4.10336ZM21.7379 14.9095C18.6194 14.9243 16.0527 12.3979 16.0527 9.32248C16.0527 5.96138 18.6194 3.6366 21.7379 3.63721H23.1993C26.2809 3.6366 29.0934 5.96028 29.0934 9.32248C29.0934 12.3968 26.2809 14.9095 23.1993 14.9095H21.7379Z" fill="white"/>
</g>
<defs>
<clipPath id="clip0_104_4619">
<rect width="44" height="26.4" fill="white" transform="translate(0.733154 0.12793)"/>
</clipPath>
</defs>
</svg>
