<svg width="45" height="27" viewBox="0 0 45 27" fill="none" xmlns="http://www.w3.org/2000/svg">
<g clip-path="url(#clip0_104_4720)">
<rect x="0.733154" y="0.12793" width="44" height="26.4" rx="4" fill="#862165"/>
<path fill-rule="evenodd" clip-rule="evenodd" d="M28.3687 11.0378C28.9542 11.0378 29.4284 10.5637 29.4284 9.97889C29.4284 9.39393 28.9542 8.9194 28.3687 8.9194C27.7844 8.9194 27.3102 9.39393 27.3102 9.97889C27.3102 10.5637 27.7844 11.0378 28.3687 11.0378ZM20.2535 11.6094C20.2056 11.7296 19.8616 12.7017 19.0292 13.7091V9.40143L16.8116 9.83966V17.6481H19.0292V15.2345C19.6716 16.1976 19.9887 17.6481 19.9887 17.6481H22.6449C22.3822 16.5558 21.2328 14.5417 21.2328 14.5417C22.2643 13.234 22.7174 11.8405 22.7894 11.6094H20.2535ZM26.0834 11.528C24.0973 11.5918 23.0888 12.4829 23.0888 14.2544V17.6481H25.256V14.8805C25.256 13.82 25.3948 13.3651 26.6534 13.3219V11.5591C26.4416 11.5141 26.0834 11.528 26.0834 11.528ZM13.0924 12.4693C12.8208 12.4516 12.1919 12.411 12.1919 11.8448C12.1919 11.1616 13.0973 11.1616 13.4369 11.1616C14.0339 11.1616 14.8072 11.3379 15.3595 11.5032C15.3595 11.5032 15.6676 11.6118 15.9298 11.723L15.9541 11.7296V11.7048V9.8586L15.9207 9.84877C15.2689 9.62081 14.511 9.40147 13.1061 9.40147C10.6835 9.40147 9.8252 10.8127 9.8252 12.0216C9.8252 12.7185 10.1238 14.3588 12.8984 14.5481C13.1334 14.5624 13.7576 14.5984 13.7576 15.1834C13.7576 15.6666 13.2466 15.9512 12.3872 15.9512C11.4454 15.9512 10.5315 15.7112 9.97662 15.4834V17.4102C10.8075 17.6279 11.7439 17.7368 12.8416 17.7368C15.2104 17.7368 16.2712 16.4016 16.2712 15.0783C16.2712 13.5778 15.084 12.6028 13.0924 12.4693ZM27.2946 17.6481H29.4439V11.6163H27.2946V17.6481ZM33.4913 9.78581V17.6481H35.6412V9.40143L33.4913 9.78581ZM30.3546 9.78581L32.5022 9.40143V17.6481H30.3546V9.78581Z" fill="white"/>
</g>
<defs>
<clipPath id="clip0_104_4720">
<rect width="44" height="26.4" fill="white" transform="translate(0.733154 0.12793)"/>
</clipPath>
</defs>
</svg>
