<svg width="45" height="27" viewBox="0 0 45 27" fill="none" xmlns="http://www.w3.org/2000/svg">
<g clip-path="url(#clip0_104_4730)">
<rect x="0.733154" y="0.12793" width="44" height="26.4" rx="4" fill="#F7931A"/>
<g clip-path="url(#clip1_104_4730)">
<path fill-rule="evenodd" clip-rule="evenodd" d="M16.069 10.6648C16.3507 10.6648 16.5938 10.7149 16.7983 10.8136C17.0036 10.9132 17.1733 11.0473 17.3092 11.2159C17.4433 11.3854 17.5432 11.5837 17.6076 11.8106C17.6717 12.0384 17.7038 12.2831 17.7038 12.5452C17.7038 12.9475 17.6298 13.328 17.48 13.6865C17.3305 14.0454 17.1273 14.3568 16.869 14.6224C16.6109 14.8877 16.3062 15.0968 15.9548 15.2512C15.6039 15.406 15.2225 15.4831 14.8129 15.4831C14.76 15.4831 14.6669 15.4818 14.5353 15.4788C14.4038 15.4762 14.2525 15.4628 14.0832 15.4399C13.9128 15.4164 13.7327 15.3814 13.5423 15.3345C13.3522 15.2885 13.1716 15.224 13.0015 15.1421L14.5221 8.7853L15.8841 8.5752L15.3397 10.8309C15.4563 10.7786 15.5737 10.738 15.6909 10.7087C15.8087 10.6802 15.9344 10.6648 16.069 10.6648ZM14.9266 14.4084C15.1317 14.4084 15.3249 14.3583 15.5065 14.2596C15.6886 14.1611 15.8458 14.0279 15.9773 13.8618C16.1088 13.6954 16.2132 13.5075 16.2892 13.2976C16.3652 13.0879 16.4036 12.8692 16.4036 12.6414C16.4036 12.3617 16.3567 12.1434 16.2629 11.9858C16.1692 11.8286 15.996 11.7497 15.7442 11.7497C15.6617 11.7497 15.5554 11.7653 15.4236 11.7931C15.2914 11.8232 15.1731 11.8847 15.067 11.9773L14.4873 14.3732C14.5222 14.379 14.5533 14.3851 14.5795 14.3905C14.6054 14.3963 14.6338 14.4006 14.6622 14.4036C14.6924 14.4071 14.7267 14.4086 14.7681 14.4086C14.8096 14.4086 14.8621 14.4084 14.9266 14.4084Z" fill="white"/>
<path fill-rule="evenodd" clip-rule="evenodd" d="M19.1169 15.361H17.8159L18.9146 10.7618H20.2245L19.1169 15.361ZM19.7498 10.2019C19.5681 10.2019 19.4036 10.1479 19.2575 10.0403C19.1102 9.93324 19.0372 9.76826 19.0372 9.54606C19.0372 9.42384 19.0622 9.30896 19.1117 9.20099C19.1618 9.09302 19.2276 8.99974 19.3099 8.92092C19.3921 8.84253 19.4872 8.77991 19.5953 8.73262C19.704 8.68619 19.8197 8.66309 19.943 8.66309C20.1244 8.66309 20.2883 8.71685 20.4348 8.82461C20.5809 8.93279 20.6545 9.09777 20.6545 9.31868C20.6545 9.44133 20.6297 9.55664 20.5796 9.66461C20.5299 9.77258 20.4643 9.86544 20.3821 9.94469C20.3007 10.0231 20.2045 10.0855 20.0966 10.1323C19.9879 10.1794 19.8729 10.2019 19.7498 10.2019Z" fill="white"/>
<path fill-rule="evenodd" clip-rule="evenodd" d="M21.3641 9.61636L22.7267 9.40625L22.392 10.7617H23.8512L23.5877 11.8282H22.1372L21.7509 13.4372C21.7153 13.5713 21.6951 13.6965 21.6894 13.8127C21.6832 13.9297 21.6979 14.0302 21.7331 14.1146C21.768 14.1992 21.831 14.2645 21.9221 14.3109C22.0128 14.3577 22.1429 14.3813 22.313 14.3813C22.4532 14.3813 22.59 14.3681 22.7222 14.3415C22.8535 14.3158 22.9867 14.2796 23.1215 14.2323L23.2185 15.2297C23.0427 15.2938 22.8524 15.3491 22.6473 15.3955C22.4419 15.4424 22.1986 15.4651 21.9176 15.4651C21.5134 15.4651 21.2 15.4057 20.9769 15.2867C20.754 15.1669 20.5964 15.0034 20.502 14.7963C20.4089 14.5901 20.3674 14.3521 20.3791 14.0841C20.3913 13.8155 20.4319 13.5331 20.502 13.2357L21.3641 9.61636Z" fill="white"/>
<path fill-rule="evenodd" clip-rule="evenodd" d="M23.7937 13.5251C23.7937 13.1289 23.8582 12.7555 23.9871 12.4055C24.1156 12.0554 24.3009 11.7495 24.5414 11.4867C24.781 11.2252 25.0728 11.0181 25.4161 10.8663C25.758 10.7149 26.1406 10.6387 26.5626 10.6387C26.8265 10.6387 27.0624 10.6633 27.2699 10.7132C27.4783 10.7633 27.6669 10.8283 27.8373 10.9097L27.3886 11.9248C27.2714 11.8775 27.1497 11.8358 27.024 11.7978C26.8981 11.7594 26.7444 11.7408 26.5628 11.7408C26.1287 11.7408 25.7853 11.8896 25.5299 12.1863C25.2755 12.4834 25.1472 12.8831 25.1472 13.3848C25.1472 13.6821 25.2117 13.9222 25.341 14.1062C25.4697 14.29 25.7074 14.3813 26.0527 14.3813C26.2231 14.3813 26.3874 14.3636 26.545 14.3291C26.7036 14.2941 26.8436 14.2503 26.9671 14.198L27.0642 15.2384C26.8996 15.3021 26.7182 15.3595 26.5192 15.4096C26.3197 15.4582 26.0822 15.4831 25.8068 15.4831C25.4435 15.4831 25.1357 15.4304 24.8841 15.3261C24.6324 15.2203 24.4242 15.0797 24.2604 14.9017C24.0956 14.7234 23.9773 14.515 23.9042 14.276C23.8308 14.0378 23.7937 13.7868 23.7937 13.5251H23.7937Z" fill="white"/>
<path fill-rule="evenodd" clip-rule="evenodd" d="M29.5724 15.4833C29.2618 15.4833 28.9923 15.4365 28.7635 15.3434C28.5354 15.2501 28.3466 15.1195 28.197 14.95C28.0475 14.7813 27.9353 14.5813 27.8586 14.3512C27.7818 14.1212 27.7451 13.8662 27.7451 13.5869C27.7451 13.2365 27.8018 12.8862 27.9159 12.5368C28.0297 12.187 28.1983 11.8726 28.4219 11.593C28.6435 11.3129 28.9167 11.084 29.2388 10.9054C29.5603 10.7283 29.9303 10.6392 30.3458 10.6392C30.6505 10.6392 30.919 10.6862 31.1508 10.7793C31.3815 10.8726 31.5716 11.0041 31.7221 11.1727C31.8707 11.3423 31.9838 11.5414 32.0598 11.772C32.1364 12.0015 32.174 12.2572 32.174 12.5366C32.174 12.886 32.1182 13.2363 32.0075 13.5867C31.8966 13.9353 31.7323 14.2505 31.5152 14.5306C31.2986 14.8102 31.0277 15.0389 30.7024 15.2169C30.377 15.3944 30 15.4833 29.5724 15.4833ZM30.2225 11.7411C30.0296 11.7411 29.8592 11.7969 29.7131 11.907C29.5666 12.0182 29.4435 12.1581 29.3443 12.3268C29.2441 12.4961 29.1696 12.6813 29.1195 12.882C29.0698 13.0834 29.0452 13.2737 29.0452 13.4546C29.0452 13.7464 29.0926 13.9735 29.1855 14.1372C29.2799 14.2998 29.4492 14.3816 29.6955 14.3816C29.8891 14.3816 30.0586 14.3264 30.2056 14.2152C30.3512 14.1048 30.4743 13.9649 30.5743 13.7958C30.674 13.6274 30.7491 13.4417 30.7992 13.2406C30.8485 13.0398 30.8734 12.8485 30.8734 12.668C30.8734 12.3769 30.8263 12.1493 30.7326 11.9858C30.6388 11.8228 30.4686 11.7411 30.2225 11.7411Z" fill="white"/>
<path fill-rule="evenodd" clip-rule="evenodd" d="M33.5914 15.361H32.2896L33.3882 10.7618H34.6988L33.5914 15.361ZM34.2234 10.2019C34.0419 10.2019 33.8774 10.1479 33.7315 10.0403C33.5848 9.93324 33.5112 9.76826 33.5112 9.54606C33.5112 9.42384 33.5364 9.30896 33.5861 9.20099C33.6358 9.09302 33.7018 8.99974 33.7841 8.92092C33.8659 8.84253 33.9618 8.77991 34.0697 8.73262C34.1778 8.68619 34.2935 8.66309 34.4165 8.66309C34.5984 8.66309 34.7627 8.71685 34.909 8.82461C35.0555 8.93279 35.1293 9.09777 35.1293 9.31868C35.1293 9.44133 35.1031 9.55664 35.0538 9.66461C35.0045 9.77258 34.9388 9.86544 34.8567 9.94468C34.7742 10.0231 34.6796 10.0855 34.5715 10.1323C34.4626 10.1794 34.3471 10.2019 34.2234 10.2019Z" fill="white"/>
<path fill-rule="evenodd" clip-rule="evenodd" d="M35.6355 10.9713C35.7343 10.9426 35.8445 10.908 35.9646 10.8705C36.085 10.8329 36.2194 10.7979 36.3696 10.7664C36.5183 10.734 36.6858 10.7079 36.8703 10.6871C37.0548 10.6664 37.2647 10.6562 37.4984 10.6562C38.1843 10.6562 38.6575 10.8549 38.9186 11.2514C39.1792 11.6478 39.2246 12.1903 39.0551 12.8776L38.4569 15.3609H37.1475L37.7274 12.9299C37.7626 12.7781 37.7906 12.6312 37.811 12.4878C37.8318 12.346 37.8305 12.2207 37.8064 12.1123C37.7836 12.0052 37.7289 11.9178 37.6445 11.8497C37.5586 11.7826 37.4288 11.7493 37.2527 11.7493C37.0832 11.7493 36.9107 11.7675 36.7344 11.8025L35.8817 15.3609H34.5718L35.6355 10.9713Z" fill="white"/>
</g>
<g clip-path="url(#clip2_104_4730)">
<path fill-rule="evenodd" clip-rule="evenodd" d="M20.2796 18.4482L20.013 18.93H19.7246C19.9278 18.5655 20.1259 18.2298 20.3191 17.9231C20.5122 17.6163 20.7031 17.3267 20.8918 17.0542H21.1502C21.1774 17.1895 21.2024 17.3265 21.2251 17.4643C21.2477 17.6023 21.2699 17.7471 21.2917 17.8987C21.3135 18.0503 21.3343 18.2111 21.3543 18.3807C21.3742 18.5504 21.3951 18.7333 21.4169 18.9302H21.1502C21.1412 18.849 21.133 18.7674 21.1257 18.6853C21.1185 18.6032 21.1103 18.5242 21.1013 18.4484H20.2796V18.4482ZM21.0767 18.2368C21.0622 18.0909 21.0454 17.9454 21.0264 17.801C21.0073 17.6567 20.9851 17.5078 20.9597 17.3544C20.8962 17.4464 20.8173 17.5653 20.723 17.7103C20.6287 17.8558 20.5217 18.0311 20.402 18.2368H21.0767Z" fill="white"/>
<path fill-rule="evenodd" clip-rule="evenodd" d="M22.3808 18.9704C22.2629 18.9704 22.1591 18.9533 22.0693 18.919C21.9795 18.8847 21.9047 18.836 21.8448 18.7729C21.785 18.7099 21.7401 18.6335 21.7102 18.5441C21.6802 18.4548 21.6653 18.3542 21.6653 18.2423C21.6653 18.0799 21.6911 17.9247 21.7428 17.7768C21.7945 17.629 21.868 17.4982 21.9632 17.3845C22.0584 17.2708 22.1731 17.1801 22.3074 17.1122C22.4416 17.0446 22.591 17.0107 22.7563 17.0107C22.8977 17.0107 23.0106 17.0252 23.095 17.0541C23.1793 17.0829 23.2396 17.11 23.2759 17.1353L23.1671 17.3518C23.1251 17.3247 23.0687 17.299 22.997 17.2747C22.9254 17.2505 22.8406 17.2381 22.7427 17.2381C22.6175 17.2381 22.5051 17.2674 22.4053 17.3263C22.3055 17.385 22.2212 17.4607 22.1523 17.5537C22.0834 17.6466 22.0308 17.7513 21.9945 17.8677C21.9582 17.9841 21.9401 18.0991 21.9401 18.2128C21.9401 18.5647 22.0933 18.7406 22.3999 18.7406C22.4652 18.7406 22.5236 18.7359 22.5753 18.7268C22.627 18.718 22.6728 18.7074 22.7127 18.6957C22.7526 18.684 22.788 18.6711 22.8188 18.6565C22.8497 18.642 22.8769 18.6294 22.9005 18.6186L22.9331 18.8459C22.9113 18.8586 22.8828 18.8721 22.8474 18.8865C22.812 18.901 22.7708 18.9145 22.7236 18.9274C22.6765 18.94 22.6239 18.9504 22.5658 18.9585C22.5078 18.9666 22.4461 18.9704 22.3808 18.9704Z" fill="white"/>
<path fill-rule="evenodd" clip-rule="evenodd" d="M23.9096 18.9704C23.7917 18.9704 23.6879 18.9533 23.5981 18.919C23.5083 18.8847 23.4335 18.836 23.3737 18.7729C23.3138 18.7099 23.2689 18.6335 23.239 18.5441C23.2091 18.4548 23.1941 18.3542 23.1941 18.2423C23.1941 18.0799 23.2199 17.9247 23.2716 17.7768C23.3233 17.629 23.3968 17.4982 23.492 17.3845C23.5872 17.2708 23.7019 17.1801 23.8362 17.1122C23.9704 17.0446 24.1198 17.0107 24.2851 17.0107C24.4265 17.0107 24.5395 17.0252 24.6238 17.0541C24.7081 17.0829 24.7684 17.11 24.8047 17.1353L24.6959 17.3518C24.6539 17.3247 24.5975 17.299 24.5259 17.2747C24.4542 17.2505 24.3694 17.2381 24.2715 17.2381C24.1463 17.2381 24.0339 17.2674 23.9341 17.3263C23.8344 17.385 23.75 17.4607 23.6811 17.5537C23.6122 17.6466 23.5596 17.7513 23.5233 17.8677C23.487 17.9841 23.4689 18.0991 23.4689 18.2128C23.4689 18.5647 23.6221 18.7406 23.9287 18.7406C23.994 18.7406 24.0525 18.7359 24.1042 18.7268C24.1558 18.718 24.2016 18.7074 24.2415 18.6957C24.2814 18.684 24.3168 18.6711 24.3476 18.6565C24.3785 18.642 24.4057 18.6294 24.4293 18.6186L24.4619 18.8459C24.4402 18.8586 24.4116 18.8721 24.3762 18.8865C24.3408 18.901 24.2996 18.9145 24.2524 18.9274C24.2053 18.94 24.1527 18.9504 24.0946 18.9585C24.0366 18.9666 23.9749 18.9704 23.9096 18.9704Z" fill="white"/>
<path fill-rule="evenodd" clip-rule="evenodd" d="M24.6401 18.93L25.0918 17.0542H26.2045L26.1528 17.2734H25.3013L25.1652 17.8392H25.9216L25.8699 18.053H25.1163L24.9557 18.7107H25.8699L25.8182 18.93H24.6401H24.6401Z" fill="white"/>
<path fill-rule="evenodd" clip-rule="evenodd" d="M26.992 17.0352C27.2115 17.0352 27.377 17.0767 27.4885 17.1597C27.6001 17.2427 27.6558 17.3636 27.6558 17.5224C27.6558 17.6451 27.6327 17.7513 27.5865 17.8404C27.5402 17.9297 27.4745 18.0033 27.3892 18.0612C27.304 18.119 27.2015 18.1616 27.0818 18.1896C26.9621 18.2176 26.8287 18.2318 26.6818 18.2318H26.4941L26.3254 18.9301H26.0615L26.5077 17.0787C26.5839 17.0606 26.6646 17.0489 26.7499 17.0435C26.8351 17.0379 26.9158 17.0352 26.992 17.0352ZM26.9595 17.2572C26.8307 17.2572 26.7527 17.2608 26.7255 17.268L26.5459 18.0124H26.7173C26.7935 18.0124 26.8715 18.0058 26.9513 17.9921C27.0311 17.9785 27.1027 17.9546 27.1662 17.9206C27.2297 17.8863 27.2819 17.8389 27.3227 17.7782C27.3635 17.7178 27.3839 17.64 27.3839 17.5443C27.3839 17.4415 27.3458 17.3679 27.2696 17.3235C27.1934 17.2793 27.09 17.2572 26.9595 17.2572Z" fill="white"/>
<path fill-rule="evenodd" clip-rule="evenodd" d="M29.2653 17.0542L29.2136 17.2734H28.645L28.2451 18.93H27.9812L28.3811 17.2734H27.8125L27.8642 17.0542H29.2653Z" fill="white"/>
<path fill-rule="evenodd" clip-rule="evenodd" d="M29.0205 18.93L29.4721 17.0542H30.5849L30.5332 17.2734H29.6816L29.5456 17.8392H30.3019L30.2502 18.053H29.4966L29.3361 18.7107H30.2502L30.1986 18.93H29.0205H29.0205Z" fill="white"/>
<path fill-rule="evenodd" clip-rule="evenodd" d="M31.3686 17.0352C31.6479 17.0352 31.8565 17.1006 31.9943 17.2314C32.1322 17.3622 32.2011 17.5386 32.2011 17.7606C32.2011 17.9158 32.1766 18.0651 32.1277 18.2083C32.0787 18.352 32.0025 18.4785 31.8991 18.5888C31.7957 18.6987 31.6638 18.7864 31.5033 18.8514C31.3427 18.9164 31.1509 18.9488 30.9278 18.9488C30.8517 18.9488 30.7691 18.9452 30.6803 18.938C30.5914 18.9308 30.5134 18.9182 30.4463 18.9001L30.8843 17.0785C30.9605 17.0604 31.0412 17.0487 31.1265 17.0433C31.2117 17.0379 31.2924 17.0352 31.3686 17.0352ZM31.3468 17.2572C31.2108 17.2572 31.1292 17.2608 31.102 17.268L30.7537 18.7134C30.7682 18.717 30.7927 18.7202 30.8272 18.7229C30.8616 18.7256 30.9179 18.727 30.9959 18.727C31.1392 18.727 31.2684 18.7033 31.3836 18.6554C31.4987 18.6076 31.5962 18.5409 31.676 18.4549C31.7558 18.3692 31.8175 18.2675 31.861 18.1493C31.9046 18.0311 31.9263 17.9016 31.9263 17.7609C31.9263 17.6021 31.8801 17.4785 31.7876 17.3898C31.6951 17.3016 31.5482 17.2572 31.3468 17.2572Z" fill="white"/>
<path fill-rule="evenodd" clip-rule="evenodd" d="M34.2334 18.93H33.9695L34.179 18.0584H33.3057L33.0962 18.93H32.8323L33.2839 17.0542H33.5478L33.3574 17.8392H34.2309L34.4214 17.0542H34.6853L34.2334 18.93Z" fill="white"/>
<path fill-rule="evenodd" clip-rule="evenodd" d="M34.6494 18.93L35.101 17.0542H36.2138L36.1619 17.2734H35.3103L35.1743 17.8392H35.9306L35.8787 18.053H35.1251L34.9648 18.7107H35.8787L35.8268 18.93H34.6494H34.6494Z" fill="white"/>
<path fill-rule="evenodd" clip-rule="evenodd" d="M37.0015 17.0352C37.2028 17.0352 37.3625 17.0758 37.4803 17.157C37.5982 17.2382 37.657 17.3573 37.657 17.514C37.657 17.6728 37.6105 17.8061 37.5171 17.9135C37.4237 18.0209 37.2926 18.098 37.1239 18.1447C37.1457 18.1828 37.1711 18.2311 37.2001 18.2897C37.2291 18.3484 37.2591 18.4134 37.2899 18.4846C37.3205 18.5557 37.3507 18.6299 37.3797 18.7064C37.4087 18.7833 37.4339 18.8575 37.4559 18.9297H37.1865C37.1614 18.8611 37.1348 18.7916 37.1076 18.7213C37.0806 18.6509 37.0528 18.5832 37.0249 18.5182C36.9965 18.4533 36.9686 18.3924 36.9403 18.3355C36.9124 18.2787 36.8863 18.2284 36.8628 18.1853C36.8392 18.1871 36.8156 18.1885 36.792 18.1894C36.7684 18.1903 36.7451 18.1907 36.7213 18.1907H36.5118L36.3349 18.9297H36.071L36.5175 17.0782C36.5936 17.0602 36.6741 17.0485 36.7596 17.0431C36.8446 17.0379 36.9253 17.0352 37.0015 17.0352ZM36.9689 17.2572C36.8401 17.2572 36.7622 17.2608 36.7347 17.268L36.5633 17.9774H36.7241C36.7984 17.9774 36.8746 17.972 36.9526 17.9612C37.0306 17.9503 37.1018 17.9291 37.1659 17.8976C37.2303 17.866 37.2829 17.8218 37.3237 17.7649C37.3646 17.7081 37.3852 17.6327 37.3852 17.5389C37.3852 17.4379 37.3466 17.3657 37.2696 17.3224C37.1925 17.2788 37.092 17.2572 36.9689 17.2572Z" fill="white"/>
<path fill-rule="evenodd" clip-rule="evenodd" d="M37.6772 18.93L38.1289 17.0542H39.2416L39.1897 17.2734H38.3381L38.2021 17.8392H38.9584L38.9065 18.053H38.1529L37.9926 18.7107H38.9065L38.8546 18.93H37.6772H37.6772Z" fill="white"/>
</g>
<path fill-rule="evenodd" clip-rule="evenodd" d="M9.19338 15.6785C11.1865 15.6785 12.8023 14.071 12.8023 12.088C12.8023 10.1051 11.1865 8.49756 9.19338 8.49756C7.20023 8.49756 5.58447 10.1051 5.58447 12.088C5.58447 14.071 7.20023 15.6785 9.19338 15.6785ZM9.99051 10.6699C10.4905 10.8414 10.8563 11.0982 10.7845 11.5762C10.7324 11.9262 10.5375 12.0954 10.2784 12.1547C10.6338 12.3388 10.8148 12.621 10.6424 13.1106C10.4287 13.7185 9.92078 13.7697 9.24522 13.6426L9.08117 14.2961L8.68517 14.1978L8.84696 13.553C8.74429 13.5277 8.63937 13.5005 8.53129 13.4715L8.36883 14.1194L7.97328 14.0211L8.13709 13.3663C8.10223 13.3574 8.06711 13.3482 8.03173 13.339L8.03161 13.339C7.97337 13.3239 7.91444 13.3086 7.85482 13.2938L7.33945 13.166L7.53621 12.7148C7.53621 12.7148 7.82819 12.7918 7.82413 12.7862C7.93627 12.8138 7.98614 12.7411 8.00577 12.6928L8.26481 11.6592L8.27057 11.6607C8.28315 11.6637 8.29522 11.6667 8.30677 11.6698C8.29075 11.6631 8.27654 11.6592 8.26548 11.6565L8.45028 10.9191C8.45525 10.8354 8.42614 10.7299 8.26571 10.6899C8.2718 10.6856 7.97802 10.6187 7.97802 10.6187L8.08339 10.1978L8.62967 10.3334L8.62922 10.3354C8.71135 10.3559 8.79596 10.3752 8.88216 10.3947L9.04462 9.74726L9.44039 9.84559L9.28132 10.4802C9.38782 10.5042 9.49477 10.5287 9.59879 10.5545L9.75674 9.92394L10.1527 10.0223L9.99051 10.6699ZM9.87952 12.839C9.76709 13.2881 9.06047 13.1022 8.73738 13.0172L8.73737 13.0172C8.70839 13.0095 8.68249 13.0027 8.66039 12.9972L8.87791 12.1298C8.90489 12.1365 8.93786 12.1439 8.97521 12.1522C9.30949 12.2268 9.9946 12.3798 9.87952 12.839ZM9.04312 11.75C9.31287 11.8214 9.89985 11.9768 10.0022 11.5693C10.1065 11.1523 9.53626 11.0263 9.25705 10.9647C9.2254 10.9577 9.1975 10.9515 9.17474 10.9459L8.97753 11.7329C8.99631 11.7376 9.01838 11.7434 9.04312 11.75Z" fill="white"/>
</g>
<defs>
<clipPath id="clip0_104_4730">
<rect width="44" height="26.4" fill="white" transform="translate(0.733154 0.12793)"/>
</clipPath>
<clipPath id="clip1_104_4730">
<rect width="27.28" height="7.48" fill="white" transform="translate(12.9319 8.37939)"/>
</clipPath>
<clipPath id="clip2_104_4730">
<rect width="19.8" height="2.2" fill="white" transform="translate(19.4417 16.9102)"/>
</clipPath>
</defs>
</svg>
