<svg width="208" height="270" viewBox="0 0 208 270" fill="none" xmlns="http://www.w3.org/2000/svg">
<rect x="0.5" y="0.5" width="207" height="269" rx="7.5" fill="white"/>
<path d="M75.9512 70.4619C79.6157 72.861 83.5465 74.335 87.8304 74.5667V73.8591C83.7175 73.3762 79.7709 72.1827 75.9512 70.4619Z" fill="#FDB927"/>
<path d="M90.4362 44.936L87.9907 65.5374L94.8252 65.1695L95.703 54.6235L99.0262 64.9244L102.486 64.6462L105.234 55.5433L106.362 64.3725L111.817 63.9719L109.058 46.7755L103.227 46.4689L100.656 55.9725L97.8349 45.8557L90.4362 44.936Z" fill="#808080"/>
<path d="M112.068 46.9902L112.207 63.9899L121.079 63.3006L121.066 59.7741H117.21L117.178 57.9654L120.658 57.9347V53.9799L117.21 53.9494L117.147 52.2632L121.034 52.3858L120.972 47.9406L112.068 46.9902Z" fill="#808080"/>
<path d="M129.857 53.847L132.961 52.0076C132.237 50.8755 131.771 49.6829 129.825 48.7581C128.669 48.1446 126.623 47.9363 125.217 48.7886C123.177 49.8523 121.887 52.1676 121.894 54.307C121.755 56.4543 121.84 58.627 122.96 60.4383C124.82 63.4605 127.486 63.5517 130.061 62.6456C131.27 62.1438 133.01 60.4908 133.054 58.1392L133.243 54.8281L127.913 54.7054L127.882 57.8631L129.543 57.8938C129.449 58.6447 129.192 59.1631 127.725 59.2426C127.158 59.1856 125.757 58.9833 125.813 57.1888L125.938 54.1689C125.97 53.5052 126.908 52.4643 128.101 52.4983C128.804 52.5178 129.442 52.8406 129.857 53.847Z" fill="#808080"/>
<path d="M136.276 49.1382L133.043 62.4013L136.208 62.1984L136.555 60.5468H138.775L139.02 61.9823L141.89 61.7698L139.653 49.3268L136.276 49.1382ZM137.897 53.5262L138.563 57.631L137.086 57.6026L137.897 53.5262Z" fill="#808080"/>
<path d="M91.5001 44.2432L89.0548 64.8445L95.8891 64.4766L96.7671 53.9306L100.09 64.2313L103.549 63.9533L106.298 54.8505L107.426 63.6796L112.881 63.2788L110.122 46.0824L104.291 45.776L101.72 55.2796L98.8988 45.1628L91.5001 44.2432Z" fill="white"/>
<path d="M113.132 46.2974L113.271 63.297L122.143 62.6077L122.13 59.0812H118.274L118.242 57.2725L121.722 57.2418V53.287L118.274 53.2563L118.211 51.5702L122.098 51.6929L122.036 47.2477L113.132 46.2974Z" fill="white"/>
<path d="M130.921 53.1542L134.025 51.3148C133.301 50.1827 132.835 48.9898 130.89 48.0653C129.733 47.4516 127.687 47.2435 126.281 48.0958C124.241 49.1595 122.951 51.4748 122.958 53.6142C122.819 55.7615 122.904 57.9342 124.024 59.7455C125.884 62.7677 128.55 62.8589 131.125 61.9528C132.334 61.451 134.074 59.798 134.119 57.4461L134.307 54.1353L128.977 54.0126L128.946 57.1703L130.607 57.201C130.513 57.9516 130.256 58.4702 128.789 58.5498C128.223 58.4928 126.821 58.2905 126.877 56.4958L127.002 53.4761C127.034 52.8124 127.972 51.7715 129.165 51.8052C129.868 51.825 130.507 52.1478 130.921 53.1542Z" fill="white"/>
<path d="M137.339 48.4448L134.107 61.7082L137.272 61.5052L137.619 59.8537H139.839L140.084 61.2891L142.954 61.0765L140.717 48.6336L137.339 48.4448ZM138.961 52.8328L139.627 56.9379L138.15 56.9095L138.961 52.8328Z" fill="white"/>
<path d="M92.0324 43.896L89.5869 64.4976L96.4214 64.1297L97.2992 53.5837L100.622 63.8844L104.082 63.6063L106.83 54.5035L107.958 63.3326L113.413 62.9319L110.655 45.7354L104.823 45.429L102.253 54.9327L99.4311 44.8158L92.0324 43.896Z" fill="#EE1D25"/>
<path d="M113.664 45.9492L113.803 62.9491L122.675 62.2598L122.662 58.7333H118.806L118.774 56.9244L122.254 56.8939V52.9391L118.806 52.9084L118.743 51.2222L122.631 51.345L122.568 46.8996L113.664 45.9492Z" fill="#EE1D25"/>
<path d="M131.453 52.8081L134.557 50.9686C133.833 49.8366 133.367 48.6437 131.421 47.7189C130.265 47.1055 128.219 46.8973 126.813 47.7496C124.773 48.8133 123.483 51.1286 123.49 53.268C123.351 55.4153 123.436 57.5878 124.556 59.3993C126.416 62.4216 129.082 62.5127 131.657 61.6067C132.866 61.1048 134.606 59.4518 134.651 57.1L134.839 53.789L129.509 53.6664L129.478 56.8241L131.139 56.8549C131.045 57.6055 130.788 58.1241 129.321 58.2036C128.755 58.1467 127.353 57.9443 127.409 56.1496L127.534 53.1299C127.566 52.4662 128.504 51.4253 129.697 51.4591C130.4 51.4789 131.038 51.8016 131.453 52.8081Z" fill="#EE1D25"/>
<path d="M137.872 48.0977L134.639 61.361L137.804 61.158L138.151 59.5065H140.371L140.616 60.9419L143.486 60.7293L141.249 48.2864L137.872 48.0977ZM139.493 52.4857L140.159 56.5907L138.682 56.5623L139.493 52.4857Z" fill="#EE1D25"/>
<path d="M93.4944 52.6243C93.4944 57.5513 89.466 61.5454 84.4967 61.5454C79.5277 61.5454 75.4993 57.5513 75.4993 52.6243C75.4993 47.6972 79.5277 43.7031 84.4967 43.7031C89.466 43.7031 93.4944 47.6972 93.4944 52.6243Z" fill="#FDB927"/>
<path d="M93.4944 52.6243C93.4944 57.5513 89.466 61.5454 84.4967 61.5454C79.5277 61.5454 75.4993 57.5513 75.4993 52.6243C75.4993 47.6972 79.5277 43.7031 84.4967 43.7031C89.466 43.7031 93.4944 47.6972 93.4944 52.6243Z" fill="url(#paint0_radial_104_3881)"/>
<path d="M94.0265 52.2776C94.0265 57.2046 89.9981 61.1988 85.0288 61.1988C80.0595 61.1988 76.0311 57.2046 76.0311 52.2776C76.0311 47.3505 80.0595 43.3564 85.0288 43.3564C89.9981 43.3564 94.0265 47.3505 94.0265 52.2776Z" fill="url(#paint1_radial_104_3881)"/>
<path d="M83.4876 52.8149L81.191 51.6884L78.8339 53.5721L79.7011 50.9455L76.3369 49.1966L80.0311 49.3093L80.7954 46.9263L81.7611 49.2865L84.4016 49.2796L82.5234 50.6899L83.4876 52.8149Z" fill="#214489"/>
<path d="M87.6797 48.4902L85.695 47.7643L84.2907 49.316L84.3615 47.0291L82.2188 45.6391L84.471 45.4759L84.6856 43.8037L85.8549 45.4666L87.6799 45.4303L86.6042 46.7047L87.6797 48.4902Z" fill="#214489"/>
<path d="M91.5498 49.2334L90.2567 49.0302L89.824 50.4513L89.1362 48.8148L87.6991 48.4955L88.9951 47.718L88.8218 46.0688L89.8717 47.2248L90.8964 46.5305L90.5547 48.0169L91.5498 49.2334Z" fill="#214489"/>
<path d="M91.4898 54.6713L90.5973 53.088L89.24 53.2624L90.2059 52.1228L89.7444 50.5252L90.7893 51.2737L91.6851 50.2339L91.6582 51.8129L92.8687 52.5302L91.5465 52.7551L91.4898 54.6713Z" fill="#214489"/>
<path d="M84.9348 58.7849L83.26 57.5421L80.4484 59.5808L81.7217 56.8721L79.1528 55.02L82.615 55.0957L83.4691 52.8208L84.2806 55.0165L86.4618 55.075L84.5819 56.3946L84.9348 58.7849Z" fill="#214489"/>
<path d="M91.2802 55.7267L89.4785 55.4248L89.227 53.3447L88.2687 55.2603L86.4473 55.0694L87.6568 56.5549L86.7826 58.5169L88.4884 57.5197L89.6955 58.8059L89.6142 56.8211L91.2802 55.7267Z" fill="#214489"/>
<path d="M81.8243 62.9353C87.4992 65.6737 93.0547 62.7529 94.667 57.6904C91.919 61.8983 85.2408 63.4079 81.8243 62.9353Z" fill="#FDB927"/>
<path d="M75.3422 48.7524C75.9257 46.9665 77.6843 44.6742 79.6065 44.0872C78.9677 43.7015 75.6005 41.0839 70.2089 41.9554C65.344 43.0461 65.8605 48.4619 66.5685 50.652C66.6196 49.342 66.4764 47.558 67.3056 46.518C67.7154 46.066 70.2042 45.0346 75.0829 48.543C75.473 48.8208 74.2425 47.8964 75.3422 48.7524Z" fill="#FDB927"/>
<path d="M74.4767 49.9558C72.992 48.5961 71.3212 47.5507 69.2554 46.7594C66.7805 57.2057 76.2817 65.0941 82.3376 69.0663C77.2988 68.1671 64.2809 59.6687 64.4229 47.7743C64.393 46.9628 64.957 41.0231 71.5835 40.8276C75.8474 40.9121 77.6464 41.8509 79.3899 42.6426" stroke="#FDB927" stroke-width="2.95"/>
<path d="M74.2585 50.1903L74.9205 50.7841L75.1046 50.0568L74.6586 49.6899L74.3746 49.8968L74.2312 50.0434L74.2585 50.1903Z" fill="#FDB927"/>
<path d="M79.2262 42.9176C79.7097 43.1772 80.1838 43.4386 80.6387 43.7042L81.6418 43.4907C80.9173 43.1073 80.027 42.5594 79.4907 42.3403L79.2807 42.5833L79.2262 42.9176Z" fill="#FDB927"/>
<path d="M80.4128 68.8377C81.5866 69.317 83.8605 69.8534 85.6937 69.7496C83.7805 69.3627 83.3069 69.3778 81.8528 68.3677L81.0135 68.4662L80.4128 68.8377Z" fill="#FDB927"/>
<path d="M68.0359 47.0874C67.1005 50.181 67.7931 53.7698 69.5097 57.817C67.5258 54.5069 64.6594 51.2458 68.0359 47.0874Z" fill="#EE1D25"/>
<path d="M74.9685 45.3794C72.9351 48.9785 72.4749 52.6346 74.3681 56.3761C73.3258 52.7105 73.684 49.045 74.9685 45.3794Z" fill="#EE1D25"/>
<path d="M142.551 64.3462L142.021 65.7977L141.173 65.4451C140.479 65.2839 140.399 66.0869 140.77 66.1502L141.597 66.3574C142.105 66.5174 142.298 66.8973 142.403 67.1455C142.642 67.9672 142.438 68.3085 142.339 68.7626C142.01 69.6306 141.389 70.0043 140.621 70.1311C139.658 70.2711 139.171 70.0843 138.586 69.9652L139.243 68.2235C139.363 68.6746 139.905 68.688 140.049 68.7211C140.37 68.8013 140.626 68.6744 140.749 68.5138C140.927 68.2124 140.725 68.0021 140.537 67.9333L139.604 67.7466C139.042 67.6002 138.885 66.9324 138.787 66.5337C138.725 66.0037 138.79 65.5326 139.068 65.0781C139.288 64.6726 139.545 64.4014 139.932 64.114C140.287 63.8828 140.919 63.7908 141.406 63.8693C142.192 64.0284 142.235 64.1873 142.551 64.3462Z" fill="#808080"/>
<path d="M88.2847 66.6533L86.8124 77.1718L91.5235 76.5666L91.6385 71.1327L94.0515 76.172L96.5031 75.8682L98.2162 70.5337L99.0768 75.5321L102.671 75.0068L100.666 66.2173L96.4985 66.2773L95.0293 71.6926L93.1517 66.4534L88.2847 66.6533Z" fill="#808080"/>
<path d="M103.613 66.0667L107.338 65.8042L107.464 74.3465L103.966 74.8374L103.613 66.0667Z" fill="#808080"/>
<path d="M108.827 65.6991L112.223 65.5195L112.258 71.1308L114.88 70.8732L114.87 73.3942L108.871 74.2259L108.827 65.6991Z" fill="#808080"/>
<path d="M121.612 65.0838L124.195 64.8862L124.224 72.1582L121.612 72.5564V65.0838Z" fill="#808080"/>
<path d="M131.652 69.5184C130.726 71.3738 128.587 72.2706 126.875 71.5215C125.163 70.7726 124.526 68.6614 125.452 66.806C126.379 64.9506 128.518 64.054 130.23 64.8029C131.942 65.552 132.578 67.6633 131.652 69.5184Z" fill="#808080"/>
<path d="M115.661 65.416L118.543 65.2485L118.573 70.4865L120.798 70.2461L120.789 72.5992L115.699 73.3758L115.661 65.416Z" fill="#808080"/>
<path d="M132.742 64.3621L132.69 71.0656L134.544 70.8211L134.607 67.3164L136.128 70.5562L138.087 70.4338L138.232 64.0972L136.378 64.1991L136.451 67.7851L134.732 64.25L132.742 64.3621Z" fill="#808080"/>
<path d="M143.257 63.6938L142.727 65.1452L141.878 64.7928C141.184 64.6315 141.104 65.4346 141.476 65.4978L142.303 65.7051C142.811 65.8651 143.004 66.245 143.108 66.4929C143.347 67.3147 143.144 67.6561 143.045 68.1103C142.716 68.9781 142.095 69.3517 141.327 69.4788C140.363 69.6186 139.877 69.432 139.292 69.3128L139.949 67.5712C140.069 68.0223 140.611 68.0354 140.755 68.0688C141.076 68.149 141.331 68.0221 141.454 67.8615C141.632 67.5598 141.431 67.3497 141.242 67.2809L140.309 67.0943C139.748 66.9479 139.59 66.28 139.493 65.8814C139.431 65.3512 139.495 64.8803 139.774 64.4255C139.993 64.0202 140.25 63.7491 140.637 63.4614C140.993 63.2305 141.625 63.1385 142.112 63.2169C142.898 63.3758 142.94 63.535 143.257 63.6938Z" fill="white"/>
<path d="M88.952 66.0383L87.4795 76.5568L92.1906 75.9515L92.3056 70.5177L94.7188 75.5568L97.1702 75.2532L98.8835 69.9185L99.7439 74.9169L103.338 74.3918L101.333 65.6021L97.1656 65.662L95.6964 71.0776L93.8188 65.8384L88.952 66.0383Z" fill="white"/>
<path d="M104.241 65.4522L107.967 65.1895L108.093 73.732L104.594 74.2228L104.241 65.4522Z" fill="white"/>
<path d="M109.456 64.9325L112.852 64.7529L112.887 70.3642L115.509 70.1068L115.499 72.6276L109.5 73.4595L109.456 64.9325Z" fill="white"/>
<path d="M122.359 64.3534L124.942 64.1558L124.971 71.4276L122.359 71.8258V64.3534Z" fill="white"/>
<path d="M132.399 68.788C131.473 70.6432 129.334 71.54 127.622 70.7911C125.91 70.042 125.273 67.9308 126.2 66.0754C127.126 64.2203 129.265 63.3234 130.977 64.0726C132.689 64.8214 133.326 66.9327 132.399 68.788Z" fill="white"/>
<path d="M116.406 64.6875L119.287 64.52L119.317 69.7582L121.542 69.5178L121.533 71.8709L116.443 72.6475L116.406 64.6875Z" fill="white"/>
<path d="M133.486 63.7083L133.434 70.4115L135.289 70.1671L135.351 66.6625L136.872 69.9022L138.831 69.78L138.977 63.4434L137.122 63.5453L137.195 67.1313L135.476 63.5962L133.486 63.7083Z" fill="white"/>
<path d="M143.578 63.4185L143.048 64.87L142.2 64.5174C141.506 64.3563 141.426 65.1592 141.797 65.2224L142.624 65.4297C143.132 65.5899 143.326 65.9698 143.43 66.2177C143.669 67.0395 143.466 67.3807 143.366 67.8351C143.038 68.7028 142.416 69.0765 141.649 69.2034C140.685 69.3434 140.199 69.1565 139.613 69.0376L140.271 67.2958C140.391 67.7469 140.933 67.7602 141.076 67.7936C141.397 67.8735 141.653 67.7467 141.776 67.5861C141.954 67.2846 141.752 67.0743 141.564 67.0055L140.631 66.8189C140.069 66.6727 139.912 66.0046 139.815 65.606C139.752 65.076 139.817 64.6051 140.096 64.1504C140.315 63.7448 140.572 63.4737 140.959 63.1862C141.314 62.9551 141.946 62.8631 142.433 62.9415C143.22 63.1007 143.262 63.2596 143.578 63.4185Z" fill="#33337A"/>
<path d="M89.3124 65.7263L87.8398 76.2446L92.551 75.6395L92.666 70.2055L95.0791 75.2448L97.5306 74.9412L99.2439 69.6065L100.104 74.6049L103.699 74.0796L101.694 65.29L97.5259 65.35L96.0567 70.7654L94.1792 65.5263L89.3124 65.7263Z" fill="#33337A"/>
<path d="M104.64 65.2147L108.365 64.9521L108.491 73.4947L104.993 73.9853L104.64 65.2147Z" fill="#33337A"/>
<path d="M109.854 64.7708L113.251 64.5913L113.285 70.2025L115.908 69.945L115.897 72.466L109.899 73.2979L109.854 64.7708Z" fill="#33337A"/>
<path d="M122.64 64.1561L125.222 63.9585L125.251 71.2305L122.64 71.6287V64.1561Z" fill="#33337A"/>
<path d="M132.68 68.5909C131.753 70.446 129.614 71.3428 127.902 70.5937C126.19 69.8448 125.553 67.7336 126.48 65.8782C127.406 64.0231 129.545 63.1263 131.257 63.8752C132.969 64.6243 133.606 66.7355 132.68 68.5909Z" fill="#33337A"/>
<path d="M116.689 64.4507L119.57 64.2832L119.6 69.5212L121.825 69.281L121.855 71.672L116.726 72.4107L116.689 64.4507Z" fill="#33337A"/>
<path d="M133.769 63.4343L133.717 70.1378L135.572 69.8933L135.634 66.3888L137.155 69.6284L139.114 69.5061L139.26 63.1694L137.405 63.2713L137.478 66.8574L135.759 63.3223L133.769 63.4343Z" fill="#33337A"/>
<path d="M129.86 64.6353L129.308 66.3375L126.931 66.5452L128.841 67.6661L128.332 69.7421L129.945 68.3305L131.431 68.9947L130.879 67.4586L132.195 66.213L130.582 66.296L129.86 64.6353Z" fill="white"/>
<path d="M150.903 59.0002C150.903 84.3333 129.924 104.906 104 104.906C78.076 104.906 57.0966 84.3333 57.0966 59.0002C57.0966 33.667 78.076 13.0947 104 13.0947C129.924 13.0947 150.903 33.667 150.903 59.0002Z" stroke="#E0E0E0" stroke-width="2"/>
<path d="M49.2148 173.26C49.2148 172.726 49.0651 172.303 48.7656 171.99C48.4727 171.671 47.9714 171.378 47.2617 171.111C46.5521 170.844 45.9401 170.581 45.4258 170.32C44.9115 170.053 44.4688 169.751 44.0977 169.412C43.7331 169.067 43.4466 168.663 43.2383 168.201C43.0365 167.739 42.9355 167.189 42.9355 166.551C42.9355 165.451 43.2871 164.549 43.9902 163.846C44.6934 163.143 45.6276 162.732 46.793 162.615V160.525H48.3555V162.645C49.5078 162.807 50.4095 163.289 51.0605 164.09C51.7116 164.884 52.0371 165.916 52.0371 167.186H49.2148C49.2148 166.404 49.0521 165.822 48.7266 165.438C48.4076 165.047 47.9779 164.852 47.4375 164.852C46.9036 164.852 46.4902 165.005 46.1973 165.311C45.9043 165.61 45.7578 166.027 45.7578 166.561C45.7578 167.055 45.901 167.452 46.1875 167.752C46.474 168.051 47.0046 168.357 47.7793 168.67C48.5605 168.982 49.2018 169.279 49.7031 169.559C50.2044 169.832 50.6276 170.145 50.9727 170.496C51.3177 170.841 51.5814 171.238 51.7637 171.688C51.946 172.13 52.0371 172.648 52.0371 173.24C52.0371 174.347 51.6921 175.245 51.002 175.936C50.3118 176.626 49.3613 177.033 48.1504 177.156V179.1H46.5977V177.166C45.263 177.023 44.2279 176.551 43.4922 175.75C42.763 174.943 42.3984 173.872 42.3984 172.537H45.2207C45.2207 173.312 45.403 173.908 45.7676 174.324C46.1387 174.734 46.6693 174.939 47.3594 174.939C47.9323 174.939 48.3848 174.79 48.7168 174.49C49.0488 174.184 49.2148 173.774 49.2148 173.26ZM60.8066 177H57.9844V166.121L54.6152 167.166V164.871L60.5039 162.762H60.8066V177ZM75.1816 177H65.4355V175.066L70.0352 170.164C70.6667 169.474 71.1322 168.872 71.4316 168.357C71.7376 167.843 71.8906 167.355 71.8906 166.893C71.8906 166.261 71.7311 165.766 71.4121 165.408C71.0931 165.044 70.6374 164.861 70.0449 164.861C69.4069 164.861 68.9023 165.083 68.5312 165.525C68.1667 165.962 67.9844 166.538 67.9844 167.254H65.1523C65.1523 166.388 65.3574 165.597 65.7676 164.881C66.1842 164.165 66.7702 163.605 67.5254 163.201C68.2806 162.791 69.1367 162.586 70.0938 162.586C71.5586 162.586 72.6947 162.938 73.502 163.641C74.3158 164.344 74.7227 165.337 74.7227 166.619C74.7227 167.322 74.5404 168.038 74.1758 168.768C73.8112 169.497 73.1862 170.346 72.3008 171.316L69.0684 174.725H75.1816V177ZM86.666 177H76.9199V175.066L81.5195 170.164C82.151 169.474 82.6165 168.872 82.916 168.357C83.222 167.843 83.375 167.355 83.375 166.893C83.375 166.261 83.2155 165.766 82.8965 165.408C82.5775 165.044 82.1217 164.861 81.5293 164.861C80.8913 164.861 80.3867 165.083 80.0156 165.525C79.651 165.962 79.4688 166.538 79.4688 167.254H76.6367C76.6367 166.388 76.8418 165.597 77.252 164.881C77.6686 164.165 78.2546 163.605 79.0098 163.201C79.765 162.791 80.6211 162.586 81.5781 162.586C83.043 162.586 84.179 162.938 84.9863 163.641C85.8001 164.344 86.207 165.337 86.207 166.619C86.207 167.322 86.0247 168.038 85.6602 168.768C85.2956 169.497 84.6706 170.346 83.7852 171.316L80.5527 174.725H86.666V177ZM102.955 171.121C102.955 173.087 102.548 174.591 101.734 175.633C100.921 176.674 99.7292 177.195 98.1602 177.195C96.6107 177.195 95.4258 176.684 94.6055 175.662C93.7852 174.64 93.3652 173.175 93.3457 171.268V168.65C93.3457 166.665 93.7559 165.158 94.5762 164.129C95.403 163.1 96.5911 162.586 98.1406 162.586C99.6901 162.586 100.875 163.097 101.695 164.119C102.516 165.135 102.936 166.596 102.955 168.504V171.121ZM100.133 168.25C100.133 167.072 99.9701 166.215 99.6445 165.682C99.3255 165.141 98.8242 164.871 98.1406 164.871C97.4766 164.871 96.985 165.128 96.666 165.643C96.3535 166.15 96.1875 166.948 96.168 168.035V171.492C96.168 172.651 96.3242 173.514 96.6367 174.08C96.9557 174.64 97.4635 174.92 98.1602 174.92C98.8503 174.92 99.3483 174.65 99.6543 174.109C99.9603 173.569 100.12 172.742 100.133 171.629V168.25ZM114.439 171.121C114.439 173.087 114.033 174.591 113.219 175.633C112.405 176.674 111.214 177.195 109.645 177.195C108.095 177.195 106.91 176.684 106.09 175.662C105.27 174.64 104.85 173.175 104.83 171.268V168.65C104.83 166.665 105.24 165.158 106.061 164.129C106.887 163.1 108.076 162.586 109.625 162.586C111.174 162.586 112.359 163.097 113.18 164.119C114 165.135 114.42 166.596 114.439 168.504V171.121ZM111.617 168.25C111.617 167.072 111.454 166.215 111.129 165.682C110.81 165.141 110.309 164.871 109.625 164.871C108.961 164.871 108.469 165.128 108.15 165.643C107.838 166.15 107.672 166.948 107.652 168.035V171.492C107.652 172.651 107.809 173.514 108.121 174.08C108.44 174.64 108.948 174.92 109.645 174.92C110.335 174.92 110.833 174.65 111.139 174.109C111.445 173.569 111.604 172.742 111.617 171.629V168.25ZM125.924 171.121C125.924 173.087 125.517 174.591 124.703 175.633C123.889 176.674 122.698 177.195 121.129 177.195C119.579 177.195 118.395 176.684 117.574 175.662C116.754 174.64 116.334 173.175 116.314 171.268V168.65C116.314 166.665 116.725 165.158 117.545 164.129C118.372 163.1 119.56 162.586 121.109 162.586C122.659 162.586 123.844 163.097 124.664 164.119C125.484 165.135 125.904 166.596 125.924 168.504V171.121ZM123.102 168.25C123.102 167.072 122.939 166.215 122.613 165.682C122.294 165.141 121.793 164.871 121.109 164.871C120.445 164.871 119.954 165.128 119.635 165.643C119.322 166.15 119.156 166.948 119.137 168.035V171.492C119.137 172.651 119.293 173.514 119.605 174.08C119.924 174.64 120.432 174.92 121.129 174.92C121.819 174.92 122.317 174.65 122.623 174.109C122.929 173.569 123.089 172.742 123.102 171.629V168.25ZM142.389 171.121C142.389 173.087 141.982 174.591 141.168 175.633C140.354 176.674 139.163 177.195 137.594 177.195C136.044 177.195 134.859 176.684 134.039 175.662C133.219 174.64 132.799 173.175 132.779 171.268V168.65C132.779 166.665 133.189 165.158 134.01 164.129C134.837 163.1 136.025 162.586 137.574 162.586C139.124 162.586 140.309 163.097 141.129 164.119C141.949 165.135 142.369 166.596 142.389 168.504V171.121ZM139.566 168.25C139.566 167.072 139.404 166.215 139.078 165.682C138.759 165.141 138.258 164.871 137.574 164.871C136.91 164.871 136.419 165.128 136.1 165.643C135.787 166.15 135.621 166.948 135.602 168.035V171.492C135.602 172.651 135.758 173.514 136.07 174.08C136.389 174.64 136.897 174.92 137.594 174.92C138.284 174.92 138.782 174.65 139.088 174.109C139.394 173.569 139.553 172.742 139.566 171.629V168.25ZM153.873 171.121C153.873 173.087 153.466 174.591 152.652 175.633C151.839 176.674 150.647 177.195 149.078 177.195C147.529 177.195 146.344 176.684 145.523 175.662C144.703 174.64 144.283 173.175 144.264 171.268V168.65C144.264 166.665 144.674 165.158 145.494 164.129C146.321 163.1 147.509 162.586 149.059 162.586C150.608 162.586 151.793 163.097 152.613 164.119C153.434 165.135 153.854 166.596 153.873 168.504V171.121ZM151.051 168.25C151.051 167.072 150.888 166.215 150.562 165.682C150.243 165.141 149.742 164.871 149.059 164.871C148.395 164.871 147.903 165.128 147.584 165.643C147.271 166.15 147.105 166.948 147.086 168.035V171.492C147.086 172.651 147.242 173.514 147.555 174.08C147.874 174.64 148.382 174.92 149.078 174.92C149.768 174.92 150.266 174.65 150.572 174.109C150.878 173.569 151.038 172.742 151.051 171.629V168.25ZM165.357 171.121C165.357 173.087 164.951 174.591 164.137 175.633C163.323 176.674 162.132 177.195 160.562 177.195C159.013 177.195 157.828 176.684 157.008 175.662C156.188 174.64 155.768 173.175 155.748 171.268V168.65C155.748 166.665 156.158 165.158 156.979 164.129C157.805 163.1 158.993 162.586 160.543 162.586C162.092 162.586 163.277 163.097 164.098 164.119C164.918 165.135 165.338 166.596 165.357 168.504V171.121ZM162.535 168.25C162.535 167.072 162.372 166.215 162.047 165.682C161.728 165.141 161.227 164.871 160.543 164.871C159.879 164.871 159.387 165.128 159.068 165.643C158.756 166.15 158.59 166.948 158.57 168.035V171.492C158.57 172.651 158.727 173.514 159.039 174.08C159.358 174.64 159.866 174.92 160.562 174.92C161.253 174.92 161.751 174.65 162.057 174.109C162.363 173.569 162.522 172.742 162.535 171.629V168.25Z" fill="black"/>
<g clip-path="url(#clip0_104_3881)">
<path d="M39.5015 135.549H62.5035V149.549H39.5015V135.549Z" fill="white"/>
<path d="M39.5015 135.549H62.5035V136.495H39.5015V135.549ZM39.5015 137.441H62.5035V138.388H39.5015V137.441ZM39.5015 139.334H62.5035V140.28H39.5015V139.334ZM39.5015 141.226H62.5035V142.172H39.5015V141.226ZM39.5015 143.119H62.5035V144.065H39.5015V143.119ZM39.5015 145.011H62.5035V145.957H39.5015V145.011ZM39.5015 146.904H62.5035V147.85H39.5015V146.904Z" fill="#B22234"/>
<path d="M39.5333 148.628H62.5354V149.575H39.5333V148.628ZM39.5333 150.521H62.5354V151.467H39.5333V150.521ZM39.5333 152.413H62.5354V153.36H39.5333V152.413ZM39.5333 154.306H62.5354V155.252H39.5333V154.306ZM39.5333 156.198H62.5354V157.145H39.5333V156.198ZM39.5333 158.091H62.5354V159.037H39.5333V158.091ZM39.5333 159.983H62.5354V160.929H39.5333V159.983Z" fill="#B22234"/>
<path d="M39.5015 135.549H48.7023V142.172H39.5015V135.549Z" fill="#3C3B6E"/>
<path d="M39.9337 136.086L40.1529 136.248L40.0692 136.51L40.2883 136.348L40.5075 136.51L40.4238 136.248L40.6429 136.086H40.3721L40.2883 135.825L40.2046 136.086H39.9337ZM41.4591 136.086L41.6783 136.248L41.5945 136.51L41.8138 136.348L42.033 136.51L41.9492 136.248L42.1684 136.086H41.8975L41.8138 135.825L41.73 136.086H41.4591ZM42.9846 136.086L43.2037 136.248L43.12 136.51L43.3392 136.348L43.5583 136.51L43.4746 136.248L43.6938 136.086H43.4229L43.3392 135.825L43.2554 136.086H42.9846ZM44.51 136.086L44.7291 136.248L44.6454 136.51L44.8646 136.348L45.0837 136.51L45 136.248L45.2192 136.086H44.9482L44.8646 135.825L44.7809 136.086H44.51ZM46.0353 136.086L46.2545 136.248L46.1708 136.51L46.3899 136.348L46.6091 136.51L46.5254 136.248L46.7445 136.086H46.4737L46.3899 135.825L46.3062 136.086H46.0353ZM47.5607 136.086L47.7799 136.248L47.6961 136.51L47.9154 136.348L48.1345 136.51L48.0508 136.248L48.27 136.086H47.9991L47.9154 135.825L47.8316 136.086H47.5607ZM40.6964 136.751L40.9156 136.913L40.8319 137.174L41.0511 137.013L41.2702 137.174L41.1865 136.913L41.4057 136.751H41.1347L41.0511 136.489L40.9674 136.751H40.6964ZM42.2218 136.751L42.441 136.913L42.3573 137.174L42.5764 137.013L42.7956 137.174L42.7119 136.913L42.931 136.751H42.6602L42.5764 136.489L42.4927 136.751H42.2218ZM43.7472 136.751L43.9664 136.913L43.8827 137.174L44.1018 137.013L44.3211 137.174L44.2373 136.913L44.4565 136.751H44.1856L44.1018 136.489L44.0181 136.751H43.7472ZM45.2726 136.751L45.4918 136.913L45.4081 137.174L45.6273 137.013L45.8464 137.174L45.7627 136.913L45.9819 136.751H45.711L45.6273 136.489L45.5435 136.751H45.2726ZM46.798 136.751L47.0172 136.913L46.9335 137.174L47.1526 137.013L47.3718 137.174L47.2881 136.913L47.5072 136.751H47.2363L47.1526 136.489L47.069 136.751H46.798ZM39.9337 137.415L40.1529 137.577L40.0692 137.839L40.2883 137.677L40.5075 137.839L40.4238 137.577L40.6429 137.415H40.3721L40.2883 137.153L40.2046 137.415H39.9337ZM41.4591 137.415L41.6783 137.577L41.5945 137.839L41.8138 137.677L42.033 137.839L41.9492 137.577L42.1684 137.415H41.8975L41.8138 137.153L41.73 137.415H41.4591ZM42.9846 137.415L43.2037 137.577L43.12 137.839L43.3392 137.677L43.5583 137.839L43.4746 137.577L43.6938 137.415H43.4229L43.3392 137.153L43.2554 137.415H42.9846ZM44.51 137.415L44.7291 137.577L44.6454 137.839L44.8646 137.677L45.0837 137.839L45 137.577L45.2192 137.415H44.9482L44.8646 137.153L44.7809 137.415H44.51ZM46.0353 137.415L46.2545 137.577L46.1708 137.839L46.3899 137.677L46.6091 137.839L46.5254 137.577L46.7445 137.415H46.4737L46.3899 137.153L46.3062 137.415H46.0353ZM47.5607 137.415L47.7799 137.577L47.6961 137.839L47.9154 137.677L48.1345 137.839L48.0508 137.577L48.27 137.415H47.9991L47.9154 137.153L47.8316 137.415H47.5607ZM40.7152 138.081L40.9344 138.243L40.8507 138.505L41.0699 138.343L41.2891 138.505L41.2053 138.243L41.4245 138.081H41.1536L41.0699 137.82L40.9861 138.081H40.7152ZM42.2407 138.081L42.4598 138.243L42.3761 138.505L42.5953 138.343L42.8144 138.505L42.7307 138.243L42.9499 138.081H42.679L42.5953 137.82L42.5116 138.081H42.2407ZM43.7661 138.081L43.9852 138.243L43.9015 138.505L44.1207 138.343L44.3398 138.505L44.2561 138.243L44.4753 138.081H44.2044L44.1207 137.82L44.037 138.081H43.7661ZM45.2914 138.081L45.5106 138.243L45.4269 138.505L45.646 138.343L45.8653 138.505L45.7815 138.243L46.0007 138.081H45.7298L45.646 137.82L45.5623 138.081H45.2914ZM46.8169 138.081L47.036 138.243L46.9523 138.505L47.1715 138.343L47.3906 138.505L47.3069 138.243L47.5261 138.081H47.2552L47.1715 137.82L47.0877 138.081H46.8169ZM39.9569 138.74L40.1761 138.902L40.0924 139.164L40.3115 139.002L40.5307 139.164L40.447 138.902L40.6661 138.74H40.3952L40.3115 138.478L40.2278 138.74H39.9569ZM41.4823 138.74L41.7014 138.902L41.6177 139.164L41.8369 139.002L42.056 139.164L41.9724 138.902L42.1915 138.74H41.9206L41.8369 138.478L41.7532 138.74H41.4823ZM43.0077 138.74L43.2268 138.902L43.1431 139.164L43.3623 139.002L43.5815 139.164L43.4977 138.902L43.7169 138.74H43.4461L43.3623 138.478L43.2786 138.74H43.0077ZM44.5331 138.74L44.7523 138.902L44.6685 139.164L44.8877 139.002L45.1069 139.164L45.0232 138.902L45.2424 138.74H44.9714L44.8877 138.478L44.804 138.74H44.5331ZM46.0585 138.74L46.2776 138.902L46.194 139.164L46.4131 139.002L46.6323 139.164L46.5486 138.902L46.7677 138.74H46.4968L46.4131 138.478L46.3294 138.74H46.0585ZM47.5839 138.74L47.803 138.902L47.7193 139.164L47.9385 139.002L48.1576 139.164L48.0739 138.902L48.2931 138.74H48.0222L47.9385 138.478L47.8548 138.74H47.5839ZM39.9712 140.048L40.1903 140.209L40.1066 140.471L40.3258 140.309L40.545 140.471L40.4612 140.209L40.6804 140.048H40.4096L40.3258 139.786L40.2421 140.048H39.9712ZM41.4966 140.048L41.7158 140.209L41.632 140.471L41.8512 140.309L42.0704 140.471L41.9866 140.209L42.2058 140.048H41.9349L41.8512 139.786L41.7674 140.048H41.4966ZM43.022 140.048L43.2411 140.209L43.1575 140.471L43.3766 140.309L43.5958 140.471L43.5121 140.209L43.7312 140.048H43.4603L43.3766 139.786L43.2929 140.048H43.022ZM44.5474 140.048L44.7665 140.209L44.6828 140.471L44.902 140.309L45.1211 140.471L45.0375 140.209L45.2566 140.048H44.9857L44.902 139.786L44.8183 140.048H44.5474ZM46.0727 140.048L46.2919 140.209L46.2082 140.471L46.4274 140.309L46.6466 140.471L46.5628 140.209L46.782 140.048H46.5111L46.4274 139.786L46.3437 140.048H46.0727ZM47.5982 140.048L47.8173 140.209L47.7336 140.471L47.9528 140.309L48.172 140.471L48.0883 140.209L48.3074 140.048H48.0365L47.9528 139.786L47.869 140.048H47.5982ZM39.9526 141.37L40.1717 141.532L40.088 141.794L40.3072 141.632L40.5263 141.794L40.4426 141.532L40.6618 141.37H40.3908L40.3072 141.109L40.2235 141.37H39.9526ZM41.4779 141.37L41.6971 141.532L41.6134 141.794L41.8325 141.632L42.0517 141.794L41.968 141.532L42.1872 141.37H41.9163L41.8325 141.109L41.7488 141.37H41.4779ZM43.0033 141.37L43.2225 141.532L43.1388 141.794L43.358 141.632L43.5772 141.794L43.4934 141.532L43.7126 141.37H43.4417L43.358 141.109L43.2742 141.37H43.0033ZM44.5288 141.37L44.7479 141.532L44.6642 141.794L44.8834 141.632L45.1025 141.794L45.0189 141.532L45.238 141.37H44.9671L44.8834 141.109L44.7996 141.37H44.5288ZM46.0541 141.37L46.2733 141.532L46.1896 141.794L46.4087 141.632L46.6279 141.794L46.5442 141.532L46.7634 141.37H46.4924L46.4087 141.109L46.3251 141.37H46.0541ZM47.5795 141.37L47.7987 141.532L47.715 141.794L47.9341 141.632L48.1533 141.794L48.0696 141.532L48.2888 141.37H48.0179L47.9341 141.109L47.8504 141.37H47.5795ZM40.7198 139.387L40.9389 139.549L40.8553 139.811L41.0744 139.649L41.2936 139.811L41.2099 139.549L41.429 139.387H41.1581L41.0744 139.126L40.9907 139.387H40.7198ZM42.2452 139.387L42.4643 139.549L42.3806 139.811L42.5998 139.649L42.8189 139.811L42.7353 139.549L42.9544 139.387H42.6835L42.5998 139.126L42.5161 139.387H42.2452ZM43.7706 139.387L43.9897 139.549L43.906 139.811L44.1252 139.649L44.3444 139.811L44.2606 139.549L44.4798 139.387H44.209L44.1252 139.126L44.0415 139.387H43.7706ZM45.296 139.387L45.5152 139.549L45.4314 139.811L45.6506 139.649L45.8698 139.811L45.7861 139.549L46.0052 139.387H45.7343L45.6506 139.126L45.5668 139.387H45.296ZM46.8214 139.387L47.0405 139.549L46.9568 139.811L47.176 139.649L47.3951 139.811L47.3115 139.549L47.5306 139.387H47.2597L47.176 139.126L47.0923 139.387H46.8214ZM40.7152 140.708L40.9345 140.87L40.8507 141.132L41.0699 140.97L41.2891 141.132L41.2053 140.87L41.4245 140.708H41.1536L41.0699 140.446L40.9861 140.708H40.7152ZM42.2407 140.708L42.4598 140.87L42.3761 141.132L42.5953 140.97L42.8145 141.132L42.7308 140.87L42.9499 140.708H42.679L42.5953 140.446L42.5116 140.708H42.2407ZM43.7661 140.708L43.9852 140.87L43.9015 141.132L44.1207 140.97L44.3398 141.132L44.2561 140.87L44.4753 140.708H44.2044L44.1207 140.446L44.037 140.708H43.7661ZM45.2914 140.708L45.5106 140.87L45.4269 141.132L45.646 140.97L45.8653 141.132L45.7815 140.87L46.0007 140.708H45.7298L45.646 140.446L45.5623 140.708H45.2914ZM46.8169 140.708L47.036 140.87L46.9523 141.132L47.1715 140.97L47.3906 141.132L47.307 140.87L47.5261 140.708H47.2552L47.1715 140.446L47.0877 140.708H46.8169Z" fill="white"/>
</g>
<path d="M65.7539 137.047L68.625 144.676L71.4893 137.047H73.7246V147H72.002V143.719L72.1729 139.33L69.2334 147H67.9961L65.0635 139.337L65.2344 143.719V147H63.5117V137.047H65.7539ZM81.5928 142.557H77.5049V145.619H82.2832V147H75.7754V137.047H82.2354V138.441H77.5049V141.189H81.5928V142.557ZM91.3203 145.708C90.9603 146.177 90.4613 146.533 89.8232 146.774C89.1852 147.016 88.4606 147.137 87.6494 147.137C86.8154 147.137 86.0771 146.948 85.4346 146.569C84.792 146.191 84.2952 145.651 83.9443 144.949C83.598 144.243 83.418 143.42 83.4043 142.481V141.702C83.4043 140.198 83.7643 139.025 84.4844 138.182C85.2044 137.334 86.2093 136.91 87.499 136.91C88.6064 136.91 89.486 137.184 90.1377 137.73C90.7894 138.277 91.1813 139.066 91.3135 140.096H89.6182C89.4268 138.897 88.7318 138.298 87.5332 138.298C86.7585 138.298 86.1683 138.578 85.7627 139.139C85.3617 139.695 85.1543 140.513 85.1406 141.593V142.358C85.1406 143.434 85.3662 144.27 85.8174 144.867C86.2731 145.46 86.9043 145.756 87.7109 145.756C88.5951 145.756 89.224 145.555 89.5977 145.154V143.206H87.5469V141.894H91.3203V145.708ZM98.792 144.683H94.9365L94.1299 147H92.332L96.0918 137.047H97.6436L101.41 147H99.6055L98.792 144.683ZM95.4219 143.288H98.3066L96.8643 139.159L95.4219 143.288ZM108.273 137.047L111.145 144.676L114.009 137.047H116.244V147H114.521V143.719L114.692 139.33L111.753 147H110.516L107.583 139.337L107.754 143.719V147H106.031V137.047H108.273ZM120.12 147H118.397V137.047H120.12V147ZM123.976 145.619H128.494V147H122.246V137.047H123.976V145.619ZM131.55 145.619H136.068V147H129.82V137.047H131.55V145.619ZM139.22 147H137.497V137.047H139.22V147ZM149.289 142.283C149.289 143.258 149.12 144.115 148.783 144.854C148.446 145.587 147.963 146.152 147.334 146.549C146.71 146.941 145.99 147.137 145.174 147.137C144.367 147.137 143.647 146.941 143.014 146.549C142.385 146.152 141.897 145.59 141.551 144.86C141.209 144.131 141.036 143.29 141.031 142.338V141.777C141.031 140.807 141.202 139.95 141.544 139.207C141.89 138.464 142.376 137.897 143 137.505C143.629 137.108 144.349 136.91 145.16 136.91C145.971 136.91 146.689 137.106 147.313 137.498C147.942 137.885 148.428 138.446 148.77 139.18C149.111 139.909 149.285 140.759 149.289 141.729V142.283ZM147.56 141.764C147.56 140.661 147.35 139.815 146.931 139.228C146.516 138.64 145.926 138.346 145.16 138.346C144.413 138.346 143.827 138.64 143.403 139.228C142.984 139.811 142.77 140.638 142.761 141.709V142.283C142.761 143.377 142.973 144.222 143.396 144.819C143.825 145.416 144.417 145.715 145.174 145.715C145.939 145.715 146.527 145.423 146.938 144.84C147.352 144.257 147.56 143.404 147.56 142.283V141.764ZM158.907 147H157.178L152.741 139.938V147H151.012V137.047H152.741L157.191 144.136V137.047H158.907V147ZM166.153 144.437C166.153 143.999 165.998 143.662 165.688 143.425C165.383 143.188 164.829 142.949 164.027 142.707C163.225 142.465 162.587 142.197 162.113 141.9C161.206 141.331 160.753 140.588 160.753 139.672C160.753 138.87 161.079 138.209 161.73 137.689C162.387 137.17 163.237 136.91 164.28 136.91C164.973 136.91 165.59 137.038 166.133 137.293C166.675 137.548 167.101 137.913 167.411 138.387C167.721 138.856 167.876 139.378 167.876 139.952H166.153C166.153 139.433 165.989 139.027 165.661 138.735C165.338 138.439 164.873 138.291 164.267 138.291C163.701 138.291 163.262 138.412 162.947 138.653C162.637 138.895 162.482 139.232 162.482 139.665C162.482 140.03 162.651 140.335 162.988 140.581C163.326 140.823 163.882 141.06 164.656 141.292C165.431 141.52 166.053 141.782 166.522 142.078C166.992 142.37 167.336 142.707 167.555 143.09C167.773 143.468 167.883 143.912 167.883 144.423C167.883 145.252 167.564 145.913 166.926 146.405C166.292 146.893 165.431 147.137 164.342 147.137C163.622 147.137 162.959 147.005 162.353 146.74C161.751 146.471 161.282 146.102 160.944 145.633C160.612 145.163 160.445 144.617 160.445 143.992H162.175C162.175 144.557 162.362 144.995 162.735 145.305C163.109 145.615 163.645 145.77 164.342 145.77C164.943 145.77 165.395 145.649 165.695 145.407C166.001 145.161 166.153 144.838 166.153 144.437Z" fill="black"/>
<path d="M74.1111 194.444H75.8889V198H78.5556V199.778H74.1111V194.444Z" fill="#0061A3"/>
<path fill-rule="evenodd" clip-rule="evenodd" d="M67 198C67 193.582 70.5817 190 75 190C79.4183 190 83 193.582 83 198C83 202.418 79.4183 206 75 206C70.5817 206 67 202.418 67 198ZM68.7778 198C68.7778 194.564 71.5636 191.778 75 191.778C78.4364 191.778 81.2222 194.564 81.2222 198C81.2222 201.436 78.4364 204.222 75 204.222C71.5636 204.222 68.7778 201.436 68.7778 198Z" fill="#0061A3"/>
<path d="M92.9922 203H91.1016V193.867L88.3125 194.82V193.219L92.75 191.586H92.9922V203ZM98.2109 201C98.5651 201 98.8385 201.102 99.0312 201.305C99.224 201.503 99.3203 201.753 99.3203 202.055C99.3203 202.352 99.224 202.599 99.0312 202.797C98.8385 202.99 98.5651 203.086 98.2109 203.086C97.8724 203.086 97.6042 202.99 97.4062 202.797C97.2083 202.604 97.1094 202.357 97.1094 202.055C97.1094 201.753 97.2057 201.503 97.3984 201.305C97.5911 201.102 97.862 201 98.2109 201ZM98.2109 194.367C98.5651 194.367 98.8385 194.469 99.0312 194.672C99.224 194.87 99.3203 195.12 99.3203 195.422C99.3203 195.719 99.224 195.966 99.0312 196.164C98.8385 196.357 98.5651 196.453 98.2109 196.453C97.8724 196.453 97.6042 196.357 97.4062 196.164C97.2083 195.971 97.1094 195.724 97.1094 195.422C97.1094 195.12 97.2057 194.87 97.3984 194.672C97.5911 194.469 97.862 194.367 98.2109 194.367ZM108.844 203H101.195V201.695L104.984 197.562C105.531 196.953 105.919 196.445 106.148 196.039C106.383 195.628 106.5 195.216 106.5 194.805C106.5 194.263 106.346 193.826 106.039 193.492C105.737 193.159 105.328 192.992 104.812 192.992C104.198 192.992 103.721 193.18 103.383 193.555C103.044 193.93 102.875 194.443 102.875 195.094H100.977C100.977 194.401 101.133 193.779 101.445 193.227C101.763 192.669 102.214 192.237 102.797 191.93C103.385 191.622 104.062 191.469 104.828 191.469C105.932 191.469 106.802 191.747 107.438 192.305C108.078 192.857 108.398 193.622 108.398 194.602C108.398 195.169 108.237 195.766 107.914 196.391C107.596 197.01 107.073 197.716 106.344 198.508L103.562 201.484H108.844V203ZM117.938 203H110.289V201.695L114.078 197.562C114.625 196.953 115.013 196.445 115.242 196.039C115.477 195.628 115.594 195.216 115.594 194.805C115.594 194.263 115.44 193.826 115.133 193.492C114.831 193.159 114.422 192.992 113.906 192.992C113.292 192.992 112.815 193.18 112.477 193.555C112.138 193.93 111.969 194.443 111.969 195.094H110.07C110.07 194.401 110.227 193.779 110.539 193.227C110.857 192.669 111.307 192.237 111.891 191.93C112.479 191.622 113.156 191.469 113.922 191.469C115.026 191.469 115.896 191.747 116.531 192.305C117.172 192.857 117.492 193.622 117.492 194.602C117.492 195.169 117.331 195.766 117.008 196.391C116.69 197.01 116.167 197.716 115.438 198.508L112.656 201.484H117.938V203ZM120.648 201C121.003 201 121.276 201.102 121.469 201.305C121.661 201.503 121.758 201.753 121.758 202.055C121.758 202.352 121.661 202.599 121.469 202.797C121.276 202.99 121.003 203.086 120.648 203.086C120.31 203.086 120.042 202.99 119.844 202.797C119.646 202.604 119.547 202.357 119.547 202.055C119.547 201.753 119.643 201.503 119.836 201.305C120.029 201.102 120.299 201 120.648 201ZM120.648 194.367C121.003 194.367 121.276 194.469 121.469 194.672C121.661 194.87 121.758 195.12 121.758 195.422C121.758 195.719 121.661 195.966 121.469 196.164C121.276 196.357 121.003 196.453 120.648 196.453C120.31 196.453 120.042 196.357 119.844 196.164C119.646 195.971 119.547 195.724 119.547 195.422C119.547 195.12 119.643 194.87 119.836 194.672C120.029 194.469 120.299 194.367 120.648 194.367ZM131.047 198.211C131.047 199.846 130.74 201.081 130.125 201.914C129.516 202.742 128.586 203.156 127.336 203.156C126.107 203.156 125.18 202.753 124.555 201.945C123.935 201.133 123.617 199.932 123.602 198.344V196.375C123.602 194.74 123.906 193.513 124.516 192.695C125.13 191.878 126.065 191.469 127.32 191.469C128.565 191.469 129.492 191.867 130.102 192.664C130.716 193.461 131.031 194.654 131.047 196.242V198.211ZM129.148 196.086C129.148 195.018 129.003 194.237 128.711 193.742C128.419 193.242 127.956 192.992 127.32 192.992C126.701 192.992 126.245 193.229 125.953 193.703C125.661 194.172 125.508 194.906 125.492 195.906V198.484C125.492 199.547 125.641 200.339 125.938 200.859C126.234 201.38 126.701 201.641 127.336 201.641C127.945 201.641 128.396 201.401 128.688 200.922C128.979 200.438 129.133 199.682 129.148 198.656V196.086ZM137.867 203H135.977V193.867L133.188 194.82V193.219L137.625 191.586H137.867V203Z" fill="#0061A3"/>
<path d="M13 227C13 222.582 16.5817 219 21 219H187C191.418 219 195 222.582 195 227V249C195 253.418 191.418 257 187 257H21C16.5817 257 13 253.418 13 249V227Z" fill="#F7D300"/>
<path d="M76.5078 238.758H73.5469V237.203H76.5078C77.0234 237.203 77.4401 237.12 77.7578 236.953C78.0755 236.786 78.3073 236.557 78.4531 236.266C78.6042 235.969 78.6797 235.63 78.6797 235.25C78.6797 234.891 78.6042 234.555 78.4531 234.242C78.3073 233.924 78.0755 233.669 77.7578 233.477C77.4401 233.284 77.0234 233.188 76.5078 233.188H74.1484V243H72.1875V231.625H76.5078C77.388 231.625 78.1354 231.781 78.75 232.094C79.3698 232.401 79.8411 232.828 80.1641 233.375C80.487 233.917 80.6484 234.536 80.6484 235.234C80.6484 235.969 80.487 236.599 80.1641 237.125C79.8411 237.651 79.3698 238.055 78.75 238.336C78.1354 238.617 77.388 238.758 76.5078 238.758ZM84.2344 231V243H82.3438V231H84.2344ZM91.0625 241.305V237.273C91.0625 236.971 91.0078 236.711 90.8984 236.492C90.7891 236.273 90.6224 236.104 90.3984 235.984C90.1797 235.865 89.9036 235.805 89.5703 235.805C89.263 235.805 88.9974 235.857 88.7734 235.961C88.5495 236.065 88.375 236.206 88.25 236.383C88.125 236.56 88.0625 236.76 88.0625 236.984H86.1875C86.1875 236.651 86.2682 236.328 86.4297 236.016C86.5911 235.703 86.8255 235.424 87.1328 235.18C87.4401 234.935 87.8073 234.742 88.2344 234.602C88.6615 234.461 89.1406 234.391 89.6719 234.391C90.3073 234.391 90.8698 234.497 91.3594 234.711C91.8542 234.924 92.2422 235.247 92.5234 235.68C92.8099 236.107 92.9531 236.643 92.9531 237.289V241.047C92.9531 241.432 92.9792 241.779 93.0312 242.086C93.0885 242.388 93.1693 242.651 93.2734 242.875V243H91.3438C91.2552 242.797 91.1849 242.539 91.1328 242.227C91.0859 241.909 91.0625 241.602 91.0625 241.305ZM91.3359 237.859L91.3516 239.023H90C89.651 239.023 89.3438 239.057 89.0781 239.125C88.8125 239.188 88.5911 239.281 88.4141 239.406C88.237 239.531 88.1042 239.682 88.0156 239.859C87.9271 240.036 87.8828 240.237 87.8828 240.461C87.8828 240.685 87.9349 240.891 88.0391 241.078C88.1432 241.26 88.2943 241.404 88.4922 241.508C88.6953 241.612 88.9401 241.664 89.2266 241.664C89.612 241.664 89.9479 241.586 90.2344 241.43C90.526 241.268 90.7552 241.073 90.9219 240.844C91.0885 240.609 91.1771 240.388 91.1875 240.18L91.7969 241.016C91.7344 241.229 91.6276 241.458 91.4766 241.703C91.3255 241.948 91.1276 242.182 90.8828 242.406C90.6432 242.625 90.3542 242.805 90.0156 242.945C89.6823 243.086 89.2969 243.156 88.8594 243.156C88.3073 243.156 87.8151 243.047 87.3828 242.828C86.9505 242.604 86.612 242.305 86.3672 241.93C86.1224 241.549 86 241.12 86 240.641C86 240.193 86.0833 239.797 86.25 239.453C86.4219 239.104 86.6719 238.812 87 238.578C87.3333 238.344 87.7396 238.167 88.2188 238.047C88.6979 237.922 89.2448 237.859 89.8594 237.859H91.3359ZM97.25 242.078L99.5469 234.547H101.562L98.1719 244.289C98.0938 244.497 97.9922 244.724 97.8672 244.969C97.7422 245.214 97.5781 245.445 97.375 245.664C97.1771 245.888 96.9297 246.068 96.6328 246.203C96.3359 246.344 95.9766 246.414 95.5547 246.414C95.388 246.414 95.2266 246.398 95.0703 246.367C94.9193 246.341 94.776 246.312 94.6406 246.281L94.6328 244.844C94.6849 244.849 94.7474 244.854 94.8203 244.859C94.8984 244.865 94.9609 244.867 95.0078 244.867C95.3203 244.867 95.5807 244.828 95.7891 244.75C95.9974 244.677 96.1667 244.557 96.2969 244.391C96.4323 244.224 96.5469 244 96.6406 243.719L97.25 242.078ZM95.9531 234.547L97.9609 240.875L98.2969 242.859L96.9922 243.195L93.9219 234.547H95.9531ZM115.836 231.625V243H113.875L108.773 234.852V243H106.812V231.625H108.773L113.891 239.789V231.625H115.836ZM117.625 238.867V238.688C117.625 238.078 117.714 237.513 117.891 236.992C118.068 236.466 118.323 236.01 118.656 235.625C118.995 235.234 119.406 234.932 119.891 234.719C120.38 234.5 120.932 234.391 121.547 234.391C122.167 234.391 122.719 234.5 123.203 234.719C123.693 234.932 124.107 235.234 124.445 235.625C124.784 236.01 125.042 236.466 125.219 236.992C125.396 237.513 125.484 238.078 125.484 238.688V238.867C125.484 239.477 125.396 240.042 125.219 240.562C125.042 241.083 124.784 241.539 124.445 241.93C124.107 242.315 123.695 242.617 123.211 242.836C122.727 243.049 122.177 243.156 121.562 243.156C120.943 243.156 120.388 243.049 119.898 242.836C119.414 242.617 119.003 242.315 118.664 241.93C118.326 241.539 118.068 241.083 117.891 240.562C117.714 240.042 117.625 239.477 117.625 238.867ZM119.508 238.688V238.867C119.508 239.247 119.547 239.607 119.625 239.945C119.703 240.284 119.826 240.581 119.992 240.836C120.159 241.091 120.372 241.292 120.633 241.438C120.893 241.583 121.203 241.656 121.562 241.656C121.911 241.656 122.214 241.583 122.469 241.438C122.729 241.292 122.943 241.091 123.109 240.836C123.276 240.581 123.398 240.284 123.477 239.945C123.56 239.607 123.602 239.247 123.602 238.867V238.688C123.602 238.312 123.56 237.958 123.477 237.625C123.398 237.286 123.273 236.987 123.102 236.727C122.935 236.466 122.721 236.263 122.461 236.117C122.206 235.966 121.901 235.891 121.547 235.891C121.193 235.891 120.885 235.966 120.625 236.117C120.37 236.263 120.159 236.466 119.992 236.727C119.826 236.987 119.703 237.286 119.625 237.625C119.547 237.958 119.508 238.312 119.508 238.688ZM129.359 241.125L131.312 234.547H132.516L132.188 236.516L130.219 243H129.141L129.359 241.125ZM128.211 234.547L129.734 241.156L129.859 243H128.656L126.367 234.547H128.211ZM134.344 241.078L135.82 234.547H137.656L135.375 243H134.172L134.344 241.078ZM132.719 234.547L134.648 241.047L134.891 243H133.812L131.82 236.508L131.492 234.547H132.719Z" fill="black"/>
<path fill-rule="evenodd" clip-rule="evenodd" d="M189.533 16.7384L185.359 19.9235L186.869 24.8136C186.869 24.8136 187.741 26.8684 185.964 25.5411C184.336 24.3248 182.01 22.4882 182.01 22.4882C182.01 22.4882 179.571 24.3651 177.958 25.6045C176.335 26.8521 177.165 24.7496 177.165 24.7496L178.666 19.9173L174.588 16.8072C174.588 16.8072 173.11 15.758 174.841 15.758C176.833 15.758 179.948 15.7594 179.948 15.7594L181.575 10.4547C181.575 10.4547 181.702 10 182.022 10C182.362 10 182.476 10.4881 182.476 10.4881L184.084 15.7635C184.084 15.7635 187.167 15.758 189.161 15.758C190.799 15.758 189.533 16.7384 189.533 16.7384Z" fill="#F7D300"/>
<rect x="0.5" y="0.5" width="207" height="269" rx="7.5" stroke="#E0E0E0"/>
<defs>
<radialGradient id="paint0_radial_104_3881" cx="0" cy="0" r="1" gradientUnits="userSpaceOnUse" gradientTransform="translate(80.8738 49.7646) rotate(71.1343) scale(9.36824 10.2381)">
<stop stop-color="#FFF6D5"/>
<stop offset="1" stop-color="#FFF6D5" stop-opacity="0"/>
</radialGradient>
<radialGradient id="paint1_radial_104_3881" cx="0" cy="0" r="1" gradientUnits="userSpaceOnUse" gradientTransform="translate(81.549 49.7944) rotate(74.6764) scale(3.78793 4.6441)">
<stop stop-color="#FFF6D5"/>
<stop offset="1" stop-color="#FFF6D5" stop-opacity="0"/>
</radialGradient>
<clipPath id="clip0_104_3881">
<rect x="39.5" y="135.5" width="20" height="14" rx="2" fill="white"/>
</clipPath>
</defs>
</svg>
